<mxfile host="app.diagrams.net" agent="Mozilla/5.0 (Macintosh; Intel Mac OS X 10_15_7) AppleWebKit/537.36 (KHTML, like Gecko) Chrome/129.0.0.0 Safari/537.36 Edg/129.0.0.0" version="24.8.2">
  <diagram name="第 1 页" id="ElOKauZ2jSb5IFMG8FPt">
    <mxGraphModel dx="1241" dy="1160" grid="1" gridSize="10" guides="1" tooltips="1" connect="1" arrows="1" fold="1" page="1" pageScale="1" pageWidth="1169" pageHeight="827" math="0" shadow="0">
      <root>
        <mxCell id="0" />
        <mxCell id="1" parent="0" />
        <mxCell id="UFaXmECFwQH_9bim80W3-35" value="" style="whiteSpace=wrap;html=1;fillColor=#D8E6F0;strokeColor=none;" vertex="1" parent="1">
          <mxGeometry x="360" y="230" width="590" height="227" as="geometry" />
        </mxCell>
        <mxCell id="UFaXmECFwQH_9bim80W3-17" value="" style="whiteSpace=wrap;html=1;fillColor=#FAECD7;strokeColor=none;" vertex="1" parent="1">
          <mxGeometry x="590" y="10" width="360" height="220" as="geometry" />
        </mxCell>
        <mxCell id="UFaXmECFwQH_9bim80W3-15" style="edgeStyle=orthogonalEdgeStyle;rounded=0;orthogonalLoop=1;jettySize=auto;html=1;entryX=1;entryY=0.5;entryDx=0;entryDy=0;" edge="1" parent="1" source="UFaXmECFwQH_9bim80W3-6" target="UFaXmECFwQH_9bim80W3-12">
          <mxGeometry relative="1" as="geometry">
            <Array as="points">
              <mxPoint x="870" y="60" />
            </Array>
          </mxGeometry>
        </mxCell>
        <mxCell id="UFaXmECFwQH_9bim80W3-37" style="edgeStyle=orthogonalEdgeStyle;rounded=0;orthogonalLoop=1;jettySize=auto;html=1;entryX=1;entryY=0.5;entryDx=0;entryDy=0;" edge="1" parent="1" source="UFaXmECFwQH_9bim80W3-6" target="UFaXmECFwQH_9bim80W3-36">
          <mxGeometry relative="1" as="geometry" />
        </mxCell>
        <mxCell id="UFaXmECFwQH_9bim80W3-6" value="Amz店铺" style="sketch=0;outlineConnect=0;fontColor=#232F3E;gradientColor=none;fillColor=#232F3D;strokeColor=none;dashed=0;verticalLabelPosition=bottom;verticalAlign=top;align=center;html=1;fontSize=12;fontStyle=0;aspect=fixed;pointerEvents=1;shape=mxgraph.aws4.marketplace;" vertex="1" parent="1">
          <mxGeometry x="840" y="120" width="78" height="78" as="geometry" />
        </mxCell>
        <mxCell id="UFaXmECFwQH_9bim80W3-9" value="Buyer" style="verticalLabelPosition=bottom;html=1;verticalAlign=top;align=center;strokeColor=none;fillColor=#00BEF2;shape=mxgraph.azure.user;" vertex="1" parent="1">
          <mxGeometry x="360" y="40" width="38" height="40" as="geometry" />
        </mxCell>
        <mxCell id="UFaXmECFwQH_9bim80W3-12" value="" style="shape=image;verticalLabelPosition=bottom;labelBackgroundColor=default;verticalAlign=top;aspect=fixed;imageAspect=0;image=data:image/png,iVBORw0KGgoAAAANSUhEUgAAAHEAAAAzCAYAAACg7ue3AAAEDmlDQ1BrQ0dDb2xvclNwYWNlR2VuZXJpY1JHQgAAOI2NVV1oHFUUPpu5syskzoPUpqaSDv41lLRsUtGE2uj+ZbNt3CyTbLRBkMns3Z1pJjPj/KRpKT4UQRDBqOCT4P9bwSchaqvtiy2itFCiBIMo+ND6R6HSFwnruTOzu5O4a73L3PnmnO9+595z7t4LkLgsW5beJQIsGq4t5dPis8fmxMQ6dMF90A190C0rjpUqlSYBG+PCv9rt7yDG3tf2t/f/Z+uuUEcBiN2F2Kw4yiLiZQD+FcWyXYAEQfvICddi+AnEO2ycIOISw7UAVxieD/Cyz5mRMohfRSwoqoz+xNuIB+cj9loEB3Pw2448NaitKSLLRck2q5pOI9O9g/t/tkXda8Tbg0+PszB9FN8DuPaXKnKW4YcQn1Xk3HSIry5ps8UQ/2W5aQnxIwBdu7yFcgrxPsRjVXu8HOh0qao30cArp9SZZxDfg3h1wTzKxu5E/LUxX5wKdX5SnAzmDx4A4OIqLbB69yMesE1pKojLjVdoNsfyiPi45hZmAn3uLWdpOtfQOaVmikEs7ovj8hFWpz7EV6mel0L9Xy23FMYlPYZenAx0yDB1/PX6dledmQjikjkXCxqMJS9WtfFCyH9XtSekEF+2dH+P4tzITduTygGfv58a5VCTH5PtXD7EFZiNyUDBhHnsFTBgE0SQIA9pfFtgo6cKGuhooeilaKH41eDs38Ip+f4At1Rq/sjr6NEwQqb/I/DQqsLvaFUjvAx+eWirddAJZnAj1DFJL0mSg/gcIpPkMBkhoyCSJ8lTZIxk0TpKDjXHliJzZPO50dR5ASNSnzeLvIvod0HG/mdkmOC0z8VKnzcQ2M/Yz2vKldduXjp9bleLu0ZWn7vWc+l0JGcaai10yNrUnXLP/8Jf59ewX+c3Wgz+B34Df+vbVrc16zTMVgp9um9bxEfzPU5kPqUtVWxhs6OiWTVW+gIfywB9uXi7CGcGW/zk98k/kmvJ95IfJn/j3uQ+4c5zn3Kfcd+AyF3gLnJfcl9xH3OfR2rUee80a+6vo7EK5mmXUdyfQlrYLTwoZIU9wsPCZEtP6BWGhAlhL3p2N6sTjRdduwbHsG9kq32sgBepc+xurLPW4T9URpYGJ3ym4+8zA05u44QjST8ZIoVtu3qE7fWmdn5LPdqvgcZz8Ww8BWJ8X3w0PhQ/wnCDGd+LvlHs8dRy6bLLDuKMaZ20tZrqisPJ5ONiCq8yKhYM5cCgKOu66Lsc0aYOtZdo5QCwezI4wm9J/v0X23mlZXOfBjj8Jzv3WrY5D+CsA9D7aMs2gGfjve8ArD6mePZSeCfEYt8CONWDw8FXTxrPqx/r9Vt4biXeANh8vV7/+/16ffMD1N8AuKD/A/8leAvFY9bLAAAAOGVYSWZNTQAqAAAACAABh2kABAAAAAEAAAAaAAAAAAACoAIABAAAAAEAAABxoAMABAAAAAEAAAAzAAAAAGW/mlEAAA2vSURBVHgB7VkJfI3HFv9nl0giQmwhYmkID4mdxKutVUvUFtTSl9IUpbSoKq/aqr2qVR6l1iD2/fVpq7WrKiJEtGiiohJpCJH13tzkvjlfOl9m7r0J10XI757f796Zc87MfOebM+fMOeez8ahQVQ8rPNM7YPtMS28VXtkBqxJLwUGwKtGqxFKwA6XgFayWaFViKdiBUvAKVku0KrEU7EApeAWrJVqVWAp2oBS8gtUSS4ES7R/2HZo2a4ZeL4egXVBr1PL1VZZJTk7Gdz8cxK7dexF15ozR0oGBgWjZsoVKX/71Cujz8zFsWBh69eyBypW8cPjocSz7eiXifo9TxpV1dcVwxu/apTPc3Nxw4NBRbNq8BRdjL6rrGHaCg4Px4oud0bF9O1T39lbYf964ocwtSrYGDRtg4ID+hktJuL29HbQaDZavWIXEG4kSz47xQvv1Q6cOz6Nxo4ZIy8jA0SPH8e3+/Th18pQ0lhA3dzf0D+0He3sHhffLL6dw9uxZNGrcGGGvDkFw21ZI/isFu/d+gzVrI5CnyzNaQyVQAdycX3kvb/3qtRv094NZc+cbrbt1205pWrsOXfQrV6+TaIRoNFp9jVp+enrWpUuXjfhE6Nqjj9H6NH77jt0mx4vEaR/PNJo7b/5CcUix/ZGj35bmt2zbXn8h9mKRc2i/SDZxn1/o1lMaP33GHH2jwJYSjSO/nInSV6rmK80X1zLbnc6dPYOdlEHqIaAOe5iEE/L+pAno/EJniZ6U/JeK37p9GzOnT8OwsCEqjXccHR2wZPFCzJ83B35+z3Gy1O7YugGOTk4Sjeb06d1TopmS7eNpU9CmTRtpnC4vV8KLQ/LyCq2iopcXjh/ej4YN/IucQvtFsomQp8sXUVT0qoiVK76SaBxp0TQQQwa/wlGj1iwlkssJHx4mLTJu/Hvwb9QUIb36I+H6dYk3akS4hItIBU9PtAtuq5DS0u6JLKXfo9tLqoJN8cuUKYMmAY3VeeSqB/bvq+I5OTl4Y9RYRbbeoYOMZBsWNlQdS52Dh4/gv//7Vvnt2vMNduzcgzURkdBqjZX788mT6txlSxczl1h4Kx099hO6hfTFoFeH4yZzhxxItvYd2nPUqB0ZPgykrNTUu0hMTDLi03VTFBQ+vagRAr11q5YCBnwycy4iItYptOSbyZgwaSq2boxQx1SvVkXtG3ZsbGyUDeoa0gexF2PRNCAQ3+zZBqJzoA3s1XcgoqLPolvXl7Bq+RLOUtqqVaqqeLt2QWqfOv/+8BNs3bpNoZFsM2Z9iuVLv1TH1K1bW+1Th+6toQZ3F92tQwbJ9+SoMe/gekLBYfWtVQt073JIT09H6MDB0ORoOAmRESvV/oyPP0DwwUMqLnbovU9FnUXffgORlZXFvNBcyePVrFlDHC71zVLi5i3b2OV7Dt7e1VCxYgWsjVgvLRZ1JkrCc3U6CTdEVq6JUAOgEydO4NjxE6p10thlK1aD6AQ7d+zC/Dmz4OnpoeD0ly+4NZKF5lerWkWRbQ1bW4SDhw6LKBwcCgIKiSggzi4uWL92hWRl+384gE2bNqujeoZ0V/vU2b5zr6TAI0eOQsf2gFsqudyaNX1x7dof0jyOjHpzLNLvpSvoFwsXS0os71H43nw8b81SYiaLuCiCoh+HylUqo3at2vBikWVw29acrLS5ucauSBxw+fIVEcWFi79KSjwbHS3xE64nSEoUmWl37yoHQjxG1dhhq+lTE9WreyMwsIk4HPeTbXNkBMqVc1fnkHse/sYoFadOYIC85m+XLkt82q/4+KvSvd60WYBJJZLrjYuLV+fnaLLVPnXy843jDj7ALCXySTV8amDo4MEY0L83alSvLrlAPuZBWkNroPBdhBzBLYn04vp+9eph0MBQDBgQiirsYD0MhIW9Kh0mWuOVocNUK+Fr+hq4OJ3O+NBmZcvKqORViU+X2ptJ7B4UAkQ7OzuJXxxithIp4ty4bpXqIvjiFNTkZOdIp47zimptbWVBbe1kcexsbYuaapIeyvIu8d7jg+Li/2B5Vu4DyUYH9PP5c/hUpaUA55CJu8zwEPKcT5ycknJLREEBHQHlx48KzNolOuUUuHAfT0IsWrIcDZs0R0CzNnh95FuPSi6z16HI2VCBn372pSJbi9bBeC1cdoVFPWDj+jUSi9zcxEnvSbSikNxcrRGLomgRzEllxHnF9eWjX9xIxnt3/DhpxKo16zFt2kcqTWPgDnOFwEMd9Jg6H0yZLK28cNESzJpdaFFOjnJOKQ3+G5nEclsx36NctnnLoCKrJZQKiONdWXXJEDw9y0ukmzcLcmUbM72MtIgBYpYlthfCaVpn2/ad0nI+zBWJ4Okhv4DIe5R9SvqDWJlKhC3bdogo6tatI+GGCJW7qEAhQurtVIT06K6UBSndoFKZCNHnLogo/OvXk3AqxfGyH2fExMhzON2S1ixL5P6cP9CjvBz2/mvoIM5S2jq1fUHRK+VpjxPobnJ2dpYeUda1rIQPZIGOCPXr+YHqshRBklWs+GqRyFb6VC1auvhzlU554KYt2/HFl4uV2um+b7/DuxPGqvzOndqrfeo0aRIgRbhk2edjzktjHgViliVe//NP6ZlTJ08EhfFOzmUwduwYUJXFEObMmgE6kY8TcnKykZmZJT1i5icfsXTEU5FtyvuTISblNJDuqvnzZisKdGUKL6q8Jy5KBXiqWI0ZXXC/UqpFQROHihUqYN7cWcozKUBaumgBZynt7LmfFemapYFmImYpcffefdLydB/EnjuNSxeiQfVIU9CrZ3eUcy9nivXIaFThp5KZCFTC+vXCWUU20VrEMVQKs7W1gcPfXxJEHvVN1V2JLt6v4SNGE0kFUjLtx/mok9LBiD53HqsNChDqJAs7ZinxswVfGNUg6fk8Kf5w+iwEPd9ZFYnKZlRHTE1NVWherMojQrly8h1jyDcMFHxq+IjTIfI/mj7TqOZIhXQu28T3puKfHQs9BdVjO77QXbGMMsyTEBCNItqhYeFo3rqdUnelyJvmjR43AVRTJXBxKXTdZI1UihOBP5PTlHIaq9+KaYWToyNnKy3/nMeJDvYy33BNPo5as+5Eqop06NQVY996U0mmnf/+inD0+E9YuTpCzaVoE15jCfOkyVPU74L0sH3f7Wd5UnlotFrYs5yQis4iHDh4WOUT/XxMjMjGug2RqOfnB11eQTlP5N9KScHznV7C+HfGonevniDZcllueIh9f1y7LhLHjh1T1qIND+3XB2+Pn6jWQG/duq0U8GMuXAC9oyHQt8OY8+cRuWEjPmWpjCFQKS6WVZveHBmO7l1fVL57khVfufK7UjokCxQVSPOvJVxTDgV9oySFnmZ1UxFu3b7FAsddoANGe5WYdFNkS30b+i4lUR4QobyMu5X4q1eNXp4+0dDGikB3I7nWPJboUiJ/h22Y+HIUZbq7u6slsbS0NKmKQfVMZ3aX0XwCQz7RKEjx96+vyKZjKU58fLwSvBCPgynZiGdvp0dzby2aVc2Dn2c+3J0KtuaexgaHr9nh+HVHJKcXfb+TfP7+/kqZj4rYV9m+8I/b/NliS9EuFTxoLzKzMqW6K42jwItycuJns7JfNlvTFDy0Ek0tZorWp0FB2WnHxUIXZGpcSdNa+2gwsZUGHXyKrqQsOGWPmUeMc8GSlt0sd/owwro56rGgkxavB2rxzvcuuJRS/NeDh3mGpXPIAkc01cKFybrsnD1upNsig5VxXVl9oIOPTlVsYOWiFWypDJbMf+yWSMJVdsvDj4MyUNVVj/UX7bH6nCOiE+WL25KXsHgufcMUis/SeoyXOO4OnJgXfVot0azoVHo5MxC6R/6x3ENR4JAGOvz4Sha2hd5DF78c5R4yY6nHM1RQIB24qf/MwMKuGQXPEninbz52x/VQ7/fkpGKbMW6fK3b+pkHky9mKi+rgk4Mk5rc2/mqHH/9wwOkbjizyZFbxhMHDOR8da2kQ4qdDzzp5ytP3xBUEMDXL6xQrvHLXBidZYPM0whNxp4YvTps2KSgLI5rIX/6TMmxAm3c6sSAS/CvTjkWvhrMtx+kOrOOpQ2vvXLT3zUMX9iN3SaBhOhzzvRN4IDa6VRamB2sRvq+QVjDy6fkvESXy1w+opsW4lhr19HM6b5XTzxR6OdUWv9+xxW8p9kjJtIWWWeuDWCwpy5UFK5Vd89DQS4eqbiyFYOlDCxag0P1sCBTUzDvugrvZhbdM/JiCvLHOEo/HcqAMZXgYvESVyAW+nzL5OGrTWNSYlWuDBHZlJTOFcqBcjud1bg56eLnoUYEVYjyd9aqV8bFiS5b3nyh7rI8pg2t35NuF7uzIkBx03+qMnxPu/ylLXPdJ9p8KJfIXrueVy+4lLfrV1+E5D2NL4eMeRXswwRaRsQ44cNVJsjxx7YlBmczybbA22kUkP3X9p0qJfHdsmIE1qaJFUA0dutfNRYBX8dbE5xXXkgXvjbNHVJItDl1zNLI6k3OLSz1MTigZ4lOpRMOtoECoPrPSep55qO6ej7qe7J4rmw9P5i4rMXcpwvV0G6Rk2eBGhq1ylyYxPJbdpXGp9g90j4prPSv9Z0KJz8pmlpSchZFBSUlgfa7FO2BVosVbWPILWJVY8jqwWAKrEi3ewpJfwKrEkteBxRJYlWjxFpb8AlYllrwOLJbAqkSLt7DkF7AqseR1YLEE/wflDsBEl4rp9wAAAABJRU5ErkJggg==;" vertex="1" parent="1">
          <mxGeometry x="620" y="41.720000000000006" width="81" height="36.55" as="geometry" />
        </mxCell>
        <mxCell id="UFaXmECFwQH_9bim80W3-18" value="" style="shape=image;verticalLabelPosition=bottom;labelBackgroundColor=default;verticalAlign=top;aspect=fixed;imageAspect=0;image=data:image/png,iVBORw0KGgoAAAANSUhEUgAAAI8AAABeCAYAAAAaAUcZAAAEDmlDQ1BrQ0dDb2xvclNwYWNlR2VuZXJpY1JHQgAAOI2NVV1oHFUUPpu5syskzoPUpqaSDv41lLRsUtGE2uj+ZbNt3CyTbLRBkMns3Z1pJjPj/KRpKT4UQRDBqOCT4P9bwSchaqvtiy2itFCiBIMo+ND6R6HSFwnruTOzu5O4a73L3PnmnO9+595z7t4LkLgsW5beJQIsGq4t5dPis8fmxMQ6dMF90A190C0rjpUqlSYBG+PCv9rt7yDG3tf2t/f/Z+uuUEcBiN2F2Kw4yiLiZQD+FcWyXYAEQfvICddi+AnEO2ycIOISw7UAVxieD/Cyz5mRMohfRSwoqoz+xNuIB+cj9loEB3Pw2448NaitKSLLRck2q5pOI9O9g/t/tkXda8Tbg0+PszB9FN8DuPaXKnKW4YcQn1Xk3HSIry5ps8UQ/2W5aQnxIwBdu7yFcgrxPsRjVXu8HOh0qao30cArp9SZZxDfg3h1wTzKxu5E/LUxX5wKdX5SnAzmDx4A4OIqLbB69yMesE1pKojLjVdoNsfyiPi45hZmAn3uLWdpOtfQOaVmikEs7ovj8hFWpz7EV6mel0L9Xy23FMYlPYZenAx0yDB1/PX6dledmQjikjkXCxqMJS9WtfFCyH9XtSekEF+2dH+P4tzITduTygGfv58a5VCTH5PtXD7EFZiNyUDBhHnsFTBgE0SQIA9pfFtgo6cKGuhooeilaKH41eDs38Ip+f4At1Rq/sjr6NEwQqb/I/DQqsLvaFUjvAx+eWirddAJZnAj1DFJL0mSg/gcIpPkMBkhoyCSJ8lTZIxk0TpKDjXHliJzZPO50dR5ASNSnzeLvIvod0HG/mdkmOC0z8VKnzcQ2M/Yz2vKldduXjp9bleLu0ZWn7vWc+l0JGcaai10yNrUnXLP/8Jf59ewX+c3Wgz+B34Df+vbVrc16zTMVgp9um9bxEfzPU5kPqUtVWxhs6OiWTVW+gIfywB9uXi7CGcGW/zk98k/kmvJ95IfJn/j3uQ+4c5zn3Kfcd+AyF3gLnJfcl9xH3OfR2rUee80a+6vo7EK5mmXUdyfQlrYLTwoZIU9wsPCZEtP6BWGhAlhL3p2N6sTjRdduwbHsG9kq32sgBepc+xurLPW4T9URpYGJ3ym4+8zA05u44QjST8ZIoVtu3qE7fWmdn5LPdqvgcZz8Ww8BWJ8X3w0PhQ/wnCDGd+LvlHs8dRy6bLLDuKMaZ20tZrqisPJ5ONiCq8yKhYM5cCgKOu66Lsc0aYOtZdo5QCwezI4wm9J/v0X23mlZXOfBjj8Jzv3WrY5D+CsA9D7aMs2gGfjve8ArD6mePZSeCfEYt8CONWDw8FXTxrPqx/r9Vt4biXeANh8vV7/+/16ffMD1N8AuKD/A/8leAvFY9bLAAAAOGVYSWZNTQAqAAAACAABh2kABAAAAAEAAAAaAAAAAAACoAIABAAAAAEAAACPoAMABAAAAAEAAABeAAAAAJsB1KAAABb2SURBVHgB7V0JcBXXlb0S2pAQAiS0sArEKlYBYhGYAAa8sBgwDjgeO07MpJLMTDxOpcqOp6aSciozVbFniV0TJ04cbwHsYAxmM4tt9n1HSIBACIEkkBCLBEK7NOc83KJ///5Cv9XS/8J9q6Tu3/369Xu377vvvru9gK1ffFYvDjgYsICBQAvPOI84GFAYcIjHIQTLGHCIxzLqnAcd4nFowDIGHOKxjDrnQYd4HBqwjAGHeCyjznnQIR6HBixjwCEey6hzHnSIx6EByxhwiMcy6pwHHeJxaMAyBhzisYw650GHeBwasIwBh3gso8550K+Jp7a2Vm7eLJHa2jrnS/khBoL8sE1yu+yOvPmnDyTj9FlFOCEhwTJ10nhZvGCWtG8f5o9N/la2yTLxnM2+IMs/XSeFxcU6xAXIkEH98ZEfly6dO+muN/207M4deeudj2T/oWNSX3/XyRGX5PMNWxThPDn3EQkOstzspjfEYsmSW7fl3Y9WSHZOrksNsV2j5YVnFkqP7gkN1z9du0m27twrovPlDGoXJIuAv7SxoxrK+euJpa/Aj3rmXI4cy8iUmuoal75VVlbIxLEplokn43S2ZGXnNBCOVnldXZ1s+nqnfGfSWEmI7apd9rtjSekt2bXvoBterl2/IYeOZ7gQz/pNW+XatesufQgICJQvt+2RCakpEhAQ4HLP335Yknk4UDSuYOwQmYVuIBlvN/qbdRYDmbcwes3g9u0yqTUQq1m5tn/NKgZbt+eWiKelmsiRRpmGMo4ZcLoKCPTv0WjW7gf1ml8RD5E8uH+S9O7Z3Q3fJKxRKUMlqmNHt3vOBd9gwO+IJz4uRhbPnyXxcbES1K6dtMNfEDhO/6Q+Mv/xGdIhItw3mHLe6oYBSwKzWy02XxgxbLC88ZtX5DAEzMKia5LYq7sMS+4vEeEO4diM6mZV1+rEU1VdJbU17kq/gHYBEhYSqjpD5WBIcJCMHz2ioXNceHDFFRh4j1nWQcCurqrC9XsCZmBQoIQGhzQ8x5PC4mty5ux5COJl6npkZIQMHpAkXaO7uJS734+amhrJvnBJLuZdlorKSsUZu4FD9k/qLeHh7e/3uO332f+8giuSeylf9a0W+AkJDpauMV0kqU8viYrsYPs79RW2KvFQN7Rq/RapqKjUt0GdU1B+8cfPqfMNm3fIiczTLss2yjzTp6TJWBBUOxAQV2YHj6TLlm27pE6ngSbi5jw6TXp0i5eamlpZtnKdZJ7JkvyCQqnEe0lmYWGh0rNbgoxOGSaPTJvUpKkw52KerNv4tVIjFF+7KdXV1aodUVEdpU9iT5k/a6YM7Jeo2t/S/9j3w8cyZAdUAvn5V6QIK9TK8kqpq6/DFN9OIjt0UP0fNmQglKvjpHOnqBZpUqsRT8mtUvng49VyEkRhtsxPGTkUHQ+W8jvlkn4qSw4fTXfrcG9MX6NGDsFHCwGi6iUn95IcPHzcpRyntl4QuOOhC3r9rb8Ayen40FV4571ileAapdDHZF/IxbR4Vb731Bzp1Iggfh7v+d2bf5aiwqtSA66oh/KKCim6WiznMDBe+dcfS2iYK9fTl7XjvAz4WfbpWtm196BQp0RurAcwYrmDMmxTJjT0+w4ek5/96FkX/ZK+fHPO780BzanlPs9yGlqxepOcOnNWdZbEo//r0qWzvPrSTyQQ3IXfWH9Pf+6CKBTU39PO+TGvXr0mH32yWg4dPSFVwKaecLSmsnx5eYVs/monlHqH3T6CVo5T1auvvSEFmB6MhKOVYbuuYmr85Wuvqzq163Yfb0HP9c4Hn8iGzVvlBmx+LvgwvEz1D7g4nXVOXv7163IFxGQ3tDjxsIP7wR32HjiiWL2xA1FRUfKLf1miZBzjPSu/+T5OMYeOnzR9n7FOsvrlK9ZKweVC4y1MezXyi1/9To1kt5smF0iob/7pQ6nXyWAmxSxd4lT/6ZqNsnPPftj7XLnf/Sq8dfu2/Oq3/ytXwDnthBYnnoIrRbIWsgI1x0agkDnv8enSr28v4y3LvzniTpw8BVngcpPrIHIPHjvpVn7H3sOSiynLE4SEhEhcbKxEQ/CmSoGQl5fv9cf1VL/++iFMv5u+2qHkOP11nodjqqYqY2jyIOmJKTsQJg4jcBpb/tl6IWe2C1pU5uEI+WzdZrDObDXF6BtNwW5MynCZAluVcXWkL2flXBuZHTpEKKGYchBNGyczs+T6jRumVdLONH/WjIZ75GAbv9zucWqI7Rojj02fIkkQlivAcShfbNiyTU2TDZXYdEKXlBWrN5pywI4dI2UuBuBE2MIiOoRDhrsuq9Ztgqxz1KXtXImdyDgl6RlZWHQMt6VlLUo8W3cfkB17DriNRK6cevfqKU/Ne1SiIe+0BBCpS55dpATsUCxfK7E6OpFxWv4MmeHGjZturzRyxuyci0JjJjmZEYKgRnjppz9Qy31NdZAybJDEYKX37oefmD5jrMOb3zshHF/My3N7hNxu+pSJMvexaQ1qDgr+i5+crZbwF7GE18PNm6WyDyLEiKGDJDS0+YK9O3/Tv60Z53mYNt55b7lUVUL8N0AEtMTfXzxfenV3N0MYilr6SeLk0nnShNHSEdyHiOIxDaNz8MB+sFa7d5tEQoFUgz1YpXA1YwYL5jyqXE80wmGZ0NBQmT1zisR4qTsyq9947TNwEjOHuBD0ay7UEpp+THuuR0KcPJSW6qIT4z1y5LyCy6YihPasN0d3LHrztIeyRPp/v/0e9Dnu8yunq3n4sCOhRcY3bhGgzighvqtS4ulfwI89e+ZUyCfu3SbxFIPTaEBORF2OEUiYaXA5MQPWP3/2TFtdKbjsLiw0XykNGTRAOpv4TdGcQwIKC3N3nCsqKpY8k8WBWX/ud832aasKCF+/eZtcvFRg+u4Rw5JlIRy6WhI6QSnWCco7M0iIjfFoma+quruKobxDBaPZlNUhIkLah7p/FO1dyYP6YcQHYJS7T3daGW+OGWfOCXFqBsMGD1Buumb3+PZwDKI79KTTQSkWB0VXr0Meqlft1N3y+tR24qEvDv/4AcwgvH24Gzs1K9ecaxFh7T26q5Lr3I/hcVlMRaIZ0HAb1ogiMASjvh28AWtr3adrs/rud+00zCp684u+/B4IxSchqJtBWVmZ0CvTCLUYFFxd8vsEBt5dIRrLNPW37cTjiWi0Bh06ckzOZucqe5B2zfYjRj6nF6tQidVTNZBsBtHR0RIMAdwTBOCDcNqgzscOKL7GqdSci52BAtBbIDetrKqW2vpaAZl7+7hLeffJ3+W2/T/KMao/+vsq+yu2scZqCJa1ta7utVr1wVhpNUaY1JIHe3Bm0+rw5ngHWnC7QU3H5hODV69qdeJh67LOXZBDMOz5KwSBe2hKP2Mb78pB5pyAZXnfTlfZIBPhXmsTp2C20/s/fHYbvrzt05bWMR65JL4rPLpOAVyF0T6TPKCvT1wZ9G00Oyd3oSOaGVzHiqwaZgtPUIfpwJOA6+mZxq5TQPcEaePGSEcv3S5IaKNhhA6GEbq50KLEM6B/X3yEQMmAlVwPlIsYmkL70+QJqfpbfnHeHktc6lDMgPahChPdlVa2BtpgTcOtXWvOsUf3eAj4NBi7c7tpk9Nk9Ijk5lTfrGdtYF7m76fm+Cc/fFpmPzpVwqBAMwJ1QXsOHFXWYeM9X/+mLspTbBjbbeaPpLX5Qm6+x5WmVsab4/DkgRLoYerKhJeCJ6ioqlSemHuxIiuCxf9+CxlP9TR2vUU4D9n+956aK31794SfTKQMh0LwAIL49MDOpMNcwKUoY5T8DTgdkIio79EDuUo6bGSJJk76LPf5F1tM9UP6Orw579UjQbnflpSWuj22e/9hFUVrRug5F/KUWwoNohy8dHvp27sH7InDoKAdBC8Gc87q9pJGLtjOeSjnTBqf2kAQ9GJLhQHULEyY+qAdew5Jqc4s0EhbW/UWkdwxMtL0nX/7ZBX8dspd7lFQZnh0DtxU7QTKKCOHDzGtsrj4umSecuc+HJgXYNe6lF+gDMLUlmedzVaG3qVwP7mUd8W0Pm8v2k48UVGRMnH8mAbXTi5r6f2XjDBkM5vSYThsnYcR0t9gePIAoabaDOhE9u//8Xu4t2bDR6YYvkBFQi7w2zf+0CLTw/NPz5P24e5abZpP/rp0pWTCa4EKwUp4TFKDzMCBzzd8Cf/uapfm03zSPSEWbiQxLtet/rB92iILpfO6HmJgfxk3eiSoP0dpN/X36Ei+Em4bw+Fvqzc06sv44pyKvrGjhkvuxUsQgN2VImcREv2f//O2JMABvrqmWvkSsy8EDpJ6OJnZBZQfp0wcL5u/3uHSFnK73Et58vs/vi/JMPhyZUYPw/TMM6aeA/Q0GAcf8AibnPVdv7JdvTXUQ+4zPnWEbN21T07DVnNXV3KvUMapM3IQPsvsmD8BHem37zkoly+7s3n2oaSkVP3p2xyJqY5TdBF8o+2EeYhZY5TEKQP+OEVdhqGTf40Bp79UDIZUTMeNKTkbq8N4z/Zpy/gC7XcUkPr49ClKCNWuaUcmS/jw41Vuwql231fHSLhx/Bx+O56W7cZ2keO88OxTymPAeK+5v+Nio+XphXMkEYsQKx+fBunFC2bbqldrNeJhh9PGpSASNM4Uj/lwMGcWDH+Dgf36yMsvIirCg95Hay8J5wfPPInpZaxaZVr5wFpdZkdO6Vy2//OSZyWpb29T+dH0OS5g0sbKKy/+CHFq9jreWZq2aHLs0jlK6IpJfxM9xCHkhSPWDCgPUffzX//3rsvczbJUhJ3KOi8PT54g0ZCR6Kein97ol8u5v903lmDQIuLWI9U1ulhqwLZ1hy9LpIewZDptRXfuLOUGqzlHUeco8yC50SOGyC9//lNZtmKN5GN6YOAiY8WYdIFBdmzXgjmPyNSHxqsIEMaOEQ+aDMS2cekfi+t66NWjm5tCkTFp3RFTZgYkSAYY/ubVl2TNF19hpYrwG0yd1GjX1dGFhPJWgNKOk1syZHvWjCnyEJziKMPZDQFWt4mk/uM6hDM9gvgB6CVIX5rGRh4jOCtNtLTUCRHJXLrfgjKultj4Bkg00SBYBuxpwDpuwLWyCgKrBmxDJOppLFqSSjOjlpj2rG5YiTQGTNx0HM7153MuQfC/A9kmBPFQ3WTU8GQ1qrU+M0SHgiuNwBrQWT4WI1+/KLiD5X7xdVeXWBpWY7t2aZIehm1gcCR9p26W3FKhQaEwykZ36aSCCgb07WOqItHa1NyjZeJp7oud59s+BlpN5mn7qHJ6YMSAQzxGjDi/m4wBh3iajCqnoBEDDvEYMeL8bjIGHOJpMqqcgkYM2L/4N77B+e01BqqgcS9DInMaYGugvwlGNEZ4RHtlk/Lk4ej1S2x4wCEeG5BoRxUM9cnKviA79x6C5+VZpeu668BVrxSo9FfuGhOt7FOTJ6ZKPBS0ml7JjvdbqaPV9TzUGm9AAgHGTVOVnxAf66I4s9KJtvoMccGtEvbBUW4l0qdcRkYRvVbdU7/o3LXk+4tk5tRJnoq0yvVW5zz0OaERtAIsmUmVuB3ARKTKN3MWaxUM+PAlmbCQf7xqg6RDa32XyzStMdTqv/P+xzJuzMhGNelNq816qVYXmEPgtT8MeWQ4wvIRdP/+spVIk7YOqU9c1fTWu9R2nvzje8vk+IkMRTicgug2QTMGBxJz7jB/EW1UZvl2GFToa5y1OuehbWfh3JkqeoL7LjA34PrNXyOb1yUkQJghKbAT0Tj4bYDYmBgYWOuRHKozEpd3g+E0WiUnUPFYwAHzLiobIgbWeoQqcfsoPegTeeqvt9Z5qxMPO9avT29FKEuRN5AsmOnb6Ayfh8yeTA2y8IlHfcqOWwv5/7TkGURiVKnYd66mmOTKTAimoZWcetmKz12aFt6+9dP36hvgE+Khe8AjD0+SQnj2f7F5m3JLIHKYtWsNtkY6np4p//j8IhmKFCJmyNR3oC2fN3VbKS7PjbFgTDDVCf7ivoR2z//Dol/7ogHcV6pf30TlkkBHML3AeBM+Ktt37ZcCOJd3QKo0+twyucCDSkgYNyorR87FfOy/tV+5vtI9ha4VGry39FOXGLf+SX3lsRmTfYoTn3AeDSH0ufkhvO8IO5F+Tk9AdDrfho3M9h86ilVFCiIjh0DQRjIjRDQ8SETEvMqMXTuWfkq27d4vJZBryJnJbZIwvTNcm75BzPSuAfs/bfJ4n+PBp8RDZJAYXnhuoQrVuZvt0zUOnFrW7XCcP4pwkj6JvZAWrq9MRSRBVzhMtVXBmlM0U9gxwTbDZJhMnDFY2uAhThhPTsIhrFy72SVlC53thgzur+758p/PiYed7xTZUZ5bNE+5c65YjXSvIBg9ENmMmDx24qRKBL4NU1o3KBepJBsGv15Oa/7OjdgH6riYKHPTV7vUapOK0ttIwsR7GlAB+Mx3n1ChSLxGr8ptGDxaGfZz8sRxEoeVma/BL4iHSKBuY/6s6YoTfbB8pduyVEMU1fgMM7kCbSwF61CkeBuJ5f2cR6ZKn149lJuqvxASSaISMeMFl6/Kxi3bZS+mYAbnceMWs7iuMPTltX97SQYkJTZwnaV/X9Ow4QpxQLfXyRPG3NchX8NXSx79hnjYSSrJHsZcnhAfI3/920o5f/6Cx5T9HInUgdTUlMlupJrlH59PSuwtE+HwndSnpwoXZg7mCERbMjabCQM4EdhFXGwD/zjdMJtYGTgmDZq3SsvkPPRWu/cdAYfJUe1s7CNSxiFRvPyzJXB+j28omptXIEcwrWmERv9wbrTCHW38AVrdttXUTvMjvLfsMzl2MlPtJaGx7aY+z3IMl4lFFEN/rOri47oquYrRDiQmEhUjLKnFDQ2BgIrrwSA+RV26lzBlSj30LFUg1CpwvdsQcEux9VJ5RTkiRypUrh7m+GPI8TlMScVwrm9qSjkSMXfNSUsdJfPnzJA4GDs1YCaOt99fLjswRXOZzunscWRy5fbg+iAArbwvjn5LPEQGCebIiUz5cvseJTAzuYAVItIjlkI2Vf5U/0eCeCKonMOHYWYPEpaRKzGREzW5dJOowM7Nt0E4jAdngqoqxIJbbQ/bMQIJDL4D43Ba6kjVBn07GRXxh78sVXticM9V5n5mhnp/sgH61bSlRx7P+SG5ROcUdBJuCkzxz60IjAoz43ON/WaMFwVy/hm3pW7sObvuMTgwEbLZE0j5PwS7F3oSfGm2CEDuN3odLH5yjkwcNxrE7V+fy685j/6DcYRTJ0I54K13PoTQTPeFe8F++rL+eM6BwEDA72L/1DEpQ2B+iXTjcvp20yRBLsfcgfcrq3+uNc/bDPEYkZKN3Wje/WiFSs/CFVhzuJGxbrt+08BJKzn1Ms8tXqAyxxunRbve5Yt62izxaMgqxMZs6zCdZSHlyY0bJXIN9jEmTrAqi2j1Wj1yxUdiod2KW3zPmz0De2yYhw9bfYe/PNfmiUdDJIklC8nBubsf95AoLCpWKUm4VVJLEhJlGAqxJJTu3eLUCm4otL80pTAx5oMM/iWBNQPTnA4G9ktUf5zCuGlrLmK4SxDDzZj2i0ixdu58LvZduAZdjDWC0giFWyNRkcdNcLnc54otEUkLvm0utQ8M8ejpjlNHAoRT/hHoVEW9iUq9hmPVN3mUuQ8D1f/kTtwu4A50NwQmPaAVPxxJFZQ+CJb9uwpGePshyWUYlvodoLDjEr+t2tdUR5v574EkHiNOmHmCO8DwzwH7MPDt8Pe0D19OTToMOMSjQ4Zz6h0GHOLxDl9OaR0GHOLRIcM59Q4DDvF4hy+ntA4DDvHokOGceocBh3i8w5dTWocBh3h0yHBOvcOAQzze4csprcOAQzw6ZDin3mHAIR7v8OWU1mHAIR4dMpxT7zDw/1kVGg9S4RM4AAAAAElFTkSuQmCC;" vertex="1" parent="1">
          <mxGeometry x="594.56" y="244" width="91.28" height="60" as="geometry" />
        </mxCell>
        <mxCell id="UFaXmECFwQH_9bim80W3-20" value="" style="shape=image;verticalLabelPosition=bottom;labelBackgroundColor=default;verticalAlign=top;aspect=fixed;imageAspect=0;image=data:image/png,iVBORw0KGgoAAAANSUhEUgAAACMAAAAuCAYAAACiR6CHAAAEDmlDQ1BrQ0dDb2xvclNwYWNlR2VuZXJpY1JHQgAAOI2NVV1oHFUUPpu5syskzoPUpqaSDv41lLRsUtGE2uj+ZbNt3CyTbLRBkMns3Z1pJjPj/KRpKT4UQRDBqOCT4P9bwSchaqvtiy2itFCiBIMo+ND6R6HSFwnruTOzu5O4a73L3PnmnO9+595z7t4LkLgsW5beJQIsGq4t5dPis8fmxMQ6dMF90A190C0rjpUqlSYBG+PCv9rt7yDG3tf2t/f/Z+uuUEcBiN2F2Kw4yiLiZQD+FcWyXYAEQfvICddi+AnEO2ycIOISw7UAVxieD/Cyz5mRMohfRSwoqoz+xNuIB+cj9loEB3Pw2448NaitKSLLRck2q5pOI9O9g/t/tkXda8Tbg0+PszB9FN8DuPaXKnKW4YcQn1Xk3HSIry5ps8UQ/2W5aQnxIwBdu7yFcgrxPsRjVXu8HOh0qao30cArp9SZZxDfg3h1wTzKxu5E/LUxX5wKdX5SnAzmDx4A4OIqLbB69yMesE1pKojLjVdoNsfyiPi45hZmAn3uLWdpOtfQOaVmikEs7ovj8hFWpz7EV6mel0L9Xy23FMYlPYZenAx0yDB1/PX6dledmQjikjkXCxqMJS9WtfFCyH9XtSekEF+2dH+P4tzITduTygGfv58a5VCTH5PtXD7EFZiNyUDBhHnsFTBgE0SQIA9pfFtgo6cKGuhooeilaKH41eDs38Ip+f4At1Rq/sjr6NEwQqb/I/DQqsLvaFUjvAx+eWirddAJZnAj1DFJL0mSg/gcIpPkMBkhoyCSJ8lTZIxk0TpKDjXHliJzZPO50dR5ASNSnzeLvIvod0HG/mdkmOC0z8VKnzcQ2M/Yz2vKldduXjp9bleLu0ZWn7vWc+l0JGcaai10yNrUnXLP/8Jf59ewX+c3Wgz+B34Df+vbVrc16zTMVgp9um9bxEfzPU5kPqUtVWxhs6OiWTVW+gIfywB9uXi7CGcGW/zk98k/kmvJ95IfJn/j3uQ+4c5zn3Kfcd+AyF3gLnJfcl9xH3OfR2rUee80a+6vo7EK5mmXUdyfQlrYLTwoZIU9wsPCZEtP6BWGhAlhL3p2N6sTjRdduwbHsG9kq32sgBepc+xurLPW4T9URpYGJ3ym4+8zA05u44QjST8ZIoVtu3qE7fWmdn5LPdqvgcZz8Ww8BWJ8X3w0PhQ/wnCDGd+LvlHs8dRy6bLLDuKMaZ20tZrqisPJ5ONiCq8yKhYM5cCgKOu66Lsc0aYOtZdo5QCwezI4wm9J/v0X23mlZXOfBjj8Jzv3WrY5D+CsA9D7aMs2gGfjve8ArD6mePZSeCfEYt8CONWDw8FXTxrPqx/r9Vt4biXeANh8vV7/+/16ffMD1N8AuKD/A/8leAvFY9bLAAAAOGVYSWZNTQAqAAAACAABh2kABAAAAAEAAAAaAAAAAAACoAIABAAAAAEAAAAjoAMABAAAAAEAAAAuAAAAAGPkpSwAAAFbSURBVFgJ7Zg7DsIwDIZTxE24BBMTE7dgZWVFDLDCCidh69R7cBbARVUty86rTtvBWZo4sfP1t3Elqs9vuJmMxUw4WgyDkbJhypgykgKS3WpGUmYpbWB7fXeueWDLsPnlzfsH09Q8dUF4jL/VqwyA1LfeXXqj/oR/dl7590VlKIg/jM4uCzMFCLwOC4NTo/POcVFYmDjX/hTUAq0HztZ78DMVGD50utVgJM1MGUkZbweWnKid68ycjfrR9Whpgo9taIwCg7/6m4OMVBwGg6z3zm2PE8FQkN1JBoGdpAKmLR8XKb6YXgmKhEDARyVNGiAqMFogg2E0QQCm4v4SobUBB1NGbI3QmCo1g4PmgkAMVhkcHM+pYtDAfH0D+8bMs5UJNbCYy+mZLJghqaAAeJ0MUwqkhYJfU+x4XWNP5p1LKmAsaYl5cppKQHQxDaZTgj5NGapItzZlOiXo8wufmNoLu93J8gAAAABJRU5ErkJggg==;" vertex="1" parent="1">
          <mxGeometry x="583.55" y="392.89" width="35" height="46" as="geometry" />
        </mxCell>
        <mxCell id="UFaXmECFwQH_9bim80W3-21" value="" style="shape=image;verticalLabelPosition=bottom;labelBackgroundColor=default;verticalAlign=top;aspect=fixed;imageAspect=0;image=data:image/png,iVBORw0KGgoAAAANSUhEUgAAAGIAAABdCAYAAABeibN2AAAEDmlDQ1BrQ0dDb2xvclNwYWNlR2VuZXJpY1JHQgAAOI2NVV1oHFUUPpu5syskzoPUpqaSDv41lLRsUtGE2uj+ZbNt3CyTbLRBkMns3Z1pJjPj/KRpKT4UQRDBqOCT4P9bwSchaqvtiy2itFCiBIMo+ND6R6HSFwnruTOzu5O4a73L3PnmnO9+595z7t4LkLgsW5beJQIsGq4t5dPis8fmxMQ6dMF90A190C0rjpUqlSYBG+PCv9rt7yDG3tf2t/f/Z+uuUEcBiN2F2Kw4yiLiZQD+FcWyXYAEQfvICddi+AnEO2ycIOISw7UAVxieD/Cyz5mRMohfRSwoqoz+xNuIB+cj9loEB3Pw2448NaitKSLLRck2q5pOI9O9g/t/tkXda8Tbg0+PszB9FN8DuPaXKnKW4YcQn1Xk3HSIry5ps8UQ/2W5aQnxIwBdu7yFcgrxPsRjVXu8HOh0qao30cArp9SZZxDfg3h1wTzKxu5E/LUxX5wKdX5SnAzmDx4A4OIqLbB69yMesE1pKojLjVdoNsfyiPi45hZmAn3uLWdpOtfQOaVmikEs7ovj8hFWpz7EV6mel0L9Xy23FMYlPYZenAx0yDB1/PX6dledmQjikjkXCxqMJS9WtfFCyH9XtSekEF+2dH+P4tzITduTygGfv58a5VCTH5PtXD7EFZiNyUDBhHnsFTBgE0SQIA9pfFtgo6cKGuhooeilaKH41eDs38Ip+f4At1Rq/sjr6NEwQqb/I/DQqsLvaFUjvAx+eWirddAJZnAj1DFJL0mSg/gcIpPkMBkhoyCSJ8lTZIxk0TpKDjXHliJzZPO50dR5ASNSnzeLvIvod0HG/mdkmOC0z8VKnzcQ2M/Yz2vKldduXjp9bleLu0ZWn7vWc+l0JGcaai10yNrUnXLP/8Jf59ewX+c3Wgz+B34Df+vbVrc16zTMVgp9um9bxEfzPU5kPqUtVWxhs6OiWTVW+gIfywB9uXi7CGcGW/zk98k/kmvJ95IfJn/j3uQ+4c5zn3Kfcd+AyF3gLnJfcl9xH3OfR2rUee80a+6vo7EK5mmXUdyfQlrYLTwoZIU9wsPCZEtP6BWGhAlhL3p2N6sTjRdduwbHsG9kq32sgBepc+xurLPW4T9URpYGJ3ym4+8zA05u44QjST8ZIoVtu3qE7fWmdn5LPdqvgcZz8Ww8BWJ8X3w0PhQ/wnCDGd+LvlHs8dRy6bLLDuKMaZ20tZrqisPJ5ONiCq8yKhYM5cCgKOu66Lsc0aYOtZdo5QCwezI4wm9J/v0X23mlZXOfBjj8Jzv3WrY5D+CsA9D7aMs2gGfjve8ArD6mePZSeCfEYt8CONWDw8FXTxrPqx/r9Vt4biXeANh8vV7/+/16ffMD1N8AuKD/A/8leAvFY9bLAAAAOGVYSWZNTQAqAAAACAABh2kABAAAAAEAAAAaAAAAAAACoAIABAAAAAEAAABioAMABAAAAAEAAABdAAAAAAd2kYQAAAe1SURBVHgB7ZpNbJRFGMdn2e3XroWUWo1CG4wH+UgwPcgFg3qRhA8NJ+Vi0BgweDBGPXjRRA/GGGM8SJQYNV7UE4kCEWOMErlgDJGEogcDKX5jIbayC7R1nd9s5+3sy+7OUnZnx/g8Sfedd76eZ/7/eZ75eJtRSpX1n0iHEVjUYf2ifg4BISKSqSBECBGRIBCJGeIRQkQkCERihniEEBEJApGYIR4hRESCQCRmiEcIEZEgEIkZ4hFCRCQIRGKGeIQQEQkCkZghHiFERIJAJGaIRwgRkSAQiRniEUJEJAhEYoZ4hBARCQKRmCEeIUREgkAkZohHCBGRIBCJGeIRQkQkCERihniEEBEJApGYIR4hRESCQCRmiEf8X4joG7kjkqHOm9E1sHz+pU6qmTp1mi4ou60esfSRE2rg0aNqyfqdCzKuHY2waejJM2rw/qfrdo+91Llx+8d167S6oK1EtNrYVvTXVfqxFd20vI9cy3t0Ojz3zhqFi0+f/8nJ7Wzy9w/ui84mEGlIBCDmV29Sl88cM+j1rd2huvqH1fTUGTV15KUEYBt6/jqyVw2OblLlZZvVuf2Pm/RMfrkqjh00dVkvuodHzTv9ZgduN/1dHN+vaEs/Nm/m+zfVxLGDCWvYsnjDgyqX32D0Z34+UFVORds/9pbGv0naWvuwY/GKtQqb3Dr03b/+2WRsScNUosq+4mE1efjDBAOquuVpjFJdXfHakIhc/02qsPEtVZhrdvH0mMquWK2y+h1CmF0IdRBA7Fm326S7NFHl0VdUQdfPFTerCe0VENmrywsbTZXkp7Bqq+q781W1qHBdkpclb2KdARSgBneeNOXY0KvLlNqtluR3GQJtI0jGlr4Lf6vSy/0mG3KsfcWxYZVb+Zjqof2hXVf0/Y9u1+vYYPvluXTLG8Z26iA9ha2qf/BhhdcjrCfYbAWMGOulfXrszoSy5eln02vE2deGjVKeiAEqtSOCnAt6gChvFI5mT36ifnkuY/4AFrl84v0kzw4WYJH+bYcMCeffXmds4In0jmwxT/uDV9EWQu1uLT96lym+eHRPTZvwBOpjx2+aPOyirit4OaDaOtQzE0JPMvRQbkkAH/q49O0zpouuez9yu6qbbpoICyxPC54FyvY+eeRFM0N9MwC3tWIXz9nz39ksdfnseJLGG3r1gK0wcAuuzXOfEIpY28p61iKl4++ZZ/qne81DJmv2h9eTItcWMgm1Rv740gCPDd1DI5U8fkcq9jHBLE6ELQSSGYNPGoameo0r4M2DU69eK/IJj1bYClth0Oc+3W1fkyeAM3vxFtYESGTiuGtGUlknbDjMFetvKPB0xPSr+0bwPLyffgm5iDvBTMbcD2OwBLn5bnpBREz33WrWCbejdqVnpn41XTPwib2rEjX1BgYwS3RdQkVebwIQd7YnHcwlbIhhAa8nAEzMB3jIRVz9mewpk6duuLvyTP3aMaSyq16bDk3EQbNo6oOQDRXWqKoeW/zCgAGLmctOCyGP8FDP5UtfP2XqzS/SFfBMZuonM/Guycne9kQSdth0uMIODaEOgn50YwNSPPaVeYILOyfKWHsQbHdJM5k1fpr2iJ5tB9SQ0wGzoxkFTpMFJ0uf71Dd278wux93x4UNLNBpIc+S4MbtdD3eieXsfgCxdy70AZ4rrHlLl+2phCZ94nalpBdmvLBb24LOyl+lBl48tS+1RXQbO+mMTped96okjNu4zG6AGZm7frGZAW7MpV5+cEhNnj5eRU46P/2OsmbzmGX27EE7FtRaJFCG1Oq3Xj59u+cLQgnvxYmzVWsLUYGFuTx7iyIc4QlX4KB3aZT77DNGOj9NE8GWTKR9CDS9RrTPBOkZBBquEbho+nAjsLUHgYahqdUqiduIG1dbreNq+kuvO7QltrMbDLURsfY29AhbqVVPPIzrij59QnUvDVvV/9X0k74bcttmB/aYS0s3L0SaXVPQP32BVr75hXKZp56VQXXbsdbSqz8WGbs0SZ2wKSwJFgh98DGDhhAGrreGnRh8WYfLMrZgF2nsse/W1hDPoGuEHlCVEKMJVfakzgGISzvui9q5jpgzht7vd6183pzYOfRxpc+pmAMZZ6bQa0RHibCsAADXB5YQmw9AM/oDDAcn1peFgAPZXLpxG8tFYGbknuSiD+KnP3sg+V7A92wuNO13FmtHiGcURDBQADMn5xqEuEBw/QBYXMRxup35czIp5tTPqdaIvoDjqtreriaVdAICuI9yT+bo5x8GOuEN2BYNES5QXCXwJc1+bHHLriWNh/HNpFbY4wvc1V5LXIst6bZREmGNZJZy52M+zOgZng5dtl69J95jblfHx5LwU69up/OjJqIWOPZQaL/AuXX4uMNF3ULXE7ev0On/HBGhAQqlTy79QiHt0SNEeAAKVSxEhELao0eI8AAUqliICIW0R48Q4QEoVLEQEQppjx4hwgNQqGIhIhTSHj1ChAegUMVCRCikPXqECA9AoYqFiFBIe/QIER6AQhULEaGQ9ugRIjwAhSoWIkIh7dEjRHgAClUsRIRC2qNHiPAAFKpYiAiFtEePEOEBKFSxEBEKaY8eIcIDUKhiISIU0h49QoQHoFDFQkQopD16hAgPQKGKhYhQSHv0CBEegEIV/wsvjZtTynP4QAAAAABJRU5ErkJggg==;" vertex="1" parent="1">
          <mxGeometry x="531.6" y="244" width="62.96" height="59.74" as="geometry" />
        </mxCell>
        <mxCell id="UFaXmECFwQH_9bim80W3-22" value="" style="shape=image;verticalLabelPosition=bottom;labelBackgroundColor=default;verticalAlign=top;aspect=fixed;imageAspect=0;image=data:image/png,iVBORw0KGgoAAAANSUhEUgAAAGUAAABYCAYAAADsmDm8AAAEDmlDQ1BrQ0dDb2xvclNwYWNlR2VuZXJpY1JHQgAAOI2NVV1oHFUUPpu5syskzoPUpqaSDv41lLRsUtGE2uj+ZbNt3CyTbLRBkMns3Z1pJjPj/KRpKT4UQRDBqOCT4P9bwSchaqvtiy2itFCiBIMo+ND6R6HSFwnruTOzu5O4a73L3PnmnO9+595z7t4LkLgsW5beJQIsGq4t5dPis8fmxMQ6dMF90A190C0rjpUqlSYBG+PCv9rt7yDG3tf2t/f/Z+uuUEcBiN2F2Kw4yiLiZQD+FcWyXYAEQfvICddi+AnEO2ycIOISw7UAVxieD/Cyz5mRMohfRSwoqoz+xNuIB+cj9loEB3Pw2448NaitKSLLRck2q5pOI9O9g/t/tkXda8Tbg0+PszB9FN8DuPaXKnKW4YcQn1Xk3HSIry5ps8UQ/2W5aQnxIwBdu7yFcgrxPsRjVXu8HOh0qao30cArp9SZZxDfg3h1wTzKxu5E/LUxX5wKdX5SnAzmDx4A4OIqLbB69yMesE1pKojLjVdoNsfyiPi45hZmAn3uLWdpOtfQOaVmikEs7ovj8hFWpz7EV6mel0L9Xy23FMYlPYZenAx0yDB1/PX6dledmQjikjkXCxqMJS9WtfFCyH9XtSekEF+2dH+P4tzITduTygGfv58a5VCTH5PtXD7EFZiNyUDBhHnsFTBgE0SQIA9pfFtgo6cKGuhooeilaKH41eDs38Ip+f4At1Rq/sjr6NEwQqb/I/DQqsLvaFUjvAx+eWirddAJZnAj1DFJL0mSg/gcIpPkMBkhoyCSJ8lTZIxk0TpKDjXHliJzZPO50dR5ASNSnzeLvIvod0HG/mdkmOC0z8VKnzcQ2M/Yz2vKldduXjp9bleLu0ZWn7vWc+l0JGcaai10yNrUnXLP/8Jf59ewX+c3Wgz+B34Df+vbVrc16zTMVgp9um9bxEfzPU5kPqUtVWxhs6OiWTVW+gIfywB9uXi7CGcGW/zk98k/kmvJ95IfJn/j3uQ+4c5zn3Kfcd+AyF3gLnJfcl9xH3OfR2rUee80a+6vo7EK5mmXUdyfQlrYLTwoZIU9wsPCZEtP6BWGhAlhL3p2N6sTjRdduwbHsG9kq32sgBepc+xurLPW4T9URpYGJ3ym4+8zA05u44QjST8ZIoVtu3qE7fWmdn5LPdqvgcZz8Ww8BWJ8X3w0PhQ/wnCDGd+LvlHs8dRy6bLLDuKMaZ20tZrqisPJ5ONiCq8yKhYM5cCgKOu66Lsc0aYOtZdo5QCwezI4wm9J/v0X23mlZXOfBjj8Jzv3WrY5D+CsA9D7aMs2gGfjve8ArD6mePZSeCfEYt8CONWDw8FXTxrPqx/r9Vt4biXeANh8vV7/+/16ffMD1N8AuKD/A/8leAvFY9bLAAAAOGVYSWZNTQAqAAAACAABh2kABAAAAAEAAAAaAAAAAAACoAIABAAAAAEAAABloAMABAAAAAEAAABYAAAAAO8EYr8AAAeRSURBVHgB7VxbiFZVFF6jljOOl3+8NYzOWJkGNl3UEgzLorDmJYygehAsLMqHSCIiMGgqJKkIK6J8MDB8ybLbQ0P2kmVKU44YOpim4GjjpKmjg/qrk3a+Y/v86+xz3f8/7Xa4Fjizzz5rr7XO9+219mXAqm0Xai+QiFMIDHIqGgnGR0BIcXAiCClCioMIOBiSZIqQ4iACDoYkmSKkOIiAgyFJpggpDiLgYEiSKUKKgwg4GJJkipDiIAIOhiSZIqQ4iICDIUmmCCkOIuBgSJIpQoqDCDgYkmSKkOIgAg6GJJkipDiIgIMhSaYIKQ4i4GBIkilCioMIOBiSZIqQ4iACDoYkmSKkOIiAgyFJpjhIypBKY9q+qZrWvtJEnRuvCJmaNucPerltV6hPHvIhUBEpa14cT5+/eW2sp9nzD8f2S2c2AmWXr+8+GpFISG3hDM1deCLbu2jEIlBWppwqDqZPll8VMQgyRo0t0qz7emhY9V+R99KRD4GySPn5i2HU/duokIfbHtxHj7/7u0/Gee8N/pWdhiHLl95DWaR0ddaEkEKGKELwQsgIwWP8YEwKMuDIgeqQo0nNvbnLFcZDOHGqT+/3FRN+qDHcToKqcbeyjYF57asxefXTgspFChb1revrAjt7OgpBG43enmp6a1FTqI8/IIuOdlfRumUN1LG+nh5+YTe1PHGMlF3YO/5ntb8eFeqLdPcjB2nOQ30RQA7sHULfrh5N7V/W+/rwodawOxYe9d/xCTN1Vp/vh8cC8Lo9O4iFywNLu2nvTzX+d+rxYCeJjYu+TmbFM/Hqfu4id7sq63+cwEcsmX5DZA3J7cFTnP/Mr/TNB1fSyd6h/jA872ovRM423GbDNcdp+eYdARDYfnMbXBdttcngax363tu9JbABPXxPa8vUiG+cq/SzFvSVIJ7n1nWSAjpPPGryKRt5f2eSgtn89mM35bU3oHqKmE9fHZO4/c5yuOiN7UG2gJCit3NcPGVmMEGyxvP3ihhka9L5jOujzf3r75KeU0lJmlVJxsrtx8dOntFLR7qrI7MV7/jshw9kwIx5Pb47lEOVgXH+9ZuFtpV1tOrZ5jjVoI/Hs297IWQ/Kx6UPh5vXLYGjhIamaR87X2ELm3vN4YcI9CWJ/f7arvaR9D3ayeFhiAwpDJEB0SfSajTS26cHRrPHwByq3d9oxZUnJmW3z85QiYfs2LbZr/s5JlkKK0LXjoUDEc8S+fOCBETvPQaeeLRbfLxce3UhR4fjgUZgg/CM34DeD4bsDgrvcbrT0dIWbahwwcFdZgLyKot9PsLPu+Pm43q/dRZvbTRK6lc0Je2HqDcAGgs8Gl6iKdp2ulIPNhdJo0b01DMjAfrJ1GJaB57XDuVFD5AzUzeZ9IGmXxnhLEoO6brVd5azmPDbg2kgJw0KSceVAW9Mug+UAJNpFKsTXz9Z7rIatxmg5z/g+TOFHwMZnu5AvbHTCyGhqNcqAU79II96LMQNRwlI0v0BRd/XuAlF+NxNaTbR1+a6Pp540mzqb8zIkWtKbqRvM+o11xQLqbPO0a3ewfFOMEkiNtdPbWqK1jo48ahr21ln7epKN3P6WsC1q27Fh2KkBJ34FQ+EI9ONg7OfOOhdCv5PXhx6+WtJgbwfxu2fzmKunaU6uS4ppN054IjvplD+71T95oJIZP3Lj5AI+vOU2PzWfrh4wL1HS1d0/zolZSDe4iGjztDGLvlqxFUM7rf16/yrJw8fo52bh4b2DvcNdy3UVt3ivpODKKdm2po346hNMmzzWVC8zn67PVG3hVqP/raTprZcioSz9b14yPxnPFMj2/sJ8RDVWe9U39pw4JvwTepeNQ3TLk5O5tDAbGH1C0x0wuamC36iRgprP7KiNrdes8tgT4aakuKdp7DKErI0142QLDlfX72dZHS47/85wfKYNzJ/R3v6kcvNxjC9ePi5bbRHoh4dJtpz6hIxoKU5ZKnxit9lCrs2wFMkqBkgQwI7ptwvYFykyQog/hzAhd8GMpTnGAdU/dYzbcW/5V4NqweGec6V58RKcgSzD59wdQX8CzP2J7i7IIMixOAjAtMJbhvwj1YGpn6nxMwdpoHeByZuHzkouJBRsRNFsSzt+OyYAjiWbH1Fz+eOPtQxFmuXDEqX0mn7Q8PbwpmnmkgILrTK3lKCvX91OB9dNpsQRy9PRf3KNAf3XDByD98xtlHP0SPJ8t+pfFc9Fr6aUQKhuGKntdp0yuEkuvklgInDjg+Sumpvix9pZf2O4mwtDHq3UDFY/wd2MIqQboj9QdaEFSewLheHv08cVZih4/l7Tx+uY5xpmA2YF1J289zB9I2R6AsUjALKklz8zAvrRHGWaYGqN+XFlx2vlawtYOzkRchxQguO8pCih2cjbwIKUZw2VEWUuzgbORFSDGCy46ykGIHZyMvQooRXHaUhRQ7OBt5EVKM4LKjLKTYwdnIi5BiBJcdZSHFDs5GXoQUI7jsKAspdnA28iKkGMFlR1lIsYOzkRchxQguO8pCih2cjbwIKUZw2VEWUuzgbORFSDGCy46ykGIHZyMvQooRXHaUhRQ7OBt5EVKM4LKjLKTYwdnIy9/2v+F02HUPHAAAAABJRU5ErkJggg==;" vertex="1" parent="1">
          <mxGeometry x="460.9" y="244" width="68.87" height="60" as="geometry" />
        </mxCell>
        <mxCell id="UFaXmECFwQH_9bim80W3-23" value="" style="shape=image;verticalLabelPosition=bottom;labelBackgroundColor=default;verticalAlign=top;aspect=fixed;imageAspect=0;image=data:image/png,iVBORw0KGgoAAAANSUhEUgAAAF4AAABQCAYAAACQ2MIeAAAEDmlDQ1BrQ0dDb2xvclNwYWNlR2VuZXJpY1JHQgAAOI2NVV1oHFUUPpu5syskzoPUpqaSDv41lLRsUtGE2uj+ZbNt3CyTbLRBkMns3Z1pJjPj/KRpKT4UQRDBqOCT4P9bwSchaqvtiy2itFCiBIMo+ND6R6HSFwnruTOzu5O4a73L3PnmnO9+595z7t4LkLgsW5beJQIsGq4t5dPis8fmxMQ6dMF90A190C0rjpUqlSYBG+PCv9rt7yDG3tf2t/f/Z+uuUEcBiN2F2Kw4yiLiZQD+FcWyXYAEQfvICddi+AnEO2ycIOISw7UAVxieD/Cyz5mRMohfRSwoqoz+xNuIB+cj9loEB3Pw2448NaitKSLLRck2q5pOI9O9g/t/tkXda8Tbg0+PszB9FN8DuPaXKnKW4YcQn1Xk3HSIry5ps8UQ/2W5aQnxIwBdu7yFcgrxPsRjVXu8HOh0qao30cArp9SZZxDfg3h1wTzKxu5E/LUxX5wKdX5SnAzmDx4A4OIqLbB69yMesE1pKojLjVdoNsfyiPi45hZmAn3uLWdpOtfQOaVmikEs7ovj8hFWpz7EV6mel0L9Xy23FMYlPYZenAx0yDB1/PX6dledmQjikjkXCxqMJS9WtfFCyH9XtSekEF+2dH+P4tzITduTygGfv58a5VCTH5PtXD7EFZiNyUDBhHnsFTBgE0SQIA9pfFtgo6cKGuhooeilaKH41eDs38Ip+f4At1Rq/sjr6NEwQqb/I/DQqsLvaFUjvAx+eWirddAJZnAj1DFJL0mSg/gcIpPkMBkhoyCSJ8lTZIxk0TpKDjXHliJzZPO50dR5ASNSnzeLvIvod0HG/mdkmOC0z8VKnzcQ2M/Yz2vKldduXjp9bleLu0ZWn7vWc+l0JGcaai10yNrUnXLP/8Jf59ewX+c3Wgz+B34Df+vbVrc16zTMVgp9um9bxEfzPU5kPqUtVWxhs6OiWTVW+gIfywB9uXi7CGcGW/zk98k/kmvJ95IfJn/j3uQ+4c5zn3Kfcd+AyF3gLnJfcl9xH3OfR2rUee80a+6vo7EK5mmXUdyfQlrYLTwoZIU9wsPCZEtP6BWGhAlhL3p2N6sTjRdduwbHsG9kq32sgBepc+xurLPW4T9URpYGJ3ym4+8zA05u44QjST8ZIoVtu3qE7fWmdn5LPdqvgcZz8Ww8BWJ8X3w0PhQ/wnCDGd+LvlHs8dRy6bLLDuKMaZ20tZrqisPJ5ONiCq8yKhYM5cCgKOu66Lsc0aYOtZdo5QCwezI4wm9J/v0X23mlZXOfBjj8Jzv3WrY5D+CsA9D7aMs2gGfjve8ArD6mePZSeCfEYt8CONWDw8FXTxrPqx/r9Vt4biXeANh8vV7/+/16ffMD1N8AuKD/A/8leAvFY9bLAAAAOGVYSWZNTQAqAAAACAABh2kABAAAAAEAAAAaAAAAAAACoAIABAAAAAEAAABeoAMABAAAAAEAAABQAAAAAFMMluMAAAgvSURBVHgB7VtrbFRFFD4lIAVLW1IDNYUSAyyRKkRAeYlJiQiaQoJGaFR+8BBN+KEBjMEQE/FBiGwTf5AYIvDDmGAT1JSGh5JirPJQwPgojQuE0NIo1YZSkJfGdb7ZPXfn7uN2pXPvXOJM0r1zZ86dM/PNmXPOnJkWxEUimwJHoF/gHC1DiYAF3pAgWOAt8IYQMMTWSrwF3hAChthaibfAG0LAEFsr8RZ4QwgYYmsl3gJvCAFDbK3EW+ANIWCIrZV4C7whBAyxtRJvgTeEgCG2VuIt8IYQMMTWSrwF3hAChtj294vvX9evU2PXCdrddoj+uN5NdxWW0rjSSnr13kV+scyr3a4rl+irSy2SNjJkBFUVV+b1nW6iAr/u1Sw7vJkaW3Zn9Le1toHKikoyyoMq2NRaT9Fvtkh2SyY9S9FJK4Ni7eLji8R/2nHIBfqEUVNocP9B1H75VyruP9DVgWBfwnN3yxfgoV44rZm5yrh64b4QFaSyhnO+eDXQ6ZwixSM4G4JneCTeF+D7hnAucOIEwwijTZSLhjnnovWS+LhsO7/2mc+tP7WqGuj2WM95+unCSadHG45vox2xPfIdns326WsJdFy2a/p6WVd3toG+OH9U5vfOepsGFBbKPGi3nNxFP547Jt/xUzFsDNWOnStU2NPiLQVmS08brTu+lY6caXZo7ywqo/uHj6eNk1dm9WDwzfbT+6hJ8O7oPC2/Q/uvT15OCytmOO3ozmgFfnXzZvrzSperjxgMDwgg0HSSk8Pg1JU30M5T+x0afByb2klVhZW05sRW+vDER6728IL2ouKv81q345UAwOr6JRm06M+RK820vaTSoWUigJ2r/Rf2riN6fKNv4GsF/sWJtRIMVXqmjZ5FY8WgkYYNKuUxO0927eSkJEvL+5XIVcGgsAQ+UlIlfXCsIoCP+mVj5klJfunoe06bMOg1FdPke+zyebmXeHj4fU49Z9AGrx7YIqzW93/Y6QgPnAS/pF4r8Lw5WnCpzZHgpZEnkp3PrpcBeN2stRkD3NC0TeKD+gOz6xzff2HRDAkQJB6pseOIBP5M11mHnvuBgqrikRltS0LxU1M1X6o+fqcKIkyAlHZRqDoJDo2mTIDGFbo4pY+5/9WjZmQAA7XB6gn62b3histVxd/zs3TwUJmFasEmKWWAVZ7uyR86sJg/Tz7jhN0sp6t/X+Os9qdWidfVO6gHTth0Qdezmvqlu821OWOVAmPIkgr1BZWBSV1TtUgxquokMAf12Vu9Stu3fCiBV4ckdXlSrajlrKISsZa4WDXCagtjyAYeko+QBf5gZ3Y8+EraylFbCz4feuChh1klXLzRI/MwlDC0ZUWsKiCpCfAX1u4ShvmwdFfZc8JzsVAbB+ZEPRFO+PCeJNoqQwm8qmcx0tyBLFVns5pIToDwwVsmt1HNnpell4J9ADZgXknuHW56UeirC9C45t/pyB3DiN3Lg+cOeQDGYKttoyxRDjX0ZGSeU/nbP97AO4QBZEIp8ZA8AAY/Hbp6SuNSwh6BDSmM79cXfiaoHuyEkRYcXE8zyydId5BXDOg+ie1zYMSEhiWFEniAE530PJ0S+wHoZ4APTyVKiTg6gydXhbCpSKBjnZ4ocf9iU8VhCHeNmTdfgMdOtV3EO5BY+tThYZOCHSMSTqWypwJqqH6LNpXXZ4QUQM87Tv4WwKaHHpguFXcRfrrCm11UbgNP7Jq5bxPLxqlVWvO+nUC5ewkjmE0fu6m83xBx7JEkCW8mV3spOhy6JKScjTC+0dEX757mUxsQ8Pl0xU+acICtjjCUXo3aQT35XKtDT+u30sr/BPhbgcbfb3wxrv522a/WcQJ1g2I3O0mNFcE5QISz7zbK3W+twCOqaOqeintY+b/x/Z/0Uy61BXg53z62Ras7qg14gI7teWZEUB1CuPIIITzatFqGoLEn4N0yeom9AycE6rAScCqmK2n1anA+ytFBBLfcIVldXdbVTkq1oEXsagcU4s5PwhBjUpZ+966zKdN9EUsr8BgAJP+5L99wDjIwAfMrcdiBLWbYvAvVvyd5y0BKdvJaH986w0o4K6KeOvuv3auBjsdRHa7HISEejgOKBxpWyJOh3iKE8qPAfhKCAGHBYUvks2fkgTlWLhIOXZBGl90jfvUKjXaJlz1N/qiqRy3Hlb45I6bSipFzkzF1vYNSeWXPx8XKbJfntelhBhyaNFS/KT4rEMKyXK5cP27D+Qo8Bg0Jfyf2sYwSqgaLAYHHMFtMgvtwQ/dEJICGm4ibA9//3uqoQu4H1Il66I5VgOsiKD9Ws0P76ZXvwPPAMJD0y0Zcpz4xESOH3C2vhPCVDPdpk0qdmYckA2Bc1cC9G0Q4ccEq26TjawCLEPRrkcUucPlOjx/SDr6BAQ9mSJiAaEu968A6UdP7L0DixLcKuq9e5KKc4DoESiYX4CCBb//Q56uoTNwDOjBnsyjRvQINAM9jhwr6oH1/1lAu0+h+AmwYylXjn/L0siAcuCClXiXU3ZfAJT7bADBQXExKN3TZaP9rGYOdMub4pwivaCW7mOCkX9K5/6EAXr18xFt4HO1BP+NeDdRJLh3NA2E1BBUEY41DDhwV+hFnYZ59eYYE+PyGAPWUfmCNEyPvg5H82g6a6rYCPgWOqg641D+1wBx0PrUFyXR2qve2GGQvXd17KyYptIcMgh0MT0CwXHVwu82B1wGBmTYs8GZwJwu8Bd4QAobYWom3wBtCwBBbK/EWeEMIGGJrJd4CbwgBQ2ytxFvgDSFgiK2VeAu8IQQMsbUSb4E3hIAhtlbiDQH/L9ybPT0XKlXSAAAAAElFTkSuQmCC;" vertex="1" parent="1">
          <mxGeometry x="472.57" y="303.74" width="70.8" height="60.26" as="geometry" />
        </mxCell>
        <mxCell id="UFaXmECFwQH_9bim80W3-24" value="" style="shape=image;verticalLabelPosition=bottom;labelBackgroundColor=default;verticalAlign=top;aspect=fixed;imageAspect=0;image=data:image/png,iVBORw0KGgoAAAANSUhEUgAAAGMAAABECAYAAACVkosbAAAEDmlDQ1BrQ0dDb2xvclNwYWNlR2VuZXJpY1JHQgAAOI2NVV1oHFUUPpu5syskzoPUpqaSDv41lLRsUtGE2uj+ZbNt3CyTbLRBkMns3Z1pJjPj/KRpKT4UQRDBqOCT4P9bwSchaqvtiy2itFCiBIMo+ND6R6HSFwnruTOzu5O4a73L3PnmnO9+595z7t4LkLgsW5beJQIsGq4t5dPis8fmxMQ6dMF90A190C0rjpUqlSYBG+PCv9rt7yDG3tf2t/f/Z+uuUEcBiN2F2Kw4yiLiZQD+FcWyXYAEQfvICddi+AnEO2ycIOISw7UAVxieD/Cyz5mRMohfRSwoqoz+xNuIB+cj9loEB3Pw2448NaitKSLLRck2q5pOI9O9g/t/tkXda8Tbg0+PszB9FN8DuPaXKnKW4YcQn1Xk3HSIry5ps8UQ/2W5aQnxIwBdu7yFcgrxPsRjVXu8HOh0qao30cArp9SZZxDfg3h1wTzKxu5E/LUxX5wKdX5SnAzmDx4A4OIqLbB69yMesE1pKojLjVdoNsfyiPi45hZmAn3uLWdpOtfQOaVmikEs7ovj8hFWpz7EV6mel0L9Xy23FMYlPYZenAx0yDB1/PX6dledmQjikjkXCxqMJS9WtfFCyH9XtSekEF+2dH+P4tzITduTygGfv58a5VCTH5PtXD7EFZiNyUDBhHnsFTBgE0SQIA9pfFtgo6cKGuhooeilaKH41eDs38Ip+f4At1Rq/sjr6NEwQqb/I/DQqsLvaFUjvAx+eWirddAJZnAj1DFJL0mSg/gcIpPkMBkhoyCSJ8lTZIxk0TpKDjXHliJzZPO50dR5ASNSnzeLvIvod0HG/mdkmOC0z8VKnzcQ2M/Yz2vKldduXjp9bleLu0ZWn7vWc+l0JGcaai10yNrUnXLP/8Jf59ewX+c3Wgz+B34Df+vbVrc16zTMVgp9um9bxEfzPU5kPqUtVWxhs6OiWTVW+gIfywB9uXi7CGcGW/zk98k/kmvJ95IfJn/j3uQ+4c5zn3Kfcd+AyF3gLnJfcl9xH3OfR2rUee80a+6vo7EK5mmXUdyfQlrYLTwoZIU9wsPCZEtP6BWGhAlhL3p2N6sTjRdduwbHsG9kq32sgBepc+xurLPW4T9URpYGJ3ym4+8zA05u44QjST8ZIoVtu3qE7fWmdn5LPdqvgcZz8Ww8BWJ8X3w0PhQ/wnCDGd+LvlHs8dRy6bLLDuKMaZ20tZrqisPJ5ONiCq8yKhYM5cCgKOu66Lsc0aYOtZdo5QCwezI4wm9J/v0X23mlZXOfBjj8Jzv3WrY5D+CsA9D7aMs2gGfjve8ArD6mePZSeCfEYt8CONWDw8FXTxrPqx/r9Vt4biXeANh8vV7/+/16ffMD1N8AuKD/A/8leAvFY9bLAAAAOGVYSWZNTQAqAAAACAABh2kABAAAAAEAAAAaAAAAAAACoAIABAAAAAEAAABjoAMABAAAAAEAAABEAAAAAO0grzQAAAi0SURBVHgB7Vt7iBVVGP9m7sNN03RBfPXSNR+QmaBSRuTaQxOh2DazVghSkAS1wihD8w8FC0VRoTBM6GGabdLTVihdkbYwS7eINNsswhfS+pbde/fO9H3f3HPv3NmZe3fnnrk7m+fA3Tlz5jy++X5zvtf5VmsZf50JqoSCA3ooqFBEMAcUGCH6EBQYCowQcSBEpKidocAIEQdCRIraGQqMEHEgRKSonaHACBEHQkSK2hkKjBBxIESkqJ2hwAgRB0JEitoZCowQcSBEpKidESIwotJo6VUG0dnzQK+cmZnSOPYTpDYsA/Ps+UybqnhzQA4YCER8fS1oY6ekV7JOciMVd0Lq4DcAn34C+l0TIfrcOoCTTZBctVAB5IKJFDC0B6ZlgEjVvQ3Gl+8BXLkE0Ks3QNPvvGx07qugVYwDQIBg304GyIWewJu0/n3BvNqC9OEvZEUKGJHx9/NrJVtawPQQS8axwxAZW8n9tDMnoSuyILRHHoX40g/AbDoEiVn3hAwKAClg6L1u4BeLXW2GVvrqXErb60vB2PcZwOkTYPx1wqVH8E2RgbcEv0gRK0gBo6PrG98f6GjXYPr17R/MvJJmLQ4MVNxaz7IcUvQxd1j6It1q/PIb10hWaxUj+Jlo4wc4hz5sKFcz7dSG85gDBoPW+EPOTqJ5YNJkINFIO9K4coGNBPPrOm89kKZTH3CzRUu/AWxQ8A39Qf1Ga3vSmOmYrehjRrNONFEnyrIWNb9JbER4fBeJGy1LYbuaCcnHRzAzo/MWQWTuKuyRbaPuZGXFNtZze2L6EGZ0fP4agPLB9BhStWuBRBwVkvna4i0QK6MPwK51kIbmk5Bc/hQ4dx8xLbblRx6f/UNjbXTj2Napw8FOY2JlDZhoBbqV7Jwm5OvnNjZfW1E7w2zcy3NrN43KMM9s3JOznnH235x77xsNYks2gHZvNXZBZiGDuJw/yxc7o8z9tZBEi4wNAdw9sSdftCy11XWgVQ1r96UKmtpGTmIgky2tED3aYM2Pf41Tx7me2vkORKoW8LvE7quChBcY02syY6GhPlsvsuYbDNqaibkzePn42nctJiIDE4uQmT7NxrYJM0DfvASM3bVgB5F2oTF7OURwtdTmV6Bt03pel75vKsmGeoi/fxBiuJtSVU9nntMzEj8ZOrd/i6b1OIieyLZRH1HonVIHvoLItDn4Po+h2HL3hyJTZvGQVN2WdsCLufxcSxcOKag8TTDXPMOMZGuLAE3/IshgFk0INn29zsJM3LOdm+0RAGe/jtwbO97IdkPd5CysK1iEmpY/5exQxH3pwEiLGz+06hMe5GHmP0e8v8T0/Boq52IK7STyQ0inkPhzFn3mfG4ymw6300/Ovp299y2mOrtQMf1ZJ+EEJPNJJLqWwRWuzX4ak9tWs3OoYbRAv3VI1ppDqywy8WGcEo0Q7CO7dAswxEvHynpAEvWKZ8EIQPTXrGL27FfgAZnJycUtLBr1qdVgpHUUhX3YyiPjoqG+wCydf1w6MArqjMLEm/s/BhODjPlKwiMCkG9Mu2eoq/QvUHdUvwCsg9JgkIVFJYX6SZZvYV+7W+gMU3ztKIqICeJn2Oqiza8lZ2cK1Y1dW7lJiCp2CNHCIhHFYR1+KvdP6cAogm7jqOW0tQ0ZzTJcTGVz20STtCsrcvaZNNCfeJadUVLqQShuQXT3AAP9DooIk3kbfW1HDiDiRfiKChbo51Uun+Mn9LXTl16oJD/fzF3Ir7Asq2AUt6CjW+gM8js09EFg6Vb2tGOb9rHcBjRnU6f/Bo7G3jicLZ3Uzo05Tp94UboSc+N8AKaxk0gOHkecUfy5hdQ5HDIflTX6FRr5FgEpbkGjRDCEPyymdlzZD/Dq49WenYMYk4AaKzZVPggiqFypkFduFfxqMcxhIjiepaEeKJRC3jXQHNMQYCw0zquQso5UP8+Pg1LcYm3fgUIxAV3JFofefQAuXcza5PYOWGcFOHAQt5I8thf2arHB+PN44VAKiiGK6Opj7wYQFhoCbTR+h6GPnwuPx3V4PTyF5KgwHnTlHUfriahyR+izv1gn61LA6OSaqrsHB7qFAveg/X/XLFFndG/esBjFwy8SXaJQiD6vCBMdJV0DAYN1CBLYVWfdneENpxBh5oo463CO5eSFOZhw4fNYwDlfvvtAwKAFhflpfPhmaEGhk8MohjjocEnH7JVUOvILaTOZTFpyNEtVAlPgtDvIQSMHK1W7DsIMihuzuyKtJzAFTiIqgdubTsPITo99dIzD3yQW8nrJbpwpQRuZu9GXVlpmr309zIAsVQlMTPELoJxtW7aAszcoyYDOt2N0xk0nduhMUTDO6XOU6sVpHQJAn/RQ+twbfaDmU5kgoJWYh44kZT+WqAQmppz0k7USWbgi7fXaQnwCGExwk5n24lyf720Oo0g8sPrhkS+e3LW9PDOj33rs/oMftVbdXhLlTYuVDAzrpa2vMbpoNebmVtLyojlz5SNPFA0UqSWvmjMQKcOkk9aM3VSNjBoP+m0YHGy3pgUCndrZ03Ks9KG9OckPGQIDrJQcDPEuLCLwPNmYXGMlG4gHfBWxKgEW3qMIMc+dAaDI68VmTl6DyxcArrdSS0XAj87Akz3LXea0L4AgYJoRBQ7dkt+iKzaCPmhoUZku9tU6Wu8yMASBZHXReYE+rpItL7fdIvoWd7UAZV2FItGZ7JaZG0VZfMVbXfJvC10ORoYJWBEKlbJBLCesR/qx2CH23vnqYmfhuRxlcRzay4q5lN50Puq8noUKjBwi09FSc9hIYJlPebJ9ylEs9WNHjJITqFD4m7LfSYTRf0qR6EodOcjZhmFnfs774k14wXBSeg3cB+b0XQO8k/6KCgzpLPU/oQLDP++kj1RgSGep/wkVGP55J32kAkM6S/1PqMDwzzvpIxUY0lnqf0IFhn/eSR+pwJDOUv8TKjD88076SAWGdJb6n1CB4Z930kcqMKSz1P+E/wF9qU/s6dfjjQAAAABJRU5ErkJggg==;" vertex="1" parent="1">
          <mxGeometry x="373.55" y="244" width="87.35" height="60" as="geometry" />
        </mxCell>
        <mxCell id="UFaXmECFwQH_9bim80W3-26" value="" style="shape=image;verticalLabelPosition=bottom;labelBackgroundColor=default;verticalAlign=top;aspect=fixed;imageAspect=0;image=data:image/png,iVBORw0KGgoAAAANSUhEUgAAAGAAAABGCAYAAAAzbZETAAAEDmlDQ1BrQ0dDb2xvclNwYWNlR2VuZXJpY1JHQgAAOI2NVV1oHFUUPpu5syskzoPUpqaSDv41lLRsUtGE2uj+ZbNt3CyTbLRBkMns3Z1pJjPj/KRpKT4UQRDBqOCT4P9bwSchaqvtiy2itFCiBIMo+ND6R6HSFwnruTOzu5O4a73L3PnmnO9+595z7t4LkLgsW5beJQIsGq4t5dPis8fmxMQ6dMF90A190C0rjpUqlSYBG+PCv9rt7yDG3tf2t/f/Z+uuUEcBiN2F2Kw4yiLiZQD+FcWyXYAEQfvICddi+AnEO2ycIOISw7UAVxieD/Cyz5mRMohfRSwoqoz+xNuIB+cj9loEB3Pw2448NaitKSLLRck2q5pOI9O9g/t/tkXda8Tbg0+PszB9FN8DuPaXKnKW4YcQn1Xk3HSIry5ps8UQ/2W5aQnxIwBdu7yFcgrxPsRjVXu8HOh0qao30cArp9SZZxDfg3h1wTzKxu5E/LUxX5wKdX5SnAzmDx4A4OIqLbB69yMesE1pKojLjVdoNsfyiPi45hZmAn3uLWdpOtfQOaVmikEs7ovj8hFWpz7EV6mel0L9Xy23FMYlPYZenAx0yDB1/PX6dledmQjikjkXCxqMJS9WtfFCyH9XtSekEF+2dH+P4tzITduTygGfv58a5VCTH5PtXD7EFZiNyUDBhHnsFTBgE0SQIA9pfFtgo6cKGuhooeilaKH41eDs38Ip+f4At1Rq/sjr6NEwQqb/I/DQqsLvaFUjvAx+eWirddAJZnAj1DFJL0mSg/gcIpPkMBkhoyCSJ8lTZIxk0TpKDjXHliJzZPO50dR5ASNSnzeLvIvod0HG/mdkmOC0z8VKnzcQ2M/Yz2vKldduXjp9bleLu0ZWn7vWc+l0JGcaai10yNrUnXLP/8Jf59ewX+c3Wgz+B34Df+vbVrc16zTMVgp9um9bxEfzPU5kPqUtVWxhs6OiWTVW+gIfywB9uXi7CGcGW/zk98k/kmvJ95IfJn/j3uQ+4c5zn3Kfcd+AyF3gLnJfcl9xH3OfR2rUee80a+6vo7EK5mmXUdyfQlrYLTwoZIU9wsPCZEtP6BWGhAlhL3p2N6sTjRdduwbHsG9kq32sgBepc+xurLPW4T9URpYGJ3ym4+8zA05u44QjST8ZIoVtu3qE7fWmdn5LPdqvgcZz8Ww8BWJ8X3w0PhQ/wnCDGd+LvlHs8dRy6bLLDuKMaZ20tZrqisPJ5ONiCq8yKhYM5cCgKOu66Lsc0aYOtZdo5QCwezI4wm9J/v0X23mlZXOfBjj8Jzv3WrY5D+CsA9D7aMs2gGfjve8ArD6mePZSeCfEYt8CONWDw8FXTxrPqx/r9Vt4biXeANh8vV7/+/16ffMD1N8AuKD/A/8leAvFY9bLAAAAOGVYSWZNTQAqAAAACAABh2kABAAAAAEAAAAaAAAAAAACoAIABAAAAAEAAABgoAMABAAAAAEAAABGAAAAAMR6p9AAAAgMSURBVHgB7VtdqFVFFF77nHO91xQrktC0NPAlKW4Q0g8IgQhCGIERSFIhBT2UBSVKVg9qYdiDaQ8FIhWJEAiRL5YYklCJBUmiLz6UWVfiRila9/zu1rfOXvvO3vfsu8/PnrMPOgP3zN4za9asWd+sNWtm9vXmfe375FJuGijk1rPrWDTgAMh5IjgAHAA5ayDn7p0FOABy1kDO3TsLcADkrIGcu3cW4ADIWQM5d+8swAGQswZy7t5ZgAMgZw3k3L2zAAdAzhrIuXtnATkDUMq5f+m+duwz8k+dlOfi2g1UuPX2QRCrLzIMBAD01x80cvqIDLgy9ijRdQSAc0F9mefJnTgAknXTlxoHQF/UnNyJAyBZN32psbIIh1HN+TORQdRuWEhDK1ZQ6eEnIuXtvPhXL1P98D7yv20u1mGbO5ZS4bH1VFx0lxQ1/vyNGscPyrO35D4qji4PSfWhfuo4+ed+lNfiqvXkzZojzzbk1j6T8swBqL63MYxopnR6+Xei/SeozFFPac3LU6qTCuq/nqXG7ldpBO3j6TSXcQRVeWGPKNubdaOABNqJOUfI27Q4EtYCoBnvvyhcJuYsIC+QI01u/9Pvqcyh8tBLO+MS9PSeOQCQRgb20EqiW24j7+b5IiBm3PDhj8jnD/GQV5eviSgmaRQyowPlC9/VT5N35z1Nnj98Kbzw0vhkBxW2jspsLjy1mYiVPHzpApUP7KaCobQ6vw8xPXgVNrwrfPDjLVxAE+cZkBZyw+oAKELlCltPK6sKGXX4kDkAiTOEXUGFXYLOvsaZ79oCAArTmV/c9EG0DbudMg8YgIKmcu6UKAcKmrh7pShs+OevqHJsmbg9uBjdb3gMpLot6EwsspVVMq8aTyTa/7ao1v97TPKsfvq7CN80tzkIfI7Kbigtwe9TsI5AoS13yFBOi1R69o2mJXoeDbPy4PeRI4FXJ+uQWpw0bkNuoWvzp78ABEJ5rJR2UmOczT7w+3AR8QT3VD16NCz25i+efOaFVVxRUKKWB9cDcDpJ3szZnZB3RJu5C0Lvsmh+vk9mLxSIQSMCKs1tRhttS/jPeEgKNzPBvlj51MYv0+yLJ8Sfg6i86hkqxY4w4IpQjraaAIpGPVqm+XRyY92wkTIHoHZwV2TAKjSURRf1rb3c9LcAUawBFmHwQTn8eaJLSXBRcQmylDvOe7r3TAEQP8uzDZHO1fkP0IzH11FhySihk+rVS4SFV/3wdEJpnUZQeIeSa8tWEdwSBZYBlzMUm/XaFjlmtH/oY7NIgoDqW4ci6wno1EoAKKykF7kjHaa8ZAqAbm7g46F8M1yD2fv/XUkRJ1pt+nQs2uBRxKZpUZSu1RsW8MreXTQ7cIEAUMFHZGWGpj6Hs5qg/LjcWmcjt7YIR5TXpeSIejAjkRCLS1TUJi/smsXtMb26KEQ/SAhFEZJq8i+wVWkKIjV9tZ1bA0CPA3QAMHPMyLRk+n3QysaIc1nMd2wkRD7xhDK4P00Rl2KEnBqagg7WoLzMCMu0BtCBV3nPdjxaSV6W/yMGYWdsXxsKemXe/c3Ih2N5DSe1UqKWYOMD5SFMxNqhqbJuiyysmPUTrHidzagXq+AzIERCpX8vNMFhRWMTKGC883yzjK2ntPVAJOoxZYR8M7d9KG2GtqzWrikuN/pT+U25wwY9PGRqAdhZlp98LRQHSoO5y+xlBVVePxC6lJCIHzRcxNqhf1oPvz+yeadsnrQM/MBX+CMq4uSNLpMcC70qC64nHnKKjByaIqE9XBFcHc6S1N2ZcgMMHFlonTTM8CdTC1C5MGsbfCwAd4JIBuuB7mJR53NEhEOzuHIwe7FQY+Oj9MoTudSP/SJ8ZScdnDW14g/6VjxQjhS6H0OOCH+mwQ5Yjyumk1sYdvljBYAuZbkum2Xqgq5LDfY46Ez3AT3KMjDN1RVCoMJc3mlj72EpWQEA/hLJpuBZ6gMKR9hc/emsLMzFGHMswPENWoyk61crLgjHBbU31xLOVxSMriW03BBhaZ3DVhxFIPqBsuMRD6Iq3eVnLY4VC0Dk4OvWnweG2Nm8e816EL3wk4iLw8xa4GqGAmZ1znV/0gv/tLZWoyCYNmaXxuVyqWJcoKcJl0c9LMIMg4vP3Sti6J1z1jJZBQDCwgXV9m4LrwJRBiCwcSry6eYgrBOQsX7ysFzuwA3pDtncNdd2fWNFVusAQOFI8skHHw2rNeDYAbteBaOw9MFpN05NLtn9ysLLu2Z8FKz3xOAuCy67JLhRvSNQQLLrfZJT3wBAlzLT+JRSz94nxWg+YfA4fMP3PObuNk7XzbuElmO8i+avM/Qrhzif+FpVfeURmTC23A/67ysAOmCYdoOvLM2Zp3V6ICfWwYDoFaScWAZHD0LLx8bmXW1418CXNXKiyvcHcswcXOrHLU/7Qw4rjH8WD8BwQIe6xC89TCZdPucCgMoKIHD8mzQjQaeAaBsAk5RM2uno0F5CTT5RjSteeUsIzXcQUz6FUYKM8lwB0DHEF0Ett5HDn+PzyLQAAAAU2vx4rBc5BwIAcwAAAyepjWNfhF9VmPWdPpvrinnV2CkfW/QDB0B8oAqI+nXUR64QjQbhzVawVuBifRDCXEPEKY8DD8AUia+xAitnQdeYjqwOxwFgVb3pzB0A6TqySuEAsKredOYOgHQdWaVwAFhVbzpzB0C6jqxSOACsqjeduQMgXUdWKRwAVtWbztwBkK4jqxQOAKvqTWfuAEjXkVUKB4BV9aYzdwCk68gqxf8/PoagtZo6sgAAAABJRU5ErkJggg==;" vertex="1" parent="1">
          <mxGeometry x="543.37" y="303.74" width="82.65" height="60.26" as="geometry" />
        </mxCell>
        <mxCell id="UFaXmECFwQH_9bim80W3-27" value="" style="shape=image;verticalLabelPosition=bottom;labelBackgroundColor=default;verticalAlign=top;aspect=fixed;imageAspect=0;image=data:image/png,iVBORw0KGgoAAAANSUhEUgAAAToAAAA5CAYAAACmoedGAAAEDmlDQ1BrQ0dDb2xvclNwYWNlR2VuZXJpY1JHQgAAOI2NVV1oHFUUPpu5syskzoPUpqaSDv41lLRsUtGE2uj+ZbNt3CyTbLRBkMns3Z1pJjPj/KRpKT4UQRDBqOCT4P9bwSchaqvtiy2itFCiBIMo+ND6R6HSFwnruTOzu5O4a73L3PnmnO9+595z7t4LkLgsW5beJQIsGq4t5dPis8fmxMQ6dMF90A190C0rjpUqlSYBG+PCv9rt7yDG3tf2t/f/Z+uuUEcBiN2F2Kw4yiLiZQD+FcWyXYAEQfvICddi+AnEO2ycIOISw7UAVxieD/Cyz5mRMohfRSwoqoz+xNuIB+cj9loEB3Pw2448NaitKSLLRck2q5pOI9O9g/t/tkXda8Tbg0+PszB9FN8DuPaXKnKW4YcQn1Xk3HSIry5ps8UQ/2W5aQnxIwBdu7yFcgrxPsRjVXu8HOh0qao30cArp9SZZxDfg3h1wTzKxu5E/LUxX5wKdX5SnAzmDx4A4OIqLbB69yMesE1pKojLjVdoNsfyiPi45hZmAn3uLWdpOtfQOaVmikEs7ovj8hFWpz7EV6mel0L9Xy23FMYlPYZenAx0yDB1/PX6dledmQjikjkXCxqMJS9WtfFCyH9XtSekEF+2dH+P4tzITduTygGfv58a5VCTH5PtXD7EFZiNyUDBhHnsFTBgE0SQIA9pfFtgo6cKGuhooeilaKH41eDs38Ip+f4At1Rq/sjr6NEwQqb/I/DQqsLvaFUjvAx+eWirddAJZnAj1DFJL0mSg/gcIpPkMBkhoyCSJ8lTZIxk0TpKDjXHliJzZPO50dR5ASNSnzeLvIvod0HG/mdkmOC0z8VKnzcQ2M/Yz2vKldduXjp9bleLu0ZWn7vWc+l0JGcaai10yNrUnXLP/8Jf59ewX+c3Wgz+B34Df+vbVrc16zTMVgp9um9bxEfzPU5kPqUtVWxhs6OiWTVW+gIfywB9uXi7CGcGW/zk98k/kmvJ95IfJn/j3uQ+4c5zn3Kfcd+AyF3gLnJfcl9xH3OfR2rUee80a+6vo7EK5mmXUdyfQlrYLTwoZIU9wsPCZEtP6BWGhAlhL3p2N6sTjRdduwbHsG9kq32sgBepc+xurLPW4T9URpYGJ3ym4+8zA05u44QjST8ZIoVtu3qE7fWmdn5LPdqvgcZz8Ww8BWJ8X3w0PhQ/wnCDGd+LvlHs8dRy6bLLDuKMaZ20tZrqisPJ5ONiCq8yKhYM5cCgKOu66Lsc0aYOtZdo5QCwezI4wm9J/v0X23mlZXOfBjj8Jzv3WrY5D+CsA9D7aMs2gGfjve8ArD6mePZSeCfEYt8CONWDw8FXTxrPqx/r9Vt4biXeANh8vV7/+/16ffMD1N8AuKD/A/8leAvFY9bLAAAAOGVYSWZNTQAqAAAACAABh2kABAAAAAEAAAAaAAAAAAACoAIABAAAAAEAAAE6oAMABAAAAAEAAAA5AAAAACiRRf8AAB7/SURBVHgB7V0HfBTV1j+7s7sp9I50UJqUQGhKjSIKil0RC4oNRX/qsz2xPkXFZ/t8zw8VVBCVoiAgig9RSkCQ3ntvISAgJZBks7uz8/3PnZ3JzO5mNwV8JN89v18yt5zbzsycOfeUuw4NQBIkBSQFJAXKMAWcZXhtcmmSApICkgKCApLRyQdBUkBSoMxTQDK6Mn+L5QIlBSQFJKOTz4CkgKRAmaeAZHRl/hbLBUoKSApIRiefAUkBSYEyTwHJ6Mr8LZYLlBSQFJCMTj4DkgKSAmWeApLRlflbLBcoKSApIBmdfAYkBSQFyjwFJKMr87dYLlBSQFJAMjr5DNgo4Jv3NGX/8wLyLxlhKy9MRs1YKNp6v0wrDHqRcHw/PajPa/XIIrWTyJICTAHJ6ORzYKeApup5LWgvL0wu1EYz+jDaBLzknXYbeSf2o+CxTUZpEa+h+YT3XcReJHp8CvjmPEXe8X1I3fVjfORSgiEZXSm5UaV5mmrGb6RuX0jq/rWkbp1cmpdS9ufuyyL/ykmkZmwk/+qxZWa9ktGVmVt5/i7EWTOFHEnlsX9QyFn30vN3onJmRJ6K5Kx9oaCE0rBrmaGIq8ysRC7kvKWAI7kmJT+x47ydn5yYnQJJgxfZC8pATkp0ZeAmyiVICkgKxKZAiSS6LVu20HfffUfz58+nkydPksPhoNatW9OTTz5J7dq1ixh5zpw5lJOTQ263m/r160eBQIDS09PFX5MmTei6666j6tWri3Z+v5/mzZtHCxcuJK/XS4MGDYraJyMfPXqUpk+fTr/88gvt3r1btK9Xrx7de++9dOONN4q89d+OHTuI5x4LWrZsSU2bNrWhqKpKS5YsoRUrVogxu3TpQmlpaVSpUiUbHmc2btxozqVt27bUqFEjOnDgAE2ePJn27dtHKSkpdN999wmaRTTmgqAfOq10bPmqkLNWR6K8U+RfPwa6rtkC3VmjKTlqp5C7+a1ECZXtXQRyoWNZRA5PeXLWKXirGDy+mbSsg+Ss0YYc5WqH+nDY+goeWk7+VaNIO3mAKLEiKbVbkbPRFaTU62nDi5fxbxovUFzNbyaHKykfPfcY+deMhpFiK2mnjxApLsw5lZQGPfQxXIn5uCKlf5u1M5kU3DuH1D+3UfAo7qUD7ao1IU+XZ4iS9GcorKHI8nrUfelow2vPxFYtmdwpg0hpcg1R2FjBI6tJy/kTc0nDtttNwVN7SDu0FHPdEpMGwZM7KbD2cwoe30uE9pRQHmvpRErDy8h5QWfMVYmYWvCPlZjXfAoe2ULaqYOYi4fc7Xhe/YncyTb84JG1mNdR9NlDzFk7c4CCGYv1eWEMpX4aBQ8vI82bRc7qF5OjfF1b+/AMG4iYno7KTchZ+UJSt0ygYFAjpVZ7tG8Vjo5nC/rWDV9T8M+9oAvoXqkeOXDPxL2F9G6DoA/P7FRSD6/X71NeNp7nluRKuY+cNSN5BLdVDyyALncaBU/ux3N/hqhCDaz1UlIa9yZn1Ytt3Rc24yjuUerDhg2jd955J+o4zPCYyXz++edm/fr1622MatasWfT888/T2rVrTZzk5GRatGgRMdPr2LEj7dy506xj5jhq1CjRr1mIBDO4u+66i3Jzc63FZrpz587066+/UoUKFcyy9u3b07p168x8tESbNm1sOGvWrKHrr7+eMjIybOg8r5dffpleeuklW3mdOnXo8OHDouzxxx8Xa+L1WufZrVs3weQVJfLB184cpJyRHfFiNCVXs77kW/wpUSDPNgZnHBVrUOLNY/DwdDLrgsc2Uu7nffAA1qSkoQWvM++HQRTYPIc8V71C7vZDRXvf3CfJv+IbcqfeggdtH6m7V5j9WhPulGvR7iPBAIxy9UA6eSfcDh3PRZQ0+DejWFzZZYUh6eFF4mXitH/DWPLNfg3r8nE2AtxtribPNWNEue+n+4H/H3Jfej/mtQcvwnyiKL8C4ChXhRJvnxL5guKFY2uif/XUiHG4wFGhOiXeMY2cVfI/bsLyCKV80r0/kG/uy/jw5NNSadKJEgf8ENGXb94z5F8+EeXRf6HASmvRGB803/xnQfNvI/riAkdyBUq863vbC+795hpS966mpEHf4bl4B/doudlWqd+WEu+cTb6fh5J/7ffkanUlJVz7pVkfLZH7SXsw8cN4jj4hpekNlDsa+ROHyXP9/5C75e35TfJOknfyTaQejC4kOJIqQEWx3cQP/rGC8qYNEX2bhZaEu9115Ok7Or/Ef5q8UweKteUX2lNJD8yJvLd2lKi5Ykl0L7zwQoFMjkfhn6EYO3Ysde/enQYPHiwGZunNCu+9956NyXEdS3u33XYbpaam2pgc17GE98QTT9Att9xiMi1mYAMGDCCWtAqC5cuX02OPPUbjxo0zUWLhG0hWHJbErrzySvrzT3ydw4Dn9corr1DFihWJGZoB1vaZmZn00UcfRcxz8eLF9Omnn9LQoTqTMdrqV12yCh7aQT78iS986s2kNLsOn7w8vOy7KbBhCr7cuyj361sp6e7p+EK2t3dRgpx/9Xf5Yza6HJIPPhTZh0mFNONf+iX51/1IwexjlHjLtGKNwozc9/M/sJYAXsaryN3lcbzMLcW6tD83QWr4HcynXkTf/iU643MkVyRX6/74yvcROMHDqyB5ToBkcoJ8vzwDpjUrvy1cUryT+kNS2AAJqRPGekKXdFzJpLLEuuANXLdT3pSBlPQgmEaYxOX97j5Im8dIuaAZORvrkqxSrXl+/6GUunsmmNwE5Bzk6fkIKS0HkrN8bUh220g7ijUdWEzOitY1aeSdciOpe1ZBaoR03vUpzKs1JPFypP6xhvzpr4GpbKW8b++gpIfwwYFUaQXv9w+LeTlrNiHlItwjgFL1QnF1pQ4RjC6AD0JC39OQCvM/9AIh9I8/TszkHOUqoY9rRamjaiMiMDobgCF7p9yiMzlPEnk63knO+jBWQJJmCGbtpeC+xWaTYOYSyh2P3QYMUJ6ej6Lv/viINMMzk0nqzpnkS/8A8/uBHKCju9NTop1v8QjB5Ji5uy8bRq4LeT4qmO5OCmZCEt+/hBzYVRQLWKIrKlSrVk2D1Cb+atasqWErp4EJaA8++KBZzvVXXXWV2fWqVatsdVxfuXJlDVs4zeVyRdTVqlVLw5YvohxbZbPP3r17m/UJCQnaF198oeXl5WkffvihlpSUZNbVqFHDbMOJiRMnamB+5t+jjz6qcXtjTXwFMzfb9OjRw1b35ptvapAkxdyNNuXKldMggZptmC5GHc/F6XRqzZo10yC1muVc379/f7ONNRE8naGdeau2dubtuprvt39o2KpYq/V03kktZ1wPgZf7dW+zXj26QZTlfNzWLIuW8M64S+D5Vn9sVufN+Zve37heGs8hGgS2TwfOBQIvsG2qiRLYP1+U5XzR3SwzEmItWI96QqeRb91n+jhfpRkoMa95M+8z+xZjBv0R+OrRjQKHxwqePmjW+1b+Sx/r22vNMlvCn6tl/+/FAofXZkDu11eIsux/XaRZ12nUh1/zZj0s8PN+eTy8Kmret3a0Pq/xfaLWa6pP43vI6wlsHm/i5E66WpSdeb+JrdxECCWMZ4PHKQi8P94r+vIteMlEyZ18g162eaJZ5lv+vijLHtlaU0/tNcsLSuSMThX4gZ0zoqIE0Devi/szIOezLnqbrVOMorN21RUeRWCRx48fF3o0j8cjWr3++utim1m1alUhtfD204BDhw4ZyYhr3bp16ciRI0Kqe+SRR2z1YBK0detWsXUM3xJat468bSxfHm4LgJtvvllIjzwvluCsOkKWxEAxc4zbb7+dwAzNP27j8+Vvn8CQaPjw4QJ/9erVYjttNL7zzjuJJdobbriBJk2aZBQLafTjjz8289YE6xg/++wz2rZtGy1btsymlzt48KAV1ZIOirQjIYnc3V+NrnfyVKKEq94VeGrGJqFDsnRQoqTS9IoCdTu8vVGa6ZKNfz1v0+IDbyntoN8PZ41m9uI4OVebWzH2TaYkYUVnfZKzir5FDp7YalYFNkA6BXjSXhXXiH/QzbnbQfoAqJmRW/WEfm/rY0Y0DC/Q1+So2Sq8Impe3TBZlHvSINlGA0hwrvb61lHNWBaBkdhvOKTGOyPKjQJX2ztEUl0ffVtM0OUGts4DLR3kSo22qzB6gnZhw1SRSbh8GKTShvkVUVIszQWPZ5JStwUpF2IHEgUUbIlZKmdJWcs2+IRBv7ZRWpSsqMiMjhkaM6HTp08LBjBkyBBzBsx4IKWZeet2FdKLWc4J1ncxPkOfPn3E1fjXt29fsx9IhUaxuEJiM/Os5zt16pRglrw1tAKkODPLTI6ZTTRYunSpYNBGHaQvmjp1Khl6MzYeWOGmm/CShYANFkwPA9jYEg14Lmx4YGBjDRtKDLDq7Iyyolydtbtgy9pYNNEO2PViRemnqLjuVH09wcwNRW0q8JXancQ1sG0esYHgbIGjXOh++EP3G0ac4OGdYgvlrJla4DDOKvqWTzu134Kjv3jkTrKUFZx01NKV64FVX1pe3gLw/TnYBm4WTMZZ55ICkDDtKheJumCWwQwsqEq4ocZSh6S7zWCoHxLEOMGTu+yVyPk3TxB6X6VJZ3zU6kTUmwW5f8JIslvQUGma//yb9WEJFUYiBmedlLAae9ZZRTeSGHNjIwWDb+FwzCu6zt3eQ+FzxdLRcffMpNhCim0fYVsqJCJWvhsKeMaxMjqrRMV1LNEZYJUCuezCC/WHjtPYUvLFBGufXMgMlBnH+++/T6zzYutvVlaWsGyajZBgXRozMSsw8xs4cKCoM8qfffZZatUq/4u8adMmo0pcwy2xvA6WchnYeMLrDGfqbFyxAltpWe/HYGXcVpyipB3VwOiO7IF+axcpRWkYFTf0cketyy80rHFaThaIm40Holx+ZSFSbHFzt+kPA8NMyv3qBmH8cF/6LF64+nFax5uf8UHV8dSjugHBWaEa9D+/Fth3MMTgtIC/QJx4Fe6U+ymwBtZIMIWcUV3J020o1vWwcMINbytC4fhZKV8F1lZIVQUAW3oFQC9bZGBJtXVf6MJmUGDdGPL0GmHrwpD03O0G28rDM+qxEA1ZWrZazMMRQ3n1aL40HYvmFAzp1hEiyODu8TIFdi2C1Xcu5WR0poTLXyClxa1RpffQUIW+FIvRMbNhxTtvx6xK91ijBoNBW7WV8SUm2r9M0GeZuPH6Z2X+c889JyQ7s1GUhHU8o5qZ9P79+V9wtsa++uqrRrW4ZmfjJbZA+DqgmzNrWTrj/ho2bGiWccLY5huFhrTI+Wjz0vHyaWC0K+jqrFgHKlv0Beml5GAwitg9CQnAgTkivlXLO06OIjI67t1z9SfQnitCKe1fNQXGhCnY7rQkJeUOcre9HxiFm0vMmebqH6HgqSPk/ebumKhc6YTlsNiArWbS7TPI++P9whLKCnffwg9hAOlM7o4Pk9LoSrNrDRZMBjaeFGZejsRIFyazsxgJV+pDOqNb/z15er0JTJ2m/FHkMC+rEaLAbnJP6FWKp0AUW0UejB8AtiQXZE224jsS9V0gu7Yk3TaR8n54SFh9vTOeIpr1Erkv7kOuLjDUwJhRXCgWo+vVq5fwJzMGZcsqM4gGDRpQ/fr1qWC9k9ECVhoL44MxIr8CKevLHy4dWetefPFFeuutt8y2bOV99913if3b2H9uxowZZl14Yvbs2TRu3DizmKXKadOmmXkjEc6krLo8xrEyZc6z5BgPwtcUHd/+YYiOEyo1rM4hC1hM3LiV8SQmowN+YUK4YdZAAyPuFfP19B1Fro6PUWDVx+Tf9B9h1VMP4su+8gtKuOlLuKJcFLebmAgh3zgHJDpXmxtjonKl0rBXXJyYCPDhSxwwA1LaXPgHst8jfM52LhF/rNdM7P8pODyYllv/uDOjcaVAaokD7EdWHGBLPLsosfVe3T0LTPdq0U1g3VhxdbcfAN5XyH0ALK+FgtCWWmnaAz6azeM2YWu7AexnmDRkBambJoB+X4ltN0ukbOV3XzIYzPoNoBb9A2jnMMZoMa4zZ860Mbm7775buJIYTQrzohu4JbnyFvXf//632UXz5s2Fc7FREGtLyFvbe+65x8ZQ2agSLolxX7AwG12KK+sErcC6SgNYUmP/ub8aguz4CnAkF+woW/g5Fe4hCp7ay18kHhUmfzuNCj+WjsnbYPbJ8/T2Yis7jgLLPxXbv7xJN4fcKgopSUQZ2KCJIyEZbg6vR8E4N0VKw95gmr2hqzsMSfUjOBBPFkzPi+OmEm+cDEdwnWYO6NDO9bzYKOE79BpoOyHE6DQKrJ+OWwcjRDtsreNByCFdy81/1mM1cUL65B2G0qgHuTs8Fgs1eh0+gErre8Qfb/H9S96G0WQ+rmPxjFeFO8rT0dvFKC38/ijUyYIFC2zdsXRnAG/zmIkYcC6ZHkcnsN+dAewYbAVDB2aUWZX+bBhgi68BbLnds2ePcPplg4LVcMHGAytwVIUVrFZg1hWG6xutuEVLF/7WGAYBZ+0OoSF0ZmWVfos2dnxsLfN3gSQMIcWV6MKHYZ1S+4fB3FbDwNIEVuQj+KIvCscqUt5ZI0Uo0dkKSDAA/NXAESfMyJIfgsEFUpy67TehaHdWgaSD6IfgqaMi6uVczsvd+k7dKLEdY8MpV93zMxjwCTC9LrGNEKFJOWu0FSkt+6Rg3PHm6qjdRsc/sj4eatx6/ggmXPsVpORxAjew6fu4baIhFP5tCrUOl5RYsjLgk08+sTEJ3sJGc7I18EtytTI57ufEiZAeAemVK1dSuBGBDRUM27dvj9iinjlzhkaOHEkjRowQjsHs3mI4/7IbiRWs21v47dnGDbcQW9sVN63BoZbDwQoCVvZqZ6Ajg25JhCoB0ZFUVaBzeXFBi8MU/Bu+EV27WvQt7hAx2zkqhyzT2X/ExItbCSasNGwHGqrk36rPOW6bc4GQUEncI+46CCmPt4tKo07Iadiyf30uRszvE87CbJQg1Q+p7iuEEo4Xde529+TjxEg5kmuYlv0A2scDpUk/gRLYDqEoznMUry+j3gH9HQMz2+JAkRkdh0ZZgXViH3zwAbFk99prr1mrhL4qute/Da1YGTYcWIHjYtkowcYJqwuIgcPhVyypxYtxZXyD8bGEyi4kl112mdENscTHcbcc/saRGgZwiBmPcfZAl8rI56Xccb3gVY+HJgyCWfsQ1vSyKHV3ewSSi1ukHeVgHWMdEF5udZ9u6rc1xcPnXzycAtvSbcXWjH/JOOLThgmuBeHgXzNKhIY5ylWGBIZxDUDcowCL/tWoYgnCCsLqiLCsaMBxl+r+VaLKUd3+vEXDj1dmWBV9s4eTuvHLgtFhIOC40eICx6Ay44oGfP+0LEhviK11hiI+3B3uF6i+ue+A+XwWrZlexi4yuNclATZKMATWTsAW+jcR8qY0vb7QXXq6DBW4vkWI8Nk2OWY7DqNTGqUSb3W9k66B1Lq3QHyOJxaAZ8Hq+xjeQA3FSjurNwyvKlS+yDo6Drni2E5j68fuJE8/nb9nbtGihfCzM0a36rCMsrNxZcNH165d6fff9S0US3jMdA1o3LgxscOysQ1lphVuSGCjQJUqVQhRGMLNg6VPqw7OcGVhyY1jb48dOya6nzBhgjGMuHI/HIcbTcdnQyxOBiE0wWP7EUM6EA9nNZzn1gahUhchXu4I/KB+gdORFyb4NFj1/mbr3Y2wKlbieqc/jHCduxAL2w5B2FvgEIvDL/csx5cWJn0PmCFLjNHAnSBiNv0rv0Ugf1OMm4LtTzkK7l8qFMSkuCnhho/gyFzNbG36fB3bJ06o5a1Z4sCfzHprwrfwdTDLpYjjhcK6dlv95Vfg83VoJV5GOPh6s4VTModElRSU5rdAkb1ShK55Zw4jZfU4BOV3R0hXB2wbswgRIPiQYF0IxfJcMax4eiVM0jtlEOjpw5ouI0f1Fog1biS2pWrGUkhSM8UyPF0fMD9ISuN+5Ok+hHyLPiXff14RrilKo56k1OmI+3o6NK9lmNdKODv/jZydnyk2KYRRAjHIwqcQvbhTbsL/0Me0EL0qrQaRm8PsYEn1Tn8CBwcgvroe6BcyZLD/obp7CULoFkKPVpsS+o8i79fX4XnbSrmf9QJNeuIZQuw2/BWDp/bhkIi9YLhz4RL1B5V77iDWmokYWxx6UK0ewsXS9AMGKjUALvc7j9Qdi8R83d3+XojZRqIUmdGxDxg71LKlddeuXWaP7CLCwfWjR48mNlAwM0BImMgzUrj10pq3psNxDadiYyAr7pQpU4gjFdLT041qce3ZsydxHc+Toy46deokAvs5HpV95NLS0oRVlucZfvIInywyZswYYXAxXEeYqf70009CUgy3KHMUxRtvvCFicK2TsLqQhK/BamW2pq3tjTRHRiQOmADJ7XnBYNSt6VD0potqIVFd8gBe4sib7+7xKh6yDUKp71s02uhOXJV6rcndeSjq1uMls9cZiIlXI/4T/lD+lePFw8oPrAFK4w6I1gDDqNvdKBJXfsA9aY+Tb8FI4brAjK4gUJpeiZduszhUgHCwQDgodS+mxGtgoTxL4En7JxhbKuX9/JK5Hj99butdqQNP/jpdbGVFybhaXwtL4WTxgSGaEdGUg9jdlwyzlbu7vyY+Qnk/Py8so2wd9dMYGw5bTZW6l9rKipNxwW3Hd3g4mBMbIXQJL1o/4hSZKBWe3v/CR68j5c1BDO6B9eLPisYHIzhCMbXsD5l0fzr5fn0aTP6n6PcZuw53Sn/RhROnnijNsHPZtZiCy8Zbu9XTHDPb50X9RJvI2rglxT69hHtmB1kOa2IXC3btME4IYSU4H5kUrrPiIHzDKMDRD1amVdw6ngdLl3y6COsPWfKyWj5ZN8fb3KhGAjgqiiNv8PVkcEDkFl9hkYv8x3NnRs5HQTHT5EB/ZqrRgE9r2bt3r6jq0KGDzUGa6bZ582ZRx4ySpeBwME4v4ZN5jUMrxXE8Bzm8ZgekoA7CqmdsV8Pb63kNTrJzhCSnZR/FQ5iIkKHbTJcN0R+OR7Ie08RHDGk4HUS5APojtrZBPyiONspcBokuGVsSHJUDOsUEbLXUwyt1elZsIFCDJ7aLa7gvFPetIeg9ePoQabgPjqTK0DX2wssPqcYCweM4vigrQ5xcEcuL3zxayZi/pQ+R1AK452tIw7rFlgprdJa/AEdeQdpgCcwC+X11Bi0qWWpiJEEv9cBCfavJa8Iz5qjcAPeKT5NpVHBDMS8cv2TOq6JlXo1t7cxjmmql2iRqG1K0DA43YOdk8+ivaDgoM+8Vz9cZ5WPFzwS2nCoOKiCs0VmxPuiXKg4kiNolVALqoRXiOWRJlWCg4TZKg8tM6dZsh6Pc+eh94cDN+lmoX5y12+G5uwLSUiHvgdlZfqJEjC6/m4JTrCxXGl5uirgFY/51Nazv8Ke/JEzWpnd2aHilUfvQdqvwYv25mDkzoZyRCM2xMLpzMY7sU1Lg/wMFnOd6keq+BZT9TgP4wIyA3iHrXA8Xt39WdPt+fgy+X5WwjbgXR+Ng64c/pV4r0VbduyaqAj5uxxJBUkBS4LylQJF1dEVdCXsyK/UvxQGLL5J/2VjohgbDE/wBy4m2Re2xZPi87Yl2YCKf4Jv9AbaQcOCMdUJtyUaXrSUFJAX+GxQ454yOF8XHVCfdDUXw3L8j9u8jnPI6kVxNceRzY3iPc0hKKEznLyMA61F2IExn58+w+uwnz5XvYf9fQQyvXND8L5uGHEhSQFLgr6HAX8LoxFLg25Vw3ddwPHwLp4t+COvUNPHnKF8VisYu5Gp8OZgeHA0t7gpnkwTBE4j12/kjrDpz849qTq5Enq5DoIxva/oxKRffeDaHLX5fRtwqLGQSJAUkBUpGgXNujIg2PRUH8/lXjUbg7mx7NVsFcbaas2ZLWHFgaanfzXZWvh05Rg7WJfFDJvzbAjtnwQ8HVrDjB20NXPAUd3d7DhZE3eLpnToAPzCylpIf2xjd0mRrLTOSApICpYkC/xVGZxCIvfYDOOEhAN+wgoBPIXXWRPgH/xpWcjU9cB1XYr8bHIjIP+CiZR2AOT8Dv56UiesRnFoa6c1v9M8/3MJe3krLO4wi8YtKOSNhbb16BAKJ7zbLZUJSQFKgbFDgv8roDBKqu36E3g5H2vCvLBknwxqVZ+HqSCyHn2KDTrD59dge6w6K1m45/EY7vA66upHWYpmWFJAUKCMUOC8YnUFLzYeYPvy2pZqxGH+r8cs/W0JHARkYhb8q1eHEWLM5jnPuQK4WAwp1SkPhe5eYkgKSAqWJAucVowsnnMbe4mB8dHq/HvN2MgMR9/A2x8+zaVn4UQ3EajrLYzuLH7h1VqiF7Wwt+MNdgjAVxOBxYLsESQFJAUkBUOC8ZnTyDkkKSApICpwNCpzzyIizMUnZh6SApICkQEkoIBldSagn20oKSAqUCgpIRlcqbpOcpKSApEBJKCAZXUmoJ9tKCkgKlAoKSEZXKm6TnKSkgKRASSggGV1JqCfbSgpICpQKCkhGVypuk5ykpICkQEkoIBldSagn20oKSAqUCgpIRlcqbpOcpKSApEBJKCAZXUmoJ9tKCkgKlAoKSEZXKm6TnKSkgKRASSggGV1JqCfbSgpICpQKCvwfsF20R2zK57cAAAAASUVORK5CYII=;" vertex="1" parent="1">
          <mxGeometry x="373.55" y="361.01" width="214.17" height="38.88" as="geometry" />
        </mxCell>
        <mxCell id="UFaXmECFwQH_9bim80W3-28" value="" style="shape=image;verticalLabelPosition=bottom;labelBackgroundColor=default;verticalAlign=top;aspect=fixed;imageAspect=0;image=data:image/png,iVBORw0KGgoAAAANSUhEUgAAAFoAAAA3CAYAAACMwl2GAAAEDmlDQ1BrQ0dDb2xvclNwYWNlR2VuZXJpY1JHQgAAOI2NVV1oHFUUPpu5syskzoPUpqaSDv41lLRsUtGE2uj+ZbNt3CyTbLRBkMns3Z1pJjPj/KRpKT4UQRDBqOCT4P9bwSchaqvtiy2itFCiBIMo+ND6R6HSFwnruTOzu5O4a73L3PnmnO9+595z7t4LkLgsW5beJQIsGq4t5dPis8fmxMQ6dMF90A190C0rjpUqlSYBG+PCv9rt7yDG3tf2t/f/Z+uuUEcBiN2F2Kw4yiLiZQD+FcWyXYAEQfvICddi+AnEO2ycIOISw7UAVxieD/Cyz5mRMohfRSwoqoz+xNuIB+cj9loEB3Pw2448NaitKSLLRck2q5pOI9O9g/t/tkXda8Tbg0+PszB9FN8DuPaXKnKW4YcQn1Xk3HSIry5ps8UQ/2W5aQnxIwBdu7yFcgrxPsRjVXu8HOh0qao30cArp9SZZxDfg3h1wTzKxu5E/LUxX5wKdX5SnAzmDx4A4OIqLbB69yMesE1pKojLjVdoNsfyiPi45hZmAn3uLWdpOtfQOaVmikEs7ovj8hFWpz7EV6mel0L9Xy23FMYlPYZenAx0yDB1/PX6dledmQjikjkXCxqMJS9WtfFCyH9XtSekEF+2dH+P4tzITduTygGfv58a5VCTH5PtXD7EFZiNyUDBhHnsFTBgE0SQIA9pfFtgo6cKGuhooeilaKH41eDs38Ip+f4At1Rq/sjr6NEwQqb/I/DQqsLvaFUjvAx+eWirddAJZnAj1DFJL0mSg/gcIpPkMBkhoyCSJ8lTZIxk0TpKDjXHliJzZPO50dR5ASNSnzeLvIvod0HG/mdkmOC0z8VKnzcQ2M/Yz2vKldduXjp9bleLu0ZWn7vWc+l0JGcaai10yNrUnXLP/8Jf59ewX+c3Wgz+B34Df+vbVrc16zTMVgp9um9bxEfzPU5kPqUtVWxhs6OiWTVW+gIfywB9uXi7CGcGW/zk98k/kmvJ95IfJn/j3uQ+4c5zn3Kfcd+AyF3gLnJfcl9xH3OfR2rUee80a+6vo7EK5mmXUdyfQlrYLTwoZIU9wsPCZEtP6BWGhAlhL3p2N6sTjRdduwbHsG9kq32sgBepc+xurLPW4T9URpYGJ3ym4+8zA05u44QjST8ZIoVtu3qE7fWmdn5LPdqvgcZz8Ww8BWJ8X3w0PhQ/wnCDGd+LvlHs8dRy6bLLDuKMaZ20tZrqisPJ5ONiCq8yKhYM5cCgKOu66Lsc0aYOtZdo5QCwezI4wm9J/v0X23mlZXOfBjj8Jzv3WrY5D+CsA9D7aMs2gGfjve8ArD6mePZSeCfEYt8CONWDw8FXTxrPqx/r9Vt4biXeANh8vV7/+/16ffMD1N8AuKD/A/8leAvFY9bLAAAAOGVYSWZNTQAqAAAACAABh2kABAAAAAEAAAAaAAAAAAACoAIABAAAAAEAAABaoAMABAAAAAEAAAA3AAAAAAsWGnEAAAaWSURBVHgB7VpbSJVZFF4NaqOpaU6OymCpSalpXpDUB1/ECwMTpYgPERWT5o3xITSKXlMIQfGKMIqoM2IPFl0oNOdB80EqLcux8ZppeFfS8kKSc9auf7P/c/7j2Z7/nKOc8y84/Gutvfba//7+ffZlrb1nU0WgkNER+MHoLSgNEAQUoE00EBSgFaBNhICJmlFGtAK0iRAwUTPKiLYkoP/+dwECS3vh17/+g/75NRN13bTN7NnpA0v3zCr89mcf7bXXz3bw9Hd/KpsLs+NTxz+jSyIsR6dXoEcFvrnRjgP9R7gr/PLTjxTX+EAXCHG1pbK5MDs+dSCQMysbkP90EjwcrSEvws1csBX1Y1cALXojMxV2fOowU1w1umWloTGAYnJyEl69egU9PT0wPj4O/v7+cOTIEUhISDCA928uPn/+DK9fv4a+vj7o7u4Gd3d3CAoKguPHj4O3t7de7RjDp/AiBp86iouLoaGhQfAveh48eBDi4+MhJSWFAMMWPnnyBFxdXQlYrF6Kr6yshObmZlhcXJQqhsjISLh+/bpGG5LG35W1tbXQ2NgI8/Pzkmb6+GQdGRTo9PR0eP78Oetfkk9OToarV6/Sstu3b8OtW7eIXFdXR/4BtFCNSUxMhPfv36tppcXs7Gy4cOGCdCGjzcnJgc7OTkajneX1qe7BYFNHdXW1COTQ0FA4efIk+RuPjY1BV1cXPHv2jLT/5csX0Xu0trZS+c2bN1qBxg/Jguzl5QXh4eFw4sQJmJqagpcvX0JHRwf1VVZWBhEREXDs2DGqU2eamppEIB86dIi8N/qcm5sjU1N7ezusrX07saJPnKKwf9siPBnKJdVo2AwLC6O/qqoqSZctLS2bd+7c0ShT/c1pXVXHNcpRcf/+fWqDbZWXl2+ur69r2OK7ZGRkUNuzZ89q2AiKoaEhaoc+b968KRSJnqo1Z1P1kamtaq3ZVE0xIhtdgkF2HRUVFfTjnjlzBtLS0qjMMrGxsXD69GlWxcWvrq4C28bly5chMzMTbGxsNOpHRUVBQUEBnZ/fvn0LuG5IUVFREVVfunSJzOtUwTBubm6A60JAQADRzs7OEpkx0ckaBOgPHz6QhqysrODixYs6G92uwejoKMzMzJBqwcHBkJqauqWL/fv3Q1ZWFrXBnYk6bWxskJ0R6vfu3QtJSUnqJhryuXPnqE7KJy2UYGQDjVu55eVl4ho76OHhIdGMPNW7d++oAx8fH8pvxeAuQSAc1eqEW0L8pyAdPnwYcEeki3A9EGhgYIDWF3RbPWUDjaNNoAMHDgisQZ+4mAoUEhIisFs+8aPjwoaEgPb29orsWdnPz09Upk1gfaINnhN4STbQbENScyZbri+vWvRoVUdHR8rrYuzt7anJp0+fKI8MK7N2IiMJYTu2bHWDAs06VngxAgrQYjyMJilAGw1asWMFaDEeRpMUoI0GrdixArQYD6NJFgu0g4MDBRXj0Ly0srLCayqys1ig2egb73EawwDsAU2EpA7BYoEODAwEOzs7Ag8ep3ni6I8ePdIBp/ZiiwUaA2BCNA7hqa+v146SqgRj05ig0JcsFmgEjM2+YIblxo0b8PHjRw0scWq5cuUKTE9Pa5TxKgyWYeFtcDfZYQYIU2OYf0R6/Pgx9Pf3g6enJ2AMGuMhCwsLJHPDxlv06cOuAJoNRllbW+vTD73rYBL369evcPfuXeIDI4VstFDdMU43vIsnW1f21IEZjZiYGBLPzcvLY31z85gt8fX1BczAYIZGnTDYj/FiIT+oXq5NxpCqk5MTeT98T22EUwYmh3EUayN8r3v37mkr1qk3aBZcZ2u73ADj1rh9w0QDjmpnZ2eSXMZkg4uLC3n78+fP0xFdUlICW31Atru7YupgX2gneVtbW5KBxws/2ggvBAl09OhRgdX5lD116GzBjAww/bW0tER6hNkbYZTzdNHigcbtHO6PcXehi9hMPG/6S/Bp8VMHLuRIeGC5du2a5JyLo7impoZs8wTg4uLiBJbradFAj4yMUJAwm5+bmwt4pQBvNmEsRHXBBl68eAEPHz6EiYkJaos7kOjoaCrzMBa/62hra4PCwkLASzE8hNcYSktLeUxFNhYPNKIxODgI+fn55BqwCB1GwC0eXobk3c4xVQmrAP0dEbzE+ODBA3IER+CHh4fJIQm3ehjpO3XqFOzbt08dP25ZAZobKnmGFr+9kwcff20FaH6sZFkqQMuCj7+yAjQ/VrIsFaBlwcdfWQGaHytZlv8Dofo8YQ1NTaUAAAAASUVORK5CYII=;" vertex="1" parent="1">
          <mxGeometry x="626.02" y="303.74" width="57.72" height="35.27" as="geometry" />
        </mxCell>
        <mxCell id="UFaXmECFwQH_9bim80W3-29" value="" style="shape=image;verticalLabelPosition=bottom;labelBackgroundColor=default;verticalAlign=top;aspect=fixed;imageAspect=0;image=data:image/png,iVBORw0KGgoAAAANSUhEUgAAAIcAAABOCAYAAAAKAAV2AAAEDmlDQ1BrQ0dDb2xvclNwYWNlR2VuZXJpY1JHQgAAOI2NVV1oHFUUPpu5syskzoPUpqaSDv41lLRsUtGE2uj+ZbNt3CyTbLRBkMns3Z1pJjPj/KRpKT4UQRDBqOCT4P9bwSchaqvtiy2itFCiBIMo+ND6R6HSFwnruTOzu5O4a73L3PnmnO9+595z7t4LkLgsW5beJQIsGq4t5dPis8fmxMQ6dMF90A190C0rjpUqlSYBG+PCv9rt7yDG3tf2t/f/Z+uuUEcBiN2F2Kw4yiLiZQD+FcWyXYAEQfvICddi+AnEO2ycIOISw7UAVxieD/Cyz5mRMohfRSwoqoz+xNuIB+cj9loEB3Pw2448NaitKSLLRck2q5pOI9O9g/t/tkXda8Tbg0+PszB9FN8DuPaXKnKW4YcQn1Xk3HSIry5ps8UQ/2W5aQnxIwBdu7yFcgrxPsRjVXu8HOh0qao30cArp9SZZxDfg3h1wTzKxu5E/LUxX5wKdX5SnAzmDx4A4OIqLbB69yMesE1pKojLjVdoNsfyiPi45hZmAn3uLWdpOtfQOaVmikEs7ovj8hFWpz7EV6mel0L9Xy23FMYlPYZenAx0yDB1/PX6dledmQjikjkXCxqMJS9WtfFCyH9XtSekEF+2dH+P4tzITduTygGfv58a5VCTH5PtXD7EFZiNyUDBhHnsFTBgE0SQIA9pfFtgo6cKGuhooeilaKH41eDs38Ip+f4At1Rq/sjr6NEwQqb/I/DQqsLvaFUjvAx+eWirddAJZnAj1DFJL0mSg/gcIpPkMBkhoyCSJ8lTZIxk0TpKDjXHliJzZPO50dR5ASNSnzeLvIvod0HG/mdkmOC0z8VKnzcQ2M/Yz2vKldduXjp9bleLu0ZWn7vWc+l0JGcaai10yNrUnXLP/8Jf59ewX+c3Wgz+B34Df+vbVrc16zTMVgp9um9bxEfzPU5kPqUtVWxhs6OiWTVW+gIfywB9uXi7CGcGW/zk98k/kmvJ95IfJn/j3uQ+4c5zn3Kfcd+AyF3gLnJfcl9xH3OfR2rUee80a+6vo7EK5mmXUdyfQlrYLTwoZIU9wsPCZEtP6BWGhAlhL3p2N6sTjRdduwbHsG9kq32sgBepc+xurLPW4T9URpYGJ3ym4+8zA05u44QjST8ZIoVtu3qE7fWmdn5LPdqvgcZz8Ww8BWJ8X3w0PhQ/wnCDGd+LvlHs8dRy6bLLDuKMaZ20tZrqisPJ5ONiCq8yKhYM5cCgKOu66Lsc0aYOtZdo5QCwezI4wm9J/v0X23mlZXOfBjj8Jzv3WrY5D+CsA9D7aMs2gGfjve8ArD6mePZSeCfEYt8CONWDw8FXTxrPqx/r9Vt4biXeANh8vV7/+/16ffMD1N8AuKD/A/8leAvFY9bLAAAAOGVYSWZNTQAqAAAACAABh2kABAAAAAEAAAAaAAAAAAACoAIABAAAAAEAAACHoAMABAAAAAEAAABOAAAAAB3xDLwAABKSSURBVHgB7RwJWBbV9iA7omzKosiiiCAooqKAiSLumqWlpWalpam5Z2m2+dw1MyuX7JXP3pdp1itFLfcWExTN3SBFZN8FAWWH3j3DP+Msd37g//9BoDnfB3Pn3HPv3Hv+M/ee7Y7R3wRABZUDFA60oOBUlMoBhgOqcKiCIMsBVThkWaNWqMKhyoAsB1ThkGWNWqEKhyoDshxQhUOWNWqFKhyqDMhyQBUOWdaoFSZNgQV/V1ZC2pkoyIg5D1mXr0BhahqUFhYxQ7ewtQHngG7g//wUcOwZ2BSm02TGaNSY3ef3iRD8uXs3xB85DqX3CrQz1cgIek2fBgGzXtFOp9bWmQONUjhK8/Lg0rZP4dbBw1BZXlHnySBh+Krl4DlqZL3aqMR0DjS6bSXh0GGIfn8TlGm2Dfqwa7AtjFtAG58u4BzYA+y7eENLFxewcmyrrYlaVw8ONBrhqHjwAE6/9Q4k/vp7rcO3cXMF33FjoePjo8DC3r5WepVANw40CuEoSkmB4/MWwr3EZK2zsCVC0WvObHAfHAFAdAwVlOXAIxeOvBt/wpHZcznrgzZdUysL6DljOnR9bhIYGRvTSFScAhx4pMKRffESHJ07HyqKS2Wn5ujnCwPXrQFr1/ayNGqFMhx4ZNbK3es34MdXZmkVjG4Tx0Pv1xapq4Uyv32tvT4S4biflg4Hn38RSvLuUQdobGIMoW++AZ2J0qnCo+NAg28rlcXFcOzVubKCYWJuBoPWrwHXAWGPjivqkxkONLhwnFm+Au4lpVDZj4IR8cF6aN+vH7VeRTYsBxo08Ba3Zy/cPn6KOsMWLYxgwMrlqmBQufNokA0mHBgnOb9lm+ws+8ybA+5DBsvWqxUNz4EGE44zK1bKWibeI4dC1xemNPzs1Sdq5UCD6Bx3fvwJ0s5fpA7E3sMNgt95W1KHFk1BQgKUFxWBqZUV2HT0hFZubhI6MSLn6lV4QNpaOjqCY48AncxgTBEoSE6Bsry7UPGgGMxatQJ7Xx8wsbQUPK6qogIK7yRCSW4OVJMAoSmhs+vsBWatWwvolLwpvXcPipKTwcTcAmy9Ouk0X7nxKS4cyMALMtsJmqxha1eBiYUFMz70fcR9+x0k/36Gas3Ye7pD7/lztVoyhYlJ8Ot7K5n+rBzsIGTJ63XaripLSiB+/wFIPHEKsv+MhcrSMgHPcKzuA/qD95NPQDrJK0k/FwN58behulp4YLAFces7dfODgJkzoF1IsKAPg92QQ4q3Dx6CG199Dbm3bnPdWtrbQsgbi8Fj2FAOp09BcT/HjV1fwrmPtlLHGPjSCxA451XIi4uDGBKJTb94mUonRoYsXgC+kyeJ0cw9rjj7Rj/J1aGiO2LHVnDq3ZvD8QuVpaVw/YudcH3PPignq4Qhoc+cmeD/0jRDdgmYzvDL4iWQfukKtd/a5kttJINUVOfA5fn67j3UR7du7wLdCOP+2PwxRE5+QSAYWOfQyRNwojSI2fwJ5P91k1YFZtYtBXh8s2M2fSTAsTdZf1yEH8aNh4uf7+IEA9MAcMXBlUIbmJiZAo7TxrUdmFqaU0ljtnwK6WQVNBQwzsPnCK9kBAOfg/O98vlOgzxS0W0lPvIgPMjNow60x8vT4MSr87iJGpuagO9TTzLpflYkLwMh/+Yt+Gn6TElQrqqyCq6St33AhnWSvssKCyW4nNi/ABlr3b4dV3d953/gwrYdUF1VzeBQILoTpdjriTGMzoCCc5SMr7KsnGvDLwzasJbb3vAsesqpn+H0itWSPJQ/tm6Hdo/R/Ta4Ysbt3QdpZJsqzr0LLQgPfJ54HIJeXyyJOlcQ3evo7DlQlJHFDMNzYH8IfnMpRK9ZK0lzyL52gz9UncuKCsefe76hDgzfNtwv796+w9TbEqV00Mb1YNupk4Dezrsz+D83kfyInwnweJN67rwEh4jirBrmiStziaLKCAf5Ic+tWw839n3PkXgNGwwhb73JKJR/V1XBle074PLOXYBCKAdpZEVgvbhGRM9wixgEoWSL+vnt5YImOXE3AVMSWnXowOFRD4tZtwH+2h8p0FmqKirh2p5vwdyOCOr0lzl6LPxGcl0KklMZXKchg2DA+rWMALWgRKnLi0sEbXW9UUw4cNm/G59AHVdRegbHlPa9AiHi4w/BhFgkNECLgwaYKVaSnUOsEmHmVz5REmlQnJvLoKNXr4XY/+1nyqg8Bs2fA34aMxr385MLF0PW1etMvTnZoizsbKEgJU3S5X2KELqG9ZfQISL32nVOODCp6eiMWUTpjaPSIvLaV3ug27SpnOUR+9VuSDodxdCjdffYqhXcylKQlCzpp7YtUdJABqGYzhF/4IDMI2v2RaxErX7w9i2ygoE05ja2eKFCRYlUgbwbK8N0shdf3rZdIBj93l7KCQbmlUROfI4TjPZBPWHsvq+hdQdX6rNL8+9J8CbW1hIcIgru1KyQuGIcI7krrGBgOkLEhjXQmqykfEDBz7lylUGh8/ACWckQUAcLW7MSjM3MmPtysoXmJyQyZf4/63Y12zIfp0tZMeFI+vW01vGgMjfkk81gbGqqlQ7fNDkwsRD6HZAul5ihNMi7dYtRPNm60CWLuahv2pkzcHjGTLifXbO6BDw/GYbt2A6o+5QQXYAGJpY15je/riQzk3/Llas0SdLR/1rJCZ9neBiM+nInY2a3cnHmaNkC+ngQzpItkM136Tp+HPG3+LIkkEHM6WrKt3fadn1IwxHrUFBkW0FpL0ynMwrHiMteONkzzWxsah0yyyQxIfZhbm8nQJcXFEC+Ro8RVJCb+B+PAmgY2X3KJPB+ZjxDgoJx8rUljOKJffZ7ayl4EV8GAiqaBak1+zyD4P2zpOSu5hA/DQ2wnzskcfrm4SNMddsunSGMzJ/NaitMkT6jjMwlPSoKks+cZdpYO7aBnvPnCbpPIkowDVx69aSh641TRDjSyQEkbeBPfhwHv67aSLi6bHKIiQa2Hu6SVQcPPtHeJGzP4l379obeC+czXWaePy8QjIGrV4D70CHc43KvXePeWg6pKbShjD89uuaHFNNWV5RD1PqNDNrMyhLCP3ifG3txRgYUZWaLmxCdrBpiNn7I4YOI84/voUXFOTWK8jyiR7mGhXHt9Ckosq3kEhNNDlq2sYceM1+RqxbiyRuXevacEKe5c+ktfTvSoqKptCwS376BGi0f3d4nFr7OrBjo2xALBrZJ/eVXtqnk2i40RIgjY02ReSluHfoJyu7XbI8YYOSb1Km//S7sR3OXePwk5N1JYu6c/LuC58gRArqs8xckJj4SOPp4S5R0QcN63CgiHPkJNQoYbRwB017kFCpaPR+XSex/OT+Jx5CHbzi2YXwN2oSDvFFhK5YzWxm6yo8vWMg5vvosmCtYMdgxJJAfiAZoeovNbhwrq7OI27CCgQqo94SnBdWpZOugAecWJ+MOJi5xMdw5QR+bW/gAManO94oIx/30dOqAzFu3Aq+xD13bVCIeMnbvN7y7h0WMsYjPxWKyckl+wUMiUcnnidHg3LcPgz1LzNmC5Brz1HfsGJLVPllEDcx+X5BKn4fPU2Ml9DdJXEYboKURSvQZ/pEK3BoyagkZeA2NAIdu/pKuU05TVhwiSB1HCFcYScN6IBQRjnIZC8OTSDUbZKttjLjsJ8ksuX7kiIIYkk6cEKO4e9zKghYtYO7Rnc0qhrbuHaDP0jc4On7h6he7+Ldc2dLOBrxFua24EiX9pt068xo+RGBpYIfZly5x2w33AF4Bj2QELVrIw9QU7xKzm7ZKOfp2MWiWviLCUVFSJpkQItwHhVPxNOTFLVs5Rxm/Hpd08erDWAMkmioHuCxjOB3pzr7/AUOGlskA4kxifQb8tpnERJQLAgZMfUHil8EjnKy5ye+HLZtYmEPPeUJLA+tSZISfbRdAvhwgdvJhXeJx+ovgOXgQ29QgV0WEg790sqNkQtl9gthbrdesCxcg4RRFGSTLZigJwaO7mg8ZRGmV001cuvtzIfvbByLhnsYF7TVyODj4+/G7Ycq41J/buEmCRwQGA30nPiup++v7/RIcH9Ft4gSwcnLko5gy6+iSVBAEOsb8iH5GA7ktxXPEcBq5zjhFhMO8pdQV3tLZsU5bSlV5Ofy+cjV1Qj5jRoFzcF9JXcKhQxIci+i9qMZsxfvYfd8xaExkDpw9iyURXDHFgOb2x5XmseXvgpGJ0PrH4BnGT+TAwqY1PWxPVrHc+Hi5ZhCy9HXO3OUToQ8pLyGRj2LKaKVYOTtL8PogFBEOyzYOkjFZ2NpKcDTEOZ6yyK/Ht7bvsqV8FFNGYZI7fO3RPxTaBgQwdBj8wugsgsfAMOqbjD/0xc++YGjE/3rNmkFdaeLJaqQN0OFm2lKYRoD0JXdJlpnMST/UT+Qy8OV0K9d+ItNa26DqWKeIcDh29anj44VkN7/5FuIiDwuR5A6VwIjNm6j6QcrJU5xJKm4Y+OpsDoUOMhY6Dh/GFrkreldPkSQa2vdAOkYMBP9pUzlarkDe/jtadB1UhH1kkpJKNYFAri9NoZWLE4S8vUyM5u6TZcISHQYYzoRlH6aIcDhTsq6KMjLZZ1KvSceOQzRlr0eNfehHH8pq4beIMkgDDJzZkW92sMAGv/DeSeRexoDY8bkLoDAtgyXnrk5EZ+m/lr7NoW4kp+tgB91RedWkQHIdagpGlJgSJg1FbHqfutJgM1wls4mlIgZ0EdTV4yxuq+1eEeHAHEYMd/MBP9uEzKRB7O6v4edl70jyJ7CPYZ98RLXzsR9Mrk2PoffpL/JdcFFUosyi5cICJtEcefkVyKIkyKBnctinW6l7P7bHPFI5wBXAZ8J4uWqw8fBgMs5YAnwJhmzaCPY+8qtuzqXLgDkfYmhDYjU0I0BMV997RYQDczP8J0+UjCV67QbA5ZuFwqQkODlvAVkxNnMZWWwdMnfUrs8lzi62Hq/x3/8gESjE43c82otyK7iMcLIVJP50BMkgk1g5kZOmcJFSBqn5hzGYYZ9tF8Qz+PVYpgXMWJrAGS9LlFe2Dq8YdBtIkqtdg4PAe/QIGPvNHqqyzW+Te70mz4SPw7KDFoES09bnXqh616dlLbTdp78EGIjK0CTOIDlq2d+OGQeO5I3EUDjjIiY/lhjc+gVD2OqVtUZtbx44KG7K3HuNHinBO3Qmb5cGTi17F8xWrQW5jCn/Z55iUvXYqCnbTnxFC4YG6FzrRNINawPnoCDAv7qC3NZs6+lR1y7qRafIyoEjQMZGkHwNlx7dBQPCRJaUqHOQe5OYcSLBwM9Ghr27DAZv+bhWwUB3Oeuz4D8A/Slej4/mo5iyx/ChYMYzsWmCgXmkgzetJ17TJVw4XdIRD9EuhG4hBC8mn40Q+WJ4zXQvivjFdkRzlLF1+lwVEw4cFC7lw3f+G/AoAUZE5cDaqS30mvESjD+0X+L9lGuD51to4ES+SUqz9zF3JHz9asCQuRhQoQucOgWejvwB3MLDxdWy9x3JVwvxtB4f3B8LkU0o5tPpUm4lk+GliCCSASp+boVjApF6PI2WQ/IpMfezurICrNq2ZXSKtt3J6lKPNw2zw/YOGQ40N33oG4vAh+LFZMeBeaKYKV5ADj8ZE7e2A8msatcvVNaqYNtpu2KKIUZXy4vug/+Lzyv2ETvU0b4bO0Gy4g5c+R50HD1K2xB1qms44dBpePRGeFo/aoPUxY15Gc+eOAJ1dbjRe2/c2OgVqyD2B6HjDY90aPON6DojRbcVXQdVW7tbkXR3uXNA92YtGMiXYOIl9pswTnDoCvNO0CQ3NChmrRh6oGx/+VpiGR2J0tncAWM7fclhpm5TX4Tkn38h22Mic9g7m/hAxOa7vrxocsIR99331DmjWWmoA8TUBzQyJCrd2nQrQwy3SW0r6D5OOEbPZXAhh6M4R5chOKP2AU1KOJKOHoMyYhHQwFP9KhCNLXrhmpRwyCXV4JaifjJKLzmgNm4ywoGn5DOuXKNOQt1SqGzRG9lkhOM2+ZyD2N3Ozl7dUlhOGPbaZIQj/shR6szVLYXKFoMgm4Rw4LfC2G9TiGetbilijhjuvkkIR/xBemge2eDJO9tqOLaoPSEHmoRwUA8Mk8HjeZB/kuOroUW20QtHKcnSljuW6BYaLJtv2dCMbI7Pa/TCUZyZJct373qcu5XtRK2Q5UCjFw5r8tklDMWLAT86h3kYKijHASnXlXuWTj1jvKTLGGnan98kciyxHglCOj38H96oSST74PnVG1/+FzChuJB82c+OnH4bs3d3nfI8/+G/r17TbxLCodcM1cY6c6DRbys6z0xtqDcHVOHQm4XNtwNVOJrvb6v3zFTh0JuFzbcDVTia72+r98xU4dCbhc23A1U4mu9vq/fM/g+OrkBDD00x2wAAAABJRU5ErkJggg==;" vertex="1" parent="1">
          <mxGeometry x="626.02" y="335.11" width="50" height="28.89" as="geometry" />
        </mxCell>
        <mxCell id="UFaXmECFwQH_9bim80W3-30" value="" style="shape=image;verticalLabelPosition=bottom;labelBackgroundColor=default;verticalAlign=top;aspect=fixed;imageAspect=0;image=data:image/png,iVBORw0KGgoAAAANSUhEUgAAAJkAAABECAYAAACS/JdLAAAEDmlDQ1BrQ0dDb2xvclNwYWNlR2VuZXJpY1JHQgAAOI2NVV1oHFUUPpu5syskzoPUpqaSDv41lLRsUtGE2uj+ZbNt3CyTbLRBkMns3Z1pJjPj/KRpKT4UQRDBqOCT4P9bwSchaqvtiy2itFCiBIMo+ND6R6HSFwnruTOzu5O4a73L3PnmnO9+595z7t4LkLgsW5beJQIsGq4t5dPis8fmxMQ6dMF90A190C0rjpUqlSYBG+PCv9rt7yDG3tf2t/f/Z+uuUEcBiN2F2Kw4yiLiZQD+FcWyXYAEQfvICddi+AnEO2ycIOISw7UAVxieD/Cyz5mRMohfRSwoqoz+xNuIB+cj9loEB3Pw2448NaitKSLLRck2q5pOI9O9g/t/tkXda8Tbg0+PszB9FN8DuPaXKnKW4YcQn1Xk3HSIry5ps8UQ/2W5aQnxIwBdu7yFcgrxPsRjVXu8HOh0qao30cArp9SZZxDfg3h1wTzKxu5E/LUxX5wKdX5SnAzmDx4A4OIqLbB69yMesE1pKojLjVdoNsfyiPi45hZmAn3uLWdpOtfQOaVmikEs7ovj8hFWpz7EV6mel0L9Xy23FMYlPYZenAx0yDB1/PX6dledmQjikjkXCxqMJS9WtfFCyH9XtSekEF+2dH+P4tzITduTygGfv58a5VCTH5PtXD7EFZiNyUDBhHnsFTBgE0SQIA9pfFtgo6cKGuhooeilaKH41eDs38Ip+f4At1Rq/sjr6NEwQqb/I/DQqsLvaFUjvAx+eWirddAJZnAj1DFJL0mSg/gcIpPkMBkhoyCSJ8lTZIxk0TpKDjXHliJzZPO50dR5ASNSnzeLvIvod0HG/mdkmOC0z8VKnzcQ2M/Yz2vKldduXjp9bleLu0ZWn7vWc+l0JGcaai10yNrUnXLP/8Jf59ewX+c3Wgz+B34Df+vbVrc16zTMVgp9um9bxEfzPU5kPqUtVWxhs6OiWTVW+gIfywB9uXi7CGcGW/zk98k/kmvJ95IfJn/j3uQ+4c5zn3Kfcd+AyF3gLnJfcl9xH3OfR2rUee80a+6vo7EK5mmXUdyfQlrYLTwoZIU9wsPCZEtP6BWGhAlhL3p2N6sTjRdduwbHsG9kq32sgBepc+xurLPW4T9URpYGJ3ym4+8zA05u44QjST8ZIoVtu3qE7fWmdn5LPdqvgcZz8Ww8BWJ8X3w0PhQ/wnCDGd+LvlHs8dRy6bLLDuKMaZ20tZrqisPJ5ONiCq8yKhYM5cCgKOu66Lsc0aYOtZdo5QCwezI4wm9J/v0X23mlZXOfBjj8Jzv3WrY5D+CsA9D7aMs2gGfjve8ArD6mePZSeCfEYt8CONWDw8FXTxrPqx/r9Vt4biXeANh8vV7/+/16ffMD1N8AuKD/A/8leAvFY9bLAAAAOGVYSWZNTQAqAAAACAABh2kABAAAAAEAAAAaAAAAAAACoAIABAAAAAEAAACZoAMABAAAAAEAAABEAAAAAAE0dfYAABkJSURBVHgB7VwHXFRHE//DwdHsLYq9ix2NHRWN0aix964YTYwtscXPaCwxMbbYEnvH3ntX7I0IRkWNLYqC2LvS3zez8B7vHXfHYeOiN78fvNnZ2fL2ze3OzM6unUQAG9hG4B2OgP07rNtWtW0ExAjYhMwmCO98BGxC9s6H2NaATchsMvDOR8AmZO98iG0NONiG4MMegZiQw4i5shWxj29AehqG2Kd3IT27Dzu39LBPmxV2qbLAPn0u6PLWgi5PnXcyGHY2F8Y7GdcUrVR6dR9Rp2ch6uw6SA9DLO6LXepMcCzVFI6lvyHhc7e4XFKMNiFLaoT+Y/lRAdMQsW88EB0JuzSZoctXBbqMBQDXrLB3y0xvQxpS1DPEBB9A1L/HId2/YfQN9dX7QF9piNG85BJtQpbcEbNW/sgnCN/cFTEhZ2g2ag6HYm1hn6l4kr2VXoYh+vxyRPovgvQkTMOvy+MJ54aLYefKwvn6YBOy1x87qykZ++gyIjZ3h0NZHzgW6/Da/Yo6MweRfmMhvXqu1GGXOiNcWq20SGCVQgaITcgMBuS/lox9egPRgbOgrzgQcEpvsvsxIUcQG3YKMfcvQnocTEupO3SZPWD/iSd0Ob2VcqzPha/vQMtpoEKzc0sLlw7bYJ8uv0JLDmITsuSMlhXyRl1cDscibYz2TBgAgdMRdW4DGQChRnmYyLqbY7EGcCzbkxT+7IIvfGtXRJ/dqpSxS58Nbl2PAg4uCs1SxCZklo6UFfJJrx7AziWj0Z5FBfkics9IsfTp3IvAjtwU9qmyIvblQ0gv7iH29gXKe6ot6+gMp5o/wNGzh6CHb+6E6KCdCo++YmfovX9T0pYiNiGzdKSsgC/y8HDoeHkr2Nhsb8K3d6eZ6zrpaF3gmP9LwDG1Uf6ooCWI/msWYm5f1uQ7FKwK52arBe3VYm/EhF6Evlwr6KuNVuqKCTmEqKBVcK49TVPWWMImZMZGxUpp4Vu/oiVsCxwKVYdTncnkUM2WqKcx13fRkuYEXY7qifJMEaL8JyJi/2QgJkph0VfoAH2N8Yh9cp1mvDvQZa0Ql8dW7L5BiD69kZy3nnBpvV0pYwqxCZmpkbFCOs9Q0X9viuuZ3gVO3v3hWKaXxT2Vnt9E9M0DkB5dJz0sB3TZq5C3v6AoH/vwAl4tawbp+cO4+hxd4NrtAOzT5FLqj7q4ApG7h9Ny+0TQdHnKkpAl6G0KowHyUQhZUNB53A67rbx6oUKFkCtnTiXNyOPHj3H9+g2ULl1KQ+fEnr17NbRan32mSScnceLESTx7/kwpUrxYMWTNmlVJm0N4lgrf3Ic+8mOFTZfdA071p8M+g4dCM0TYFxa+5WvEXDthmEUzXnE4NZhFW0z5IQTNtyFZnIXgVG+GImDS8xCEb++JmKvHE8qzkNf9GY4e7RNoJrCPQsg6d+mKXbtoGYmHgQMH4Pvv+spJzJ03Hz/9NFykPYp6YPPGDXB1dRXpJ0+ewKOo1qkZGnJTKZtcpFLlKrhxI1gpNm7cWLRv11ZJJ4lEvUDkoWGIPLlMw6qv5AN99V81NE7EPrqI6DPkUE2Tk4QmB2LuXSBh2Y2Ym2cVXjvnVHBu6QudeyUS4NuaZTjKfwIiDv5JuwSvFH6H4nXJQBhLTtosCs0c8lFEYdjZaYfATkV48eKFImDMdeH8BUz7gwY1HtS8Mu1Nnm9cn6Mb9DV/h6vPDtKTEvxWkcfm48XsMiQ8+zXds0+dWwgfW4y6/A3InzYILu12k99rDVmccTqdFP6cZrkdopys58XePY1XC70QsXeCImDM79JuBZy/XGCxgHGlH4WQxcZqjzGojzXEaj5JXIJnLxliYxNzqMvLfJY+36Ssug37LKXh0vkwnD4fAjt93KzLvrBXS9vQ0tYNiIhfUk34tXTZvUifWg9dlvxC4PReI+Oqjw4nr/9AvFxYHzFhV+JoOkfovb6BW7cTGsetuj/m8I9CyOzttVOZejZJ7eaGxo0bKWOUOlUqdPXxUdL29omHSF1eYbQQeZOyiZuwIwdqH7h+cxQOHjXjsyUyDjbTrFYBUReWJi6iotinzQMXnyNkAHgJKut8L+aWR+QJX1pnYwRNl7MUGQD7SchG0JSkV5W2HLXFk9FYTf/zD9StWxdXr15F2zatkSWLZbqG5cP8bjntKMLCudEyxJTei/Ct31Hc2D1hAUZs7E8uj5Vw+mIa6WO5TXaCnboRe/ppHK+8laSvOYx2ApJW7E1WHJ/xUQiZueVSHqAGX9aXUc3T1HL5ujPS21ouNZ2MT+hyfwa37v6IPDKKZqPFNBtFk651Ei/nkF+tWm84lutHnNpZPersfETuG0O+sHiL184eDqUbwZk9+05pjTWTbFqyhGzzlq04evQo7ty5g/v3H8DF1QV5cudG/vz54OnpiXKffmq0A7dv30bQ+fNKXprUqVG+fHklbQwxdBtUrlRJsfgM+ZcuW45169bj+fPnSJs2DfLmzYsa3t744ou4SE+dTrvkGS6BR48ex8tXL5RqS5UsicyZM4u0TqdT6DIiC9iFCxexfv16XL5yBWFhd8ACVLlyJbHcZs/uLrNrnnZGll8Ng0Fix46dOHvuHIKDgxF88ybCX4XDUe8ArypeaNmiOfLly6ct4eAsFH2Hkp0pMoPcFqEXSHEPJwV+PM1U68g18Qfss3iSk/UqIrb0IEPhjFLeLlNuUuqnJjhelZw3QywSsvkLFuLXMWPw8sXLRK0dwiGFlidPbvw+cSIqVoz3Dsfn7CT3wZAhQxW+/AUK4NABPyVtDOnYsbOGvN9vL9i/pYZVq9Zg+MgRePI4QVHn/MOHj8DXdwnc3bNh6pSp4uOryxnOJn3InREaEqqwTJkyGS2aNxNpQ14m8g+sV+8+OHjwoFJGRs6cOYOZM2ehBQnAlMmTZHLC08Kz1OMnTMT0GTMQER6RUFaFBZwKxNSp01C+QnksnD8P6dKlU+WS+pS+EFw6+iEqcCYiD0yAsCDDruLl/LpCf4u+RN9N9vA76GnLqDf05Qdq6nhbCe1P3EitEydNxtChw4wKmCE7OzObNmsOP7/9hllvPT17zhx89/33iQRM3VBo6G2069Ae1/79V01+Y7xlq9ZGBUxd8erVa9CExuJ1oGevPphE425KwNR1niTnbp269YTgq+ky7uhJVmEPfziUYHUgbqmMvrBPETCHgl5w++bIOxMw7odZIfsrIAAT6ReVXPi+X//kFkkWPy8bI0aMsqgMf6jLl7QbwBYVNMN08eJFM7kJWSeOnxCO3gRK0tiY38aKJThpzgSOm8E30b5DxwSCIUZxZs7158X5xjLELeMiGLHlXNoIJ39ZKu3uh2HxN02bFbJtW7dp6k+bLi1+/30C/rl4npaXm/jL/wTmz5tLy2NFDd/du3excWP8Hpsm5+0kZsyYmagisTROnYKzZ07j79MBWLVqBWrXrp2IjwmyTmU00yDfFG/u3LkwedIkHDp4AFevXML6dWtRo4Z3oioXLlykpakcwdqMuK2t2bPnaMhOTk7o1fNb7Ni5XYz54UMHMHHieHzyyScaPl6mWX8zB7xX6dY9gLahfoHb139R/D9FaLwHMCtkPw0bitmzZyom/cqVK9C6VSukJsWdwd3dXSjX69auJuU/v6a7fvv3a9JvM3GEjA81sMvBb78fmjdriowZMwql3atKFSxcMA89enyjZhW4MT1LzaTOV+MyDyvbx44eQcuWzYXR4+LiggqkGy1d4qvxuTH/tWvXcO/+fbkoSEFMwA2wjRs3IyJCq4P5+i4iffZ/KFk8bmuL227TujX27tmlfBe5mlWr48Jz5LSpp2OJrq8VfGiqvqToZoWMC39Zvz5OB57CokULlBc1Vqm3t7eG/O/165r020zcuR2mqW5A/35gp6oxGDb0R/AM/DZh+PBhJqsbS3uRhsBbVZbAuaBzGrZPy5YlK7KKhiYnMmTIgLZt28hJ8bxCfj5rhCSFTO7057VqyajRZ66cOTT0p6qtGU3GW0g8I1eFGipW0i7X6jzGi3oU1ZBMLYEykzpfjcv5FcmdYgpY2IsULqzJDr2dYLnSWq3JUyd4H1UNuWhJNgfFimnf69GjR+bYUyzPIheGYe8MQ2c4n31FKQVp06Qx23SaNNrIUGNLoLoCdb4al3lMzZpKPvnq1BAdFZ2QNLNcGjp+eZk19BcmVESb+Re0M2R0tKodNWMK4xYJGesVc+bOw+EjR0nJTTlhSuGxeu/NHzpIXkj6+69DkkK2YuVKDPlxqPA0/9df1tb/lBkBs0I2afIUjB9P8UQGkJOiStnDXIA89xkzZRS55yn6lLecbGAbAcMRMClkV69eSyRgbD5PpS2XMmU8DevBnDlzrVbIDNUgY3qW+oUkVfxZUrzqcgpu0KCl9Rm21bJlC/LF/a5U+19FTFqXCxct1rwTz1zbt20xKmDMaG7jV6/Xa+qKiorUpN80kZRV9fDBA00ThhvkmkxK2OsShsUY77179wyLaNLPn2utRAfa0JbB3Dg5ODjKbOJprYq8ppMWJBJG04CZY6vU4OHhoThh1XQZ/9fM/mCG9BlkNvEMphj3p0+famjqBM+i5iB9+vSabEPnrCaTElevad/FMD+56YCA0yaLsBvC0OrLlCmTSX51hqx6yDQep6QgKYFPqvz7yDcpZDHxkZFyJ4LOB+GBwYwg5126dAkrV62Sk4meRQ38OczAe3TGgD/SwEE/GMtSaNkoukINkyZNMSm0o3/5FY8eJZzuUZd7XXz0L7+YLDrwh8GJ8gobRI8kYognlCpZQpP116lTZNEf0dDUieO0N1q+QiW0bN2GAi7N/zDV5d43blLI8pP+pYanT56iXv0G4NitmyEh4P3Jrdu2YfD/hqDelw3MRmnw8TPeW1TDIlqOB9EH4VguhoCAQEygMKEKFSvj+PE4mppfjVesUEGdpAiE+6j5WS2sXrNWRCOwf+nQoUNi03j69Bka3reR4FmeTx1xqBF/3JcvX4r3aNO2PTas36BpInuO7MiVy7xTVS5Qu04dODk7yUnx7NChE/iH8vfff4t22J3E+8IDBg4SES+8DXX40GFUrVYdu3fv0ZS1lkSCsmDQoyZNGsNwc/cmRT8MpJd7HejSpQt+ocFSw5IlS8F/yYXu3bth/vwFmmIc1tO373camqmEoYJtyKfOV+NqPj7WxqFGSUGXzp21LAZGgTqTnbzf9ughwnxkOgsR/1CS+rG4U5Dk55/XkotZ1dPkTMZRrs1ow9kScNQ7UgDdFPCLmoKe3/ZAJTPbMepydet+gU6dOqpJGpxnRt40tgTYYJlJwX/cRxmMbRXJefxU56txzvv66+7wqurFaJJQrtynJDQGG/RmtpW4woED+ouAxyQrVzFky5aNfnTzVBTrQk0KGXdzGglOh44dzPa4arWq2Ll9m4iAmDnT/NK0ds0qERXBJ4KMAW/6jh79M+bNnYMxv/6CAgULGGMTNA5/GTVyBFzd4o6DGWOsV7+eiFZo2PBL9OnTxxhLsmgFCxXE8J+GYdWK5Rg8+AezhhD/QDduWJ+s+mVmjqidM2cWcuTIIZOMPjNkzID27dthP0UZy1EaRhlTmGjRCXLWvzZt2oyNmzYhivbhMpEDNk+ePOLkc5EiRTSvEBh4Gg8ePkAa2k8sX66cJk+d8F28BIeOHEYYRVSwIl+OeL/q6qNmQWhoKM7H78+ZivFnfWjrtu0IDAwUvK4uriLsqDPNhHz2QA3yPqDhNQXmYvy5vFyuKFnYHN4kA7fNy3Yg6Uv37txF3nx5UaJECdShswU5s2eX2TTP5F5TwDFiZ86eFTH+rK6wpVqcwn4+/bQsqnpZNqNqOpACCYuELAX6ZWvyAxoBs8vlB/SetldJwRGwCVkKDv7H0rRJF4Y8AL+O+Q0HDhzEJ1k/QeNGDdG0SRORNWLkKDqiVhAbyGdjTwdCW7RohmZNE1ujrFe1bNVGhCHnpfOQQ4YMRv169TCTYtm3bNkMNvGXLVuBpk2bIAN58ucvWCBCmQf0jzuMwgck9u3zE9GtnTt1wg+DBoIPcvT9rp/cRfHcuWMbnj17hlE/jwZHiH5WowZ69eopQp/bt++I1q1bku/ssFDW+/bpnfi8ItXC/r8/pv2BS5cvC32ye7evRDg3N7B9+w5wePML0sMaNmig3MTDvjk+2HKezpWG3ApBBzodxfrozFmzUKhgQXxLVnVBCiRghzWHS+UmnxnrkIULF8J3ffsI3Zbr53oWLloEZydneHtXQ+9evZgs6OLcalAQne0MQ82aNcH9Z1rf7/sJI0Qw0r/mLVqRJT1d6MwyzSqe5AcyCX+fPSuRN1m6e++eREquVKFSZencuSDB37Zde6lho8YCpy0lKX+BQhI/DaFb96+lPHnzS75Llkpf1Ksv5c6TT9RFjlgpm3sOqUnT5lLJ0p4Cr1W7jlS/QQOB+/kdkBYv8hX4sOEjJDoBJXBSwqWQkBCJaT179Ra04iVLiWYbNm4ilS1XXvrjz+mCPmXqNOnGjRsCL+xRVGrVuq3Ae/fpa9hNkeZ+TPh9ksCXLV8utWjVWuC79+yRqlb3lk6cPCn9888/4r3/nD5D5E2eMlUqXaasRAeeJfpBSYWKFJV6fNtT5HH/yVEtcP9Tp8Q40G6GdO/efWnkqJ+lUqXLiDz+16BBI4kc0iLdoVNniQIOBC7XfyM4WKQrV6kqLV22TOBe1bylU6cCBH7s2HGpZq3PBW5t/8wul2wWr1y+DNfIq837g3xZW8CpAOXH0apVS4GzpVmqVCmco1+bIbA5zn4q+tjgDd/IyEg8fJgQJjx/3hx07BjnExs9apRy2QnvbXbo2F6cOspCp7nlTXC2sNjCGzViOP2aw0Rzf06bJmYK/5P+aNq4MdgnxyHQakdvo0aNsGJ5nOP3sZHQcPaWZ6Q91v7fxzl0+bAGuyoYli9fAZ8uncXsxpYpnynYsGGjyON/1apWFYc62F+VnfrWLv6+sWrVqwrrWWZMlToVxo39Tcw0fEiHfXdsbTJs2rQBHEjAlizXE3D6tFxMWJHypX3169UFRyYz8MGZNWvXCpyfTejdrRHMCtk+Pz+xfbKFjsYdpKXmwYOHiJFilPdgd4EMzrQdogkzjs/wXbIEXXx8cPbsOTpaGhffHhMTLRcTT6f4KA2uQ+bhDN5q8vHpSvuiCadwoqPj2p8xczaOHTsG9v5XI18dX53AoKflhiE1hVzfunVL4PwvbfwJK77cLsZImDLvb2alj2sMeBlOmzbhMEpaWtafq25LdHBI0Drs6AYhJ+e4PrAjN1aKVarMnCmzgjOSLWs28eNhlcKranUsWLhQjPO/tHUkqa6s4tNQMriRj1GOzmjXti327t0nsvbu2ycui5H5rOlpVsh27toNngF+HjVCzByuqpe19CX4Qjk+EMGzSLr06UQx1i1kMIxrl+n2OjtMJf2Iw2bWrl4p7trgPN6nvEw607hx48RMwAPOukzh+MMbtJSKKvhuCt43tBQ8y5TGxX8uKux8veeEiZNEmv1S6sgLnjE9ihZVeC1Fgm8GC71R5r969Yrwq/n7/yXOUU4YP06MMweDWgLCX5k3j4jl4xmWndnWCAk/QSO9q1G9OvoPGIAXdAfG3bt3xKa4ETazpBzZc4jN3dp16tJ1AdcE746du8yWkTPzkXOToU07umogPsqAjRCejfiPPeL8gXi2LEPHx9j7zRev8EFXXlZH0pJqKbByznfBNm3WAsVLFCdj5wBdaNJCFGcFnfRJhIe/Ah+23bFzJ6kRcUuppfUzn5PeCaTLwrNMGZymWZqvq+KLWXS68hgwaBD69R8AnhU58oIvfbEE2tA5WD6xP2HCOEvYU4YnKSWRPPgSRQFImzZvkchCEsotl2GjgA0CGQzTMp2sIKGkDx8xUmLldeHCxSJr167dgs6JEydOCJx2FoRizUo9WXiCb9z4CSKPLjeRtmzdKtFMJt26FSLyuE2yPKXgW7ckChEStHXr10vcFivdDHRrolKe06zYr1q9hlGjQJEl0thx48X7qRlIJ5TodLdEIelK+5zP78TjIsNJf3+J9Ek5KZHACJwVf1bMWbnn9+N+qoHr4b6RBSrG+Pz5CyJb1B8/FkwwTPO7FypURF2V1eF84817h+kzZkldu3WXKHzltdrmgR0/IU74ihYrIbElau0gC9nb7Cf/yHy6fiX9OHTY26z2rddldrl8V3Nrj2+6i3sbWrdpRwdRMuGzmjVEmEqVypUtajKSLlFhC9WjcBEUpduqy5b1tKhcSjIVJp/Zb2O0oU5v2p8LZGV2IsucDR9rhhTdu+QLgPkeLnY1sGuDge84y5bNne6zyCQ2g+3pErpIiqliS5HvEAul+/j5tNSQwYPh4VEE82iD+schloX9WPOH+JD7lqJCJg8sR3mwm4TdHGzhsQXJ1t2L+AMZ7E/iqwb4UpN2dP9DQZoVGDgCNrOF8fNyW7bn+x8BqxCy9//athbf5wiY9ZO9z47Y2vpwR8AmZB/ut7WaN7MJmdV8ig+3IzYh+3C/rdW8mU3IrOZTfLgdsQnZh/ttrebNbEJmNZ/iw+2ITcg+3G9rNW/2f6oMh8oXI2F9AAAAAElFTkSuQmCC;" vertex="1" parent="1">
          <mxGeometry x="494.1" y="399.89" width="87.75" height="39" as="geometry" />
        </mxCell>
        <mxCell id="UFaXmECFwQH_9bim80W3-32" value="" style="shape=image;verticalLabelPosition=bottom;labelBackgroundColor=default;verticalAlign=top;aspect=fixed;imageAspect=0;image=data:image/png,iVBORw0KGgoAAAANSUhEUgAAAO4AAABNCAYAAAChZlhiAAAEDmlDQ1BrQ0dDb2xvclNwYWNlR2VuZXJpY1JHQgAAOI2NVV1oHFUUPpu5syskzoPUpqaSDv41lLRsUtGE2uj+ZbNt3CyTbLRBkMns3Z1pJjPj/KRpKT4UQRDBqOCT4P9bwSchaqvtiy2itFCiBIMo+ND6R6HSFwnruTOzu5O4a73L3PnmnO9+595z7t4LkLgsW5beJQIsGq4t5dPis8fmxMQ6dMF90A190C0rjpUqlSYBG+PCv9rt7yDG3tf2t/f/Z+uuUEcBiN2F2Kw4yiLiZQD+FcWyXYAEQfvICddi+AnEO2ycIOISw7UAVxieD/Cyz5mRMohfRSwoqoz+xNuIB+cj9loEB3Pw2448NaitKSLLRck2q5pOI9O9g/t/tkXda8Tbg0+PszB9FN8DuPaXKnKW4YcQn1Xk3HSIry5ps8UQ/2W5aQnxIwBdu7yFcgrxPsRjVXu8HOh0qao30cArp9SZZxDfg3h1wTzKxu5E/LUxX5wKdX5SnAzmDx4A4OIqLbB69yMesE1pKojLjVdoNsfyiPi45hZmAn3uLWdpOtfQOaVmikEs7ovj8hFWpz7EV6mel0L9Xy23FMYlPYZenAx0yDB1/PX6dledmQjikjkXCxqMJS9WtfFCyH9XtSekEF+2dH+P4tzITduTygGfv58a5VCTH5PtXD7EFZiNyUDBhHnsFTBgE0SQIA9pfFtgo6cKGuhooeilaKH41eDs38Ip+f4At1Rq/sjr6NEwQqb/I/DQqsLvaFUjvAx+eWirddAJZnAj1DFJL0mSg/gcIpPkMBkhoyCSJ8lTZIxk0TpKDjXHliJzZPO50dR5ASNSnzeLvIvod0HG/mdkmOC0z8VKnzcQ2M/Yz2vKldduXjp9bleLu0ZWn7vWc+l0JGcaai10yNrUnXLP/8Jf59ewX+c3Wgz+B34Df+vbVrc16zTMVgp9um9bxEfzPU5kPqUtVWxhs6OiWTVW+gIfywB9uXi7CGcGW/zk98k/kmvJ95IfJn/j3uQ+4c5zn3Kfcd+AyF3gLnJfcl9xH3OfR2rUee80a+6vo7EK5mmXUdyfQlrYLTwoZIU9wsPCZEtP6BWGhAlhL3p2N6sTjRdduwbHsG9kq32sgBepc+xurLPW4T9URpYGJ3ym4+8zA05u44QjST8ZIoVtu3qE7fWmdn5LPdqvgcZz8Ww8BWJ8X3w0PhQ/wnCDGd+LvlHs8dRy6bLLDuKMaZ20tZrqisPJ5ONiCq8yKhYM5cCgKOu66Lsc0aYOtZdo5QCwezI4wm9J/v0X23mlZXOfBjj8Jzv3WrY5D+CsA9D7aMs2gGfjve8ArD6mePZSeCfEYt8CONWDw8FXTxrPqx/r9Vt4biXeANh8vV7/+/16ffMD1N8AuKD/A/8leAvFY9bLAAAAOGVYSWZNTQAqAAAACAABh2kABAAAAAEAAAAaAAAAAAACoAIABAAAAAEAAADuoAMABAAAAAEAAABNAAAAAEgCpb8AACvsSURBVHgB7V0HfFTF8/+mN0ivpJIQCIRQAtIhdGmCgChVFLBRFMWGICCiqD/RH5afDeQnKgICUpXee0sogUACJCGkEVIJ6cl/5h13uXf37u5dQvyFvzefz8u93Z2Z3Td583Z3dnbWrIoAJjBJwCSBh0oC5g9Va02NNUnAJAFBAibFNb0IJgk8hBIwKe5D+E8zNdkkAZPimt4BkwQeQgmYFPch/KeZmmySgElxTe+ASQIPoQQsH8I2m5psksBDI4H3fl+ImOsxyC7IRm5+LqytrGFjbQMb4deWfm1ga22LFoEtMKX3FPg4e8t6NjPTOq4sOZmQTBIwWgJ7Y/fi1e9ek00XHtwSq2b+IgvfNFSWJSYTkkkCxksg+kaMUUSx1y/Kxn9oh8plX85H1eWLqEy7BRQUAGVlgK8vzP38Yf74BFh26SdbCCZEkwTqQgIXEi8YxdbSQr46ysc0qgl1h1z29fuo2LoeuHdPu5Lbt1FJDpyVX3yAyu3rYL3wO20cU45JAgYkkHg7EYlZSUi+nYyKynL4ewSgb3gfA1TaxXFJcdqZenJcnVz1lIqLHhrFrTy6E6WfLwQyM8VPoJ4qLSWFLgTsHVAZfxWlLz4O6283qmOY7k0SUEkg7lYcjsUfQ1zqVaRlpSItOw2Z2drvV+eWnY1W3MKSQhSVFKnqknPj7uQuB03AeWgUt/T9N6V7Wc1H5Z6YFJehMi8PxaN7wnb1fiFt+mOSgLoE3lu7EJduXFLPkryvqKiQzNeXmV+Ur69YsszDyUMyXyrzoTBOlUzsL09p+Qm51y0vr35WMzNS3qjqtOnOJIH7ErhXIjHdkpCOp4unRK7+rPx7ZHcxEjyd5ddT7xW3bN6LqEpMNE4EJcVifDNzFLPym8AkATUJ3JM5lPVy9lKjknebX5wnD1ENy8tJfj31fqhccewwboUFo3H3SIB6z9pA5a9zqsktLWH+GK2x2TtV55nu/lESKJapuN7OPkbLpSa73L1d5DlfcGPqt+Jm0FIPDX1LY67g2PVbsA/zRdPWLWBnZ2e0IEUE5Kli3utpk9KKhPLPSnD8iKJiecYjHxfjFbeBbQOjBSrXa4oZ12vFLT+yXXh4PxtLpGblYsfmeBRvO4TAbu3Qqmkw2vt7wYZ6TmOgxNUHdwPCUUzmfncSrl0DN2PITbj/TyTAxqOyclr7lwENbBTGThmoKhRHO+MVt5FLIxW9oRvj3npD3B5weWX0SYGjFQ2Rw+ysscfcHMkhQUhIy8aZwlKcLS5BqG8AAgLCYEEOGFZVZbCsqoAZzS+K8rJgQ/gWRFtp64BSpwDk2ruiQ7+RUPbXWcnnYWFhBWs7xwfcchO7+i6BguK7spvo4uAsG1eJ2MC2ofJW9q8xilu/jVPZd1QP7WZlgYIm/jCzsoI5GZvCmwbAmoRjG9IFGRYuSLX1RJKdL67ZByDBNQLnrdyxMTkNf2Xm4Lp7S9y08YBP0zbYvn07hg0bhiNHjsA9oBUybxrn3aJqkOnmoZbAXSOWa5zta6K4xvW4zYOaGyXPet3jwkL8XTH39kCDkgoU3iuBOfWmvo1boIpdpe7Dpq078NPPv2LjulUoJ2VmsCJFh6UtPD0bwT8wBJHtOyErKwu9e/dG165dUam+dHSfT21+LqbEgn1U2dDQr6Xx3jbKukvLS3HxViyaeIbA0YgRwZnrp3Hy2hm0CWqN5r5hqMlLp2zD/+o3JfsWEtITcC3jGtJy05FbmIu8wjwyd5TAqYEzXB1cwEsnoY2aIsQzCMEkI2Mh34ge15l63NsFWbiTn4WcolyUq63rdm/WVbJqS3NLYSdQaRktT8qAVsGtZGBVo9Rbxa2g+Ucx6a11dVthTjpqS/NdD9eGaBriBycPL5RUsqVZobzLV6wkT8h7+PqbHxAdfQ7Tx3aCPRmyWrftADcPH6SlpQlKyyxnzpyJ2bNnI/Z4zT2rWEkvpVzCldQruJwch6s3r5DLdPW8acbwGZjSa7LaE0jf3iAXu8u3iM+tq7iaFo8badeRdjtNQG4SEIpfXl4JO2vlAF+aB+dGJ8Zg0r+niBACfQIR0qgJmvk2w4t9nxeVaSb45TwWfxw3Mq7TlUieRKmkMPkouJePu4V34digIRzJCs/KE+bXDE28QxDm2xyRjdtqsjI6fejKEWyP/gsHzx9A/l3j1kADvQMxoP0APNFxJDydpNdC2Utq4e+LjG4XE7R+uY1OurCgMKx5bbVkuZ2tHeQqbrvG7SR56Mqsd4rLvqHxp7bgxsX98EMhQtVarlwMKiurQAMHe7g1tEDoI4ORl5tNno4F1Kt6IpHWfNf/sRmDB/RG65YhsLN3hJWZQpl8fHzQuHFj3LhxQ+DauXMnWMpQCLUmCLfz1szH8bgTyLiTrlkkSq89+LtexeWX9b1V83E7J0tEp55ISI7H2uPrMLHHBPVsyfvVR9do5SelJYGvvWf2oJB6mVlDaAlMA1YfW42d0btxJu60Rok4yQrFV0pmCtR3srQLa4/+bftidOfRYgIZKZbBrwd+wbGLx2RgS6MkpSfhu63fYcOR9ZgyYIpkO27fvSNqszQn43NTbqfoJLKzsUNegbz13FaBD3mPG7NnBdKTLtCGn2LcTbkjUlzlwLmYlogys7JpuByHkNaFcHP3FK61a9figw8+gJeXF4b3CibDVCFKiwtx++ZFNHTzpWVgC5w6dQorV66Ek5MjurcPgl9oF52C11UQe/OSQaVlWlbs1cfW0Iv0lCSr9cfW6VVaJdHphNMGFTc+PR7bj/+lJJH87d2ytyh/46mN+O3QasQlxonyjU2wwvO199x+zBg8HRH+LWWxePPXt7DjxA5ZuHKQ+AO4+LePcPLqaXw28VM5JLXG4ZGILpAzSmLaAO8A2RvolXUpdUGZ/p/+ZiSdF5T2XNxNbNl3Dr4eYmuv2f3prBlZiuMSbpJnI1mW9/yALBqylpKxIbJtG6xcthTTxnSCHSmtElKuHkfc8fVIurgXuUnH0Ke9Dw3xgCbhUTCzsFCiyf4d3V1+z7IrZrdOvpP7GB5GM/GFG+dRTiMRfbDz3E59xWji1wRtg6qHfFOXTcf8nxfUWmnVKz1x6Tie//J57I7do54tef/8ty8+UKVVr2TPmd2Yv3aBetb/5N6eVjPkQIugcDloIpx6NVTOTksQGnflRiYeifBHVU6+qLH8lWkS5IvwZo0VRidKl9D8K/aI9hCRCRd9tRkjB7RH8yaNsOjjL9AsuBGiOoZxEc6cv4ouj8pTHIFA7c8omkv9Z+t/kJ1XbfVWKxbdnr58Cudp2akVWbA1gXumVk1a4XzCec0iUTonLwdHrhxFVPMeonz1xMHYQ+pJrfvBHQar8sb+e3ydDBu5gnvF97Bw1UK4v+CONgGtVXWq33R+s4uAp573oO83Ht6IIK8gPBv1zINmLeLH835d0My3qSw5h/u10MVCZ3696nGL7mYLDW3cyFX4rVBOau83PzDIB57uHhg/6zusP5KDpOIQLP7xGE5czkFBYZHWQ86Z9hjirqXiyvU0dG4bqlLatMpmyLtbgbLSe1o0cjOGdKxWBEM0f5LRRRc83Zs8uGTAifgTOrGOJ5zQ23N6u/tgdJenBHo2tKjPT3UyrUUBz+v+vXmpJIehi4fVudIqK15zcC1y7+Uqk3Xy6+vup5Nvc395ChkREKGTh66CetXjOtx35g5v2gi30qk30/BN9vX1wdT3VyGD1ma//fY73Lo1D7+uWoU3F3yJzz//HDeir8Gy8i56RnqQ5dOOyM0w/NH2omdftSMBbt7l2LbrNJ5LjIZfU2lzvohIIjGp1zP4bd9vIiuyBJqQdYAspW8OfZ3Wn7WH5f1a9oWvpx9ukcFHH3DAMV2w+4L+oengDoNgb20P7mn/Loi+ehZraH7/lNr8fsHa9wRD2d/VhrTbqVi+90eVQc7Z0Vn4fzk3dIZzAxdZH7C2Tdticr8pOpusazmICXg5zhD40GqH+hTGEL6yvF4prk/jSFw/t5uWcGzg5+2GqnzxxN/c3IysdIpekpdd2rdvj7CwauEMGjwEAwYMwG2KhNGvbx8MG9QLtuaFcLKtQlJWOVq07UnLR8n4+OOP4eHuhHu52pumlYIx9Ovi4Ir+7fth27E/DaEilV6gzWe34vF2wyRxWwS1MKi4sddjEZ+RgFCvJlo8Dl88rJWnzHChqAqsPEu2fibrRVXSPYjftUfWqRT3bkkBdp7RPw+XqpMts+GNw+Ha0BVujm7IKriDm5nJYGuuPsOQktfRuGOkuAAr2IFF+5XZ4J5fDtjb2gu0cnA1ccJ8moHD0ZRXlGsWqdJdw2vWcdQrxXUky2/TR4Yg7uQW2khgQ0s+4rXLgvwCODW0R+H9YXFycjL4Gjt2LLp166YShoeHB5xdXPHeYsVwjT2luEf+4YcfsG7dOlRWVsIcZjC3JOeMWsDIjiNkKS5X8efpPyUV93rmNew6Ke+F3n1+D0L7iRX39xPraM03VedTjOw6Al60tnniiu6hti5iXkOOCu8O94bucHf0QHF5ibDGey39Oo7HHkMJOUToA17KukLRJZqRo8T+S4dQWFRtMNRHx2WRzdqhZ0RPvdb09zcswrr96/Sy4jawQ4efK1kj1eAerTbIAbkGJileVvR+NfZtjHhqgy7oE9FbV5He/HqluNzSkFb94EhCvnxiE6rMUkSNT09KxbvTHsfUecuhvm3qt99+A1+8Tjto0CChJ87OzsbixYtx+fJlnDlzBiEhISJevj4usKXhUm2gXXB7dG3VDUfOHzbI5kTsCRyMO4QeYd1FuP/dt1KU1pc4RAaol/q9IELZdkp3j+9HQ/BJvZ4FOx9cSboiotOXeLr/0+ClI31DOPbQ+viPfxnke/DyQUFxt5/VPc/XbAvXL7XerIn37oi5CHQPxJJ1SzSLRGl2ktFU3MIiefaNmmwwUK882CdEp+Kypb9LDZYjmb+5eiX15d6DrGw9Rs5GS5dgUZMKsvPh5mKH2VMfF1weRYWUYM+o5cuX46WXXsKFCxfwzjvv4Oeff6a5MG0P1IBp4/rCzVee8UCDVJQc1kHekIuJNhz/Q0R7ml7+TUc2ifL0JdioxN5RSuAPAc8ldcGo7qPgQDtbtkXrVm5N2g+e/UBQGn1KyzT80Vo6eSl43qgPUu4oPr5XyKtMDswfP1+W0ip5PU2OKcG+4vdEWab8zcq/rbxV/bL1Ww44yFzS0cWLvct0wajuT+gqMphfLxVX2WoLivKuDmbk2hgTG49+3Vpi+UfPwcVZYYrvSD5WX6I/aPGH/oZgCJqiOTzVSUX3oY0bIfKRjrAjn9fawqM0QuhEwcTkwL6ze0WK99P+lXLIRDh7aS1aCZtPb1Heav02C2yGZ6ImCvmJmYla5VIZCye+hyFt5VvLef/o0E5DpVip8u7QnLSsskwyCJsK6f4NG4JGdBiumW0w3S28epokhZxFrpzqUFRWrJ7Ue9/QCD9xKUahPk2kstE6tLWkh5ckskRmvVZc2nMnajKvDuUXFOL85WtoHOCJP76dicd6tUcvBJCyBqMdvLACj6IcldiNJ/Ai5WiCm4sjvvngGTSO6KtZVOP0mG7yHTJ+JCsnwx/ktXQw5qDRde6NUSguuwrqmxuP7q5Y/uEKksmYYwg4iv4wHcYzfbTN/aqNg1J42QU5iCf/aznQhHyqawIN7RQfcF20ZRrGId60IBec7PXzNsSnV4teCPHX7nXH9hhjiFRvef1WXHOx4rqStZgh/vpN3ExVWIRnvTAQA1b3wYd9LuNzxOAW7mI59bsM76IjqXR1r9o2PBjrv3kFgU07kQukv4DzIP70bBGFqDZRslixsrKFdwF5LUmBlYHAAOwn3GNOFN5Y9roUuZDHhp0RHUaoylNva08VVIW1vEm5Y5h3icwdMhk1tPLz3N8YyDNCcR3tnIxhLYnbp3UfUf6YPmMwoPUAUZ6xCUtjCf5WfEux4nqlZCDdwgy5nt44GX0JHDYzyN9HaNK453oAzwGpeYVY8+M5WJ0tRVBZAwSSASqwuTdmPNMfnm6OaEjb7ULaDHzgjzGGvqAHYg7I4rty50qdeEM6PYY/DovnwprIhhzXJ/QcJyKxpkOmStV2LYkK7yeupSRIZRvMu3TzskEcb5kHWcWnXDXISxNh05lNBj3PNGlyi/I0s3SmeTdUbWFa/6m4Sju/eAdZp7COeHvYW7VlWb9D1/ByTYXaI/JQ2T/hBhxz8nC7USOcPheHtIwstGwejIYODgKms5MDQoYEIr1jLnJsrdG/vD1K6KXNv1uEth37CEprZsRRD2rV673t3KQT+nXor3f4qpcBFXq5eWEMDXFjaD/vjVuKHUyGaDTL+9Hacu/w3qJsXgM1tOZZXFpM+3hPoUPIIyJafYmfD/0Cnrfrg4Y01JQbSyktK00YjcixKHOdrLTzfpqvr3qhrFtz8RzYxlJsO9HHIDVH91KbPjrNsqXP/lszq1bpet3jVmkoGHtCMTjdyRaufGcn5GW6Yl/yLfgEByAsNFBQ4BahvuBLAWbwCoxAAPn52uvYq3kfsdY/47qNxe5TO0VLVcYwHRM1Gs18wjC041As3bDUGFIBl49wfLb3M1p0gV5BSE43PM9977f3sOTZT2kDhv55K1ew9K8v8ONfivm6VoVqGZ2bdRJSfdr1BTv/GwLlaGQsyVKXwt+hLXrf7PoOv+9ba4gdfQy90TGkgwjPmFA0KVk3RbTqCbYz6POcUsd90Pf1VnHLvpiPiuMHgUZKBQQGqd1rCSLxDkBXGW20L7W3oTVgM1gXUxwqiktlZncatstqbnrXqktHBi+hDOk8BFuObtWBoTubjUNPd39aQJjQYzy+2vSVMBXQTaFd8kSPJxDuF65V0L9tfxw6R7I0ADx/nrXidTzV4ynwMosUXKAtkl9u+wq8E0gORDVXzP27Ne8qS3GZJyvv5uObBYt1E1oHbU9LT1bmVoiliCCXU+Kw+cQWvU4n6u3qESFeN+cyY6KC7Dy7C9MfnUrn2NqqsxXcR29mJuH5gS9iQnfx1ESESAlW8Nt5GcjIuy244XqSM4tbQze9m0Y0eWim66XiFu7eiPIj+4Vgb5oNNpS2KikHX0ooIS8pOrkJYrErSx/871j6J24/tUOWD7N67U/3Gk9GdMWcnl/SbhHdZM+ZmY+3uzem6Ngm2COsG3mc0ehExqZuVl52aPjj2B8I9aNlNYqc4evqB97vG5+aICis3DVQdk5p7BkkPOaQyCFYtnMZuXYaNmYxAR8Crex9BQY1/DOo7SAtSg5FIxfSafj+/Z5lmDFguopE3X3009//hUxSSs3hfUzyOaygveWn4k7p9Bh78bGXtBxqVJUYuLFYQGAA528vLvjhUySfjcHihDTsTLmNnalZuJVbgKkx1+FD+1InnknQ+TvF1RZ2m05grq+j8PuqTwNywMiE15SX/5bn8KCvaXpBBi4nGTbaKBs0ssdITO49WZlU/NKsYHf0HnGentSUAZPRpWkXSQxb6i1S8m7hUuIlyXKpzBxaxrl2KwHHL5/ALup1zlw9g8S0G7JDmjLP56hNYY0Uw24LWiG4U3gH0QnRUtXVSR6vrz/fd4ok77T8NMh1CjkbfxZWtlYUoicSz333Av48/qeI57lr53Cv4h7JX7Gez/uR3/7v24JXmb4QsKdpwz/bNZpT+B9joV6eSF/+29co/9b4OZ7Oh6fAcuatWsF6qeE5kU4eRhTcIIeHcUvG6fzSqrNit7efZ64Udu+o5/P9Yx8OlTU37dOuD0V8WKJJLkpzfKxxn+gf0okIaplgZ4r/Tl+hxeXJJU8ZdJPUIqphxpYFWxDg6i9JveviHrz+/SzJsppk9qDlwC8nKd7ZAe8Pkj2UbxrYFL/PMv69NK9JI+uaxnLgU4CNDe7RVWhjjXzacKDrumttjVxrK50Xt7WKrsqYGBRHNa3rpgv8eXg4rMswWXVNGzxVUmmZuFerXgZ52NnYYs7IOQbxWtLc94UhYj9ng0S1QJg9YrYk9dpZa2BDy1N1DXPHvatTablujsBpbEhUfW3uHdFTKOZge/o2fWjyuJpk/BIY86iXc9zyjSux1c4KBxwVSzyaD6uetszKRzyFbNUJFtZCUROLKnxUUYbSdybD+sPlOtEfVMHTURMoBtM+8BxJF4ztM1Zr6UYdd1C7gfhp50/qWVr3n035DG4NFIEHtAo1Mqb2fwlFpUUPZO6owVqU5E0CvCNIF5z89ARGfjoKvHOnLmDmyJngKCWGgK348xINLycZ4hPZLBLDHxkuoMXdkj9FYgI2StYE6mWPe+zQdllKa8wDJ9A2vpfp1ILKI4dQ/vMXxpDWCNeHDoqa8+Q7OmnDg8PxxlD9Q7UwWhoa1etJnTwGdx6MLs2k57W6iNiIwj7JdQG8d/Wt0W9pGWqk6lr/+u/CziqpsprmsQJ9Ne1r2eFq2MWTZWFLo5bawIpp1ctinUMV81y5/No1iZSLKsKrd8apG6cPYtXh7SjTiH6h3uoG9rbwpY327q5OsCdLbLmVJcVON0MZWY/5MCddUEDK+xcZSYaeOQYzby+Yh2ovneiirUk+bzlzc3HDoQuHROS83e7DcR/Aw9FTlC+VCKfwJzvP78ZdjfNW2a1ROaeSotOXxwajRp4+FHD8BoXwydOHKruM12nnjX4XfY0IAj84chB8yBqenp+OrFzxRgDZFRMi7xueOmQa3hk+m7b5BRhDKhjPIkMjcSPrBjKyM4yiZav51jmbRTTuju6Qa/iSu31RVMH9RL0yThXTRuuv5j6LpEzp4WVoUCOENPajDfbVQ+giiqdcUakYKt9MzUbSrSwk0lVwT/8OkA0tW8D6C+ONAlJCNJQ3+T9TcPp+zGI2Rrw/eqEsJwclX3UPoQAK/t2zVZSsXk1Jr+uXh83L9/2IdYfXIydPEe9LF66u/Eead8D4qHFgf+3awIaTG8DRKs4mnMWdXFqTNwD88evdpjc6hHZ8YE4QOyhS5t7Yfbh4/YIQO1qzCbbWtgghYyIHg+/Xph/YW04XvPHzm9hJzjhSwNsQh3cernOtXIpGM89oxS0rKUQxBXWzIR9OPrtHMy6UZgXGpFd+swCnju6RJOkS2QKNGnlplakrrrLw6o10nI1NRE7+PWWW5O+WH9bCLKSFZNmDzuRF+GAyWvm6+NaINXsLXaIN8XXhqcO7ZQ7EHcDRK8dxlpZ9MrMzJdvIRiV3Z3cEeTdGP3Kc70Lxuji6xoOGi+TkcYtcDflEPb4KiijyCb1vLDtfCrLgR+vKThTovq6BAxAUUkBBV7IhsB3BmKNguG17Y/fi4KXDSKdjVCroqJuWQS3B2/wGtRlU66Ybrbjn969ADg2xGCzJxc4rsDV8aZ5V2+Mqd2xaga3rqucK6k/WsW1z+Pt6q2ep7qUUlwsTkjJw6vx15BYUqXClbrbuvSiV/Y/OK6H9qrkU9jaPnPHz7+XB2tIavm5+cKM4WyaoHxIwWnEL6etx/fwuFGSnoKyEh6OKOaVnQEs076zbkKLvcWOjD+Pbz6SXD/wbuaNjZIROcl2KywQnyGHj7KVEgfZxOn5zo0SURS40Ka8gItOfh0gCepeDkmiROjH2AOzVlhv4bB8OQq4JmckX0YAOjfZv1l2zSG86n4wSm9Z8o4XTtLgUV2l3T2iQv1aZ3Ixgf3dcTUwnw06x8Hl5lyIxvE/uhJowpHdLk/JqCsWUrtcSMLgcFBTekw5+dlBdVfcNQVJPlRCzTypbb976X/+NtFvJIpwWRSVwvh+1wMmpgajMmIQH7b91drQXSHLJhbA1WZxZeaVg5MD2UtmmPJME6qUE9CqusI2OXng38rpRXma0FqoLzClozIZf5O875Hnt2eMHROzcaRI/NKcAmRQJws7Whhzv9Q4KRLRSCacGijW6HFoKYtClvCU07B8/QrxvU4rfPznv5s2b2LVrl3CUqaYc8vPzcfLkSSGbzx8+fPiwCCUvLw9//fUX7twxbDFmQo7OefGitv2hqKgIO3bskGyDqML/5wm9istHXSbSdS16u+oqMRD2Y9+O9fh95RKDYuN5rZQxanDOXbiV0/EgpGcKVTPISi+C2X0uuWrcWHnnS/S8ubm5mDSmn15+D3NhfHw8WrduDWdnZ+FQ7/PnzwuPs2LFCkyZMgVt27aFi4sLRo7U9jpas2aNEPb2iSeegJ+fH+bNmyfQdurUCY888ggiIiLQr18/4dxh5jN48GCMHj1awOETEtu0aSOkg4OD8dRTTwn5r7/+Op2aSOft3r/4sHGGESNGgPnyweOPPfaYsL3x3XffFfCGDx+OJ598Umir+lnETMcfjL59+8LV1RXh4eG4du2aQDtp0iRERkYKbdi/fz+jIjU1VWhj//79Bb7jxo0T6vL29sbUqVMFHD5rmflMmzZNOAHS398f27ZtE8r4w8KyZHn16NEDly5dEvK///57vPDCC6oypQw48ijTKOHVV1/FuXPnlEmjf/UqbtRTC8FXZP8XVJeHv+6dDNkUmYLh4K6NWLPiI52N0TWv7U/7Z1vSMJmhlBSt6r7hSycjGQUK0xmQp6a4TBZByvuxhPJmZqRh+iR5fsYyqq9XKPxSspLyB4pf5O+++05onw35hPMLvWTJEqSkpODQoUPguNTqsIqOenn00UeFl4+PMV2/fr2qmM8bnjVrFtzc3AT+L7/8Mlq2bImdO3cKisMxr5s2bQr+ULAybt++HcXFxXjxxRexevVqREVFCbymT58uxMfes4d217z9tnDixMGDB4UQu8rKWCkZPz09HUeOHFFmC7/88eH42UlJSVi0aBHc3d3x5ZdfCs9y9uxZ4XjVZ599VmgTB80/duyY8KHhUL5bt24VwvryqEH5bPb29oJSJyQkCPL58MMP8eabbwp1+fr64qeffkJOTg6aNWuGZcuWCflWVlYC7tKlS4V27N69Wxgd8EeAQwUzsJOQMg64kFGDP3oVl41TB9bMQ/TuZaori2Ln6IL4xBRV0eG927Dqhw9UafUbqXlt29Yd0C+z+mWRnomqczHuXso/KIQE+EUj7XXIxMRrmDVV0SsYV0v9xm7YsKEQj/qbb77B9evXcffuXaHBvA+YFY17PAdybuFehIe+6sAnQLRo0ULo7fhlZcVTAr/ErKxczi/7G2+8IfTAHBOslM4y/uyzz4Te9plnnlH1Olx3kyZNBMXgDwUfHcM9LSsTw5gxY1Q9/9GjR5VVYc6cOUIbOIPboQRWBlbyTz/9FPyc3DNzT84fgVGjRglorWiHGLcvOjpaOO3RnHaNcQD9gIAAIa2853YroWfPnsJHrnnz5pgwYQIyMjKED4GjoyMd81qOr776SjhNQylLS5ricU/MdIzDF08Txo8fL3wcmO+BAwfAvTcfxF5T0Ku4zDSgRXd4ktud+uVKi8gN6IAuS1qQd3DygAeF6MwsMMdN2veqDscObsev37+vngWpea2vf2OMbC32uS3X4/IoYmhEIkuCZyMKg/PTWu2QKlfiYvHWy+ON4F7/UblX4eNaWClDQ0ONanCvXr3Aw0AednLPrQ7KF50VQRleSOl6yr889HzrrbcwZMgQQaGZlvG4F5o4cSIaNGgA/pioA/Pk3ouhsLD6uBBra2vwxaCsl+9Zibl+Vlp1YFolH85nxVVXeHVcqXtlcANlmZ2dHR26XiD0ytx2/oDxB8gQ8BCe6WJjY4U5Og/RawN6FTeQ/E4bR/RDWKdRoiuix9No9+g0dB0+B+0HzECLrmMxasoCdOr+qFZbjh/aqVJeqXmtJQWEe3zsNDikJoto60Jxq/tztaro5XEpKcHarSfUMhW3sRdj8M5rz2jlP6wZPEzmIS0rEfeOcoHngzyc5F6Zh5rcu3Avwr2pHOAPBg+jZ86cqYoMwoYu7pkzMzPBvRTPq//44w906aL4gF+5cgUnTij+J9xTGgIeQrPiXr0qHhHy0JlHFwz8EeEhtjHPrvwAMT0/L1981A3Lkk/K4Hk6TwP4PCp9wB8qnq//8ssvQo8rZUfQR69ZVjuTrQa3cc/PFcKvHNn/p6iElZch6XqcKJ8TQ598DmEtO6J0g2L8r0SooAd9oI0jxkVK5hq/lTFHYD94rLCWy2u66nA+5jTmvj4Ziz5drp79UN7zS8zDTn7JeU6m2Zvoeiie0wYFBQkvHA8DeTjNJyKy0UkO8Lz2zz//FIaQyjrZ6sxKxsYf5smGmwULFiCG9k3zvJc/EPyysyFsxowZwjlQhurioTbPm1955RWhV2OlYlo2qPGHg+eb3NPx0J5BXSl18eY2bNmyRWgHP+/jjz8u9PhsZONnsLW1Feau3JMbgsmTJwsjFh5psI2hNmC055Scytb+9xMc2rPFIGqXqIEYM+UdAa/kuSGoUvtavu3vSWvHNhjct6tePvo8p5jw4MkriE24JfDgNVy2KGuCxYDBsJr9uZBdXFyEJwZphyht37ErFixWGHM06R+WNPcWbLThuRkrBhuP2GLKvR73qmz5ZeC5IluKeVioBF7GYcMNKy33ijzkY4XjPObHeWwlZaMWD6vj4uLARquBAwcKvSwrDfeIffr0EeaYzJ+Bl5e4PrZ082hACRs2bBCMOzwc5Q9NYmKioNzMm3t8VqIOHToICqmk4V+m43rbtaPT/mieycBGsU2bNgk9I1ukWRkZ2EjGc2sGbgdbxTXv586dK0wtuJfmXvX5558XRgisfCxL5sWy5Ofjjwb36CxP5ShhPxn9WDbK4T1PG3iIrzQMChXW4E+dKC63Y/3Pn2P/zg06mxRMW+pmzP5C8HdmpJJBbVBVeE+F/2aAF33NrP8WxTWjOZbV0pUwb6LobfNod8q4EQpLp6pBdNOpSxTmLvpaPesffc/GH+5N2dqqVHpjBMIKy3NQnvvx8ojU4WzG8KsL3NmzFa64fPJjbYCfjS3Z/LHh0Q6f7Vwb0DvHrQ3jkRNeRZ+BoyRZODRwxIhxM1RKW5VwUaS0TGQl0TNKMnsAmVX0BS//71IVJydnNyxftUOVVt4cP3oAi+e/rEz+4395nss9KPdirMA8f5MLCxcuFAxlvIQTRMNwXgeuj8Dzb57T1ga4h+X5fMeOtAWxe/daKy23pc56XOWDbl7zNXZtXa1MCr8TXyKjVhfFEIUzKnatR9kixZdNibjI1wOlDrZ6e9yExAw6ve8aBvTQbWiRM1RW1mn52lxYDntamURyYjymThquSitvevTqjzff/UyZNP2SBNgqvHnzZsGgxENbnlPycgfPj3lJhNeO+WJl5zVV7qF52MnLPrzW2rlz5wfyQv9T/hl1rrgsyFgy/ly7EgN7B0f4+AUjvI143lr2/Ueo+PVHkcyX+Lghr6G9XsVdsHQDDhy/hM3fToeZjrGDMYrLDbCc+Q4shz+jakt83EW8OlXhAaTKpJtefQZi1px/qWeZ7kkCp0+fBntZsdWY56X8y3NbXn7ieSI7K7DScs+jBJ4vyjHuKPFNv39DjytHyKXvPo/Kg/tFqF97uSCDNhjoM07dTMsmT590RIQ1EtGqJ4xVXKa1nPQSLCe+qmJzIeYkZr82SZVW3kT1HoA35n6qTJp+TRL42ySgo5/62+onB9M0VJ08rlWhXWUVWSurPVi0ECjD38cVbVr4SxWp8krL9PNQIardlP/4DcoWk+LmKzxzItp0IIvyf9QwFLcH9m7HJwurFVwLwZRhkkAdSeB/rrgl77yAKjX3OeVz2pHpvbSsXORapywz5vdOnsKtj2k8tVeCdLKq2L4NJTPHovL4HgGnfccemD1fu3c9uH8XPlrwik4+pgKTBOpCAv8zxa3YtQElE/qg6oq2UwY/qF2VwhMlLfNOjZ87noxX2bTbiMGCLk8jNy1U0e6S0rdeQtlX75HfXT66Rg3Aa28vEvip/zl8cA8+nDdDPct0b5JAnUrgb1XcqpRrKF+xBCUT+5MV+W1UJd/U+XBuNMTlxe0z5+Nlu9ZpMrtCQeNoxC2AO/1l5a0JVPz+K4pfGomK7b+jd//HMf3VuVpsjh7eh0Vzp2nlmzJMEqgLCfwtVuWKQ3+hct82VBzazw6fsp7jtqUFPqF4UzxHDSIvqs7tWpIia39npDynKim+8rHoBERfTia3PgVNBCox/35UDVkN0IFk0asvLCZMx+azJ7DsmyUqLFs6BqVpsC+6d+0M5wYU55lOUPAIioCTWyCcPAJhQQHXTGCSwIOSQN0pLkUKLF/1LSoO0kHPtJ+xJjCXFLaYCItKytA4wBuPtGom+Iaq89JU3MLCEpw8f42U9iadaWoJcwuFe9u0qnL0MuAIrs5X370Z7UCxfOUdrM/IxMofv4YLHZUyajAdZanryBQaOTR08YGzRxCcvULg4tkYZrWM7KGvfaay//8SqBPFrUq8irJPZqMy9kKtJPgx9bhZ1PNWUA9aQoYqC+pxIyNC6BQDD9oK5iBsjc/JzUF+wT2KyF+E1IwcCoh+B7ezC8if1IIuRW9rS60IkDm/9aaeuRN5bXWQoeRWcxfj16RklGdfQkig2LumsrJceHZzc0stGXCek4cfnD1D4E2HYVtTzGATmCRgjAQeuOJy4Ockitp4d+W3xrRDEneLS0Ok39+TycpbyiFtNJZ3bmcXklJXL/mYU+9mScNji/tKK8lYRuYUUrwB9w1kutAtOnaG5eLlOLhuoSRKFdHzxWAGcyHgXlmJeI+SjZ0jOg19XZLelGmSgC4JaHcHujBl5O/9cxW2rf+RprElZMJ1lUEhH4XnqnZ0WVG0BlbiCkEpqshjipTUvJLmv4A59cjmhMP3tYWNru4Y+vYHsti40cl0eZlJ7M4izMMraC5dSRfPydXn5WEdhsPe2RvZqVeQnRYvBJZ3oIAEJjBJwFgJ6O1x/ZootnnJYWprbY4Bkfb0oj4ArZFT4X2ctNsFKC5VDEuNIDOIWlFphgspNbVD00eEPiiODW3h5GBDp4470IlwFjgSfVP46Bis3IRgkoABCehVXAO0ouKYk3ux/Mv5Qp5vQDBatO4oKq9J4vSRXcjJztJLauVAQc+vxuvFqUnh8FHjMfmlt2tCaqIxSaDOJfB/vNMHUPo/RigAAAAASUVORK5CYII=;" vertex="1" parent="1">
          <mxGeometry x="373.55000000000007" y="399.89" width="120.55" height="39" as="geometry" />
        </mxCell>
        <mxCell id="UFaXmECFwQH_9bim80W3-34" value="" style="shape=image;verticalLabelPosition=bottom;labelBackgroundColor=default;verticalAlign=top;aspect=fixed;imageAspect=0;image=data:image/png,iVBORw0KGgoAAAANSUhEUgAAAIQAAABMCAYAAACs/x9+AAAEDmlDQ1BrQ0dDb2xvclNwYWNlR2VuZXJpY1JHQgAAOI2NVV1oHFUUPpu5syskzoPUpqaSDv41lLRsUtGE2uj+ZbNt3CyTbLRBkMns3Z1pJjPj/KRpKT4UQRDBqOCT4P9bwSchaqvtiy2itFCiBIMo+ND6R6HSFwnruTOzu5O4a73L3PnmnO9+595z7t4LkLgsW5beJQIsGq4t5dPis8fmxMQ6dMF90A190C0rjpUqlSYBG+PCv9rt7yDG3tf2t/f/Z+uuUEcBiN2F2Kw4yiLiZQD+FcWyXYAEQfvICddi+AnEO2ycIOISw7UAVxieD/Cyz5mRMohfRSwoqoz+xNuIB+cj9loEB3Pw2448NaitKSLLRck2q5pOI9O9g/t/tkXda8Tbg0+PszB9FN8DuPaXKnKW4YcQn1Xk3HSIry5ps8UQ/2W5aQnxIwBdu7yFcgrxPsRjVXu8HOh0qao30cArp9SZZxDfg3h1wTzKxu5E/LUxX5wKdX5SnAzmDx4A4OIqLbB69yMesE1pKojLjVdoNsfyiPi45hZmAn3uLWdpOtfQOaVmikEs7ovj8hFWpz7EV6mel0L9Xy23FMYlPYZenAx0yDB1/PX6dledmQjikjkXCxqMJS9WtfFCyH9XtSekEF+2dH+P4tzITduTygGfv58a5VCTH5PtXD7EFZiNyUDBhHnsFTBgE0SQIA9pfFtgo6cKGuhooeilaKH41eDs38Ip+f4At1Rq/sjr6NEwQqb/I/DQqsLvaFUjvAx+eWirddAJZnAj1DFJL0mSg/gcIpPkMBkhoyCSJ8lTZIxk0TpKDjXHliJzZPO50dR5ASNSnzeLvIvod0HG/mdkmOC0z8VKnzcQ2M/Yz2vKldduXjp9bleLu0ZWn7vWc+l0JGcaai10yNrUnXLP/8Jf59ewX+c3Wgz+B34Df+vbVrc16zTMVgp9um9bxEfzPU5kPqUtVWxhs6OiWTVW+gIfywB9uXi7CGcGW/zk98k/kmvJ95IfJn/j3uQ+4c5zn3Kfcd+AyF3gLnJfcl9xH3OfR2rUee80a+6vo7EK5mmXUdyfQlrYLTwoZIU9wsPCZEtP6BWGhAlhL3p2N6sTjRdduwbHsG9kq32sgBepc+xurLPW4T9URpYGJ3ym4+8zA05u44QjST8ZIoVtu3qE7fWmdn5LPdqvgcZz8Ww8BWJ8X3w0PhQ/wnCDGd+LvlHs8dRy6bLLDuKMaZ20tZrqisPJ5ONiCq8yKhYM5cCgKOu66Lsc0aYOtZdo5QCwezI4wm9J/v0X23mlZXOfBjj8Jzv3WrY5D+CsA9D7aMs2gGfjve8ArD6mePZSeCfEYt8CONWDw8FXTxrPqx/r9Vt4biXeANh8vV7/+/16ffMD1N8AuKD/A/8leAvFY9bLAAAAOGVYSWZNTQAqAAAACAABh2kABAAAAAEAAAAaAAAAAAACoAIABAAAAAEAAACEoAMABAAAAAEAAABMAAAAADSrBFgAABaVSURBVHgB7VwHXBVHE/+rYO+CgiBNsWMvUTSKDbF3xIJdE5UvduwtookNFQuxYEVEJTbsohKx59MYNRaUWFARBUEFRcD37Szc+fa9Bz4QTPh9N/x4tzu7O7s3Nzc7uzezufKVslFBAYUDqRzIrXBC4YA6BxSBUOeGkoYiEIoQCBxQBEJgh5JRBEKRAYEDikAI7FAyikAoMiBwQBEIgR1KRhEIRQYEDigCIbBDySgCociAwAFFIAR2KBlFIBQZEDigCITADiWjCIQiAwIHFIEQ2KFkDDLDgrzFqiKviSMMS9QGchlmmIQqKR6J0ReREHEESXGPMtxeaZB9HMiVEY+pPIZFULj6j8hv2jHLRhQftgZvbi/OMnoKoS/jQIamjMJVp2SpMNDQC9p8j0IVRnzZXSits4wDeguEYdGKyG/mnGUdqxMqXHES8hgUVkcp6X+IA3rbEPnKtMzWIRoaN0Xys8PZ2odEPE/uXChjYopy5cxRpVIFRL2Kwb37f+N+6D18SEyUqqV7LVmqFCxY+woVrGFoYIA7d+/jzp27iIuLS7cdFebLlw/W1tYoX94a5cxM8eRZBI4cPobEpKTPtlWvkNfQEOYW5WBtZcnpPI2IRFjYAzx+/BgJCQnqVfVO6y0QBsXq6CQ6sAMwp5fOojSRs3YCmwLFYsNi1fFeh0DY2zdG0L6tQmXvjX4YM3G6gJMyTk5tsGfrGinLr/Wad8KNGzeRO1cuODt3x/wZE2FaxkioQ5kPHxLhPmcR1q7zQfJH3c7o9erVwbKfZqNerWpa7QmxYdtuuE//EW/fvtUqpwc4bswozJgwEnny5BHKX8XE4sfFq7HdPwARob8LZZbV7fE8IkLGFS5cGBPGjsL4kYNhaKj9CJOTk+G1bisWLFqB2NhYuZ0+Cb2nDDBm6oLnMbqw6eMGOegoT4P++XPncf+BuBJx7d2Fv2U6qKCfcxcBfeNWKBeG/Pnzw3ezNzau/FmnMFCjvHkN4ekxFUsXzhNoSBm3USMQcmRXmsJA9Yb064Hj+/1AD00dSCvs3r4es93dtISB6pUoXgxL503BnGkT1Jtppc3MzXE+aB8m/zBcpzBQAxK2Md8NxKXTgbC2sdaikR5Cf4FIg8rhEGDMpjQK00AbiC9HGrVS0B9VKixdtUGoU7BAAbR1bC3gKFOoUCF0bttKwC9dvQG52N+qZQvQtZ1Ydu3mbQSfvYT3Hz4IbUYM7I0OHdoJOOde3bFoziQB9+RZJI6cDAG93epQu0ZVeMyeoo7CmhUL0cahiYDTlaG+04JChQrj2N6tsC1vlVYVAW9ZriyCD/mjeIkSAj69zBcLBBHfczLjQpHeoDTL/HftRWKiOL8OH+iiWQ3t2raBgZq0vXv/Hnv3BWLI4P7o26OTXD8pKRktOvVDw2bt4djZBZZVG+H85atyOSW8l/7IBYzSVatVwYYVCygpA00tFWs2RpdeA2BeqR6We2+WyyhBD7ZmrRocZ2dXHX26s7lVA/66fQ/LvDdhuocndu8/qlEqZmm68/H2RHkrC6EgKjqWT1NT5i3B+i078TJaVNmljUrBf9NqGOQxENqllckSgSDi2SkUNB+v3eIv3EPLb79B2bJlBdyAvt2E/MbtvyI5+SMWzXUX8EN/mIJzbCqSIDYmBn2GuEHFtJEERiWLo72TI8/OmzFJEDTf3fux3MtbtjOoj2mz5oMesDq4DR/Is32du6qjeXrxyg2o36wdJjN7Y7HnSvQbPBK1mrRHXPw7rbqEqMtsl85OLYSyi1euoVrDlhg1xh2ey1Zj9LgpqFa/Bc5cEG2QZvYN0NzhW6FtWpksEwjqIDuFYu1GX617cO71yV4oWbIkWn3bWKjjs2UH6tatgwLMflCHyBdRqFHDTvg3NjJC+LPn6tXQuGEdriXatRKZeevOfaEt0SIt8uetu0J7h6aNeL5jW/FBPnz8FHM9FjFhTRbq3759G5OZ5tEFTq1FGlRnxH+mIubVK6E6GZEjmMBrglPr5poonXn99IjOprqRJBQEywbyS5b93Ll9B1eu3USdmp+se7ehrli+fA3IzujSSZzzJWPSpXcPrTEc2inaJFoVUhHmZU1gxARFE+ZNGwv6/xyYmZbmS1JNNX/8VEiay9vgkE+aS52+jbU4VcS+fgMSIF0Qdj8MVF6saBG52NbGUk6nl8hSDSF1lF2awmOpuJwsa2KMevXr8W4HunSXuudXMiYJ8jPrPrNQrFgR5M2XN7PNebsiRYtqtY/SMELVK8TGvlbPymlNLfcyWtQMcsXUxOMnn5aphCpSuJBmFZ35LNcQUi/ZoSmOHT3OLXpaokkwoE8PPGNr9AZ1Uww4wkvGJKVfRGkz7lTIJcS/i6fidIGmhlds00oTSPs8DH+iidaZj4+PBxmx6sZu9Sq2OusSsnway8TnkS+ENjaW5UBL6ffMcNYE2iirbGsjoGlFpA9km0BQ51ktFLSTt2SVj6Cu+/fqjOeRL4V79fENQHyqcXb9+k2hjDLLvX1w5MhxLXzBggWQwBisvilF1n3kyyiQtS7BqZCLmDhllpQVrrT01dytPHfpCr5tXF+u157N57Q/8HfY3zJOSkyf6CYlheslZkAOH+As43KxcQ0a0BdrftGe/ga49hEEkBpprqJkQhqJbJky1PvI6unDZ4ufsBqgzaSp475T7xI+W3fI+YcPH+Ly1RtynhJeC2fDwlKckw3ZLuI2n9XY6bseRdXUPNknqzdsF9p/P8gFbdq0EnCUGfPD9/hvyBHY2ooaYNe+w1p1aX/AqZ0jSjEbhd70SpUrwZctD1s0bahVlxAH2da25n4JbWSNHTMS5uXKgXZBadOKNs+WL9Dexd17QHsMujrS+/N38frrkc9Y1xajLrLauK7MSJYMzfBowH6MWCf+71/w5tZCEZlGbsv6lejVxUlnKanzek3bCmW0ArgSHCjgaIm5eccebPH7lW1ZJ2DW5DFo3dye16FVQJc+w3DrVorRRm/9nxdOgIxEdTh76SrfNHv8OBzO3Tth/KjBvJi2wAe5uSMgYB/P065l2PVzKFpEv3lcvQ9KS1vXI78bynczNcs/l5+zcCUWLPT8XDVe/tUEgnrryV6qxa5AGJvOHCaI48uIQDRs2ADBB/1EAqm5QaPd4bdjt1bZsCED4PXzTC18Woig3y6gQ7d+ULE/gurVq+Fi0B6d2866aNAGkd03rfAq1fjr3KkD/H2W66r6WZwkEPRRLmDHJrRt8fkdT4koCW2bjs5aS1ypXPOa7VOGeoe7TgCuXmy/P3N8kUldunhZ6/sGFZIxuW//QbmeemLdhs1wc5+rjkozHRB4FD37DZWFgSrSx7GmTs6ISWMVoE7sdmgYGrXuKgsDle3bH4jxM35Sr6aVJuNz174jWngJQbZNb9cR2LHnkIRK93o46Aw69nDVWxiImN4aolgdL+Q3Edf66Y4mg4VxoZ54G7pS71bt2rXFkP49hfon2Vu9as06AaeZMTI2RpeOTnBhW9n2DWrLxaTmDwX9ho3bduEoW82kBWR4tmjhwNp3QCfHlsIHJjLctu8+gE2bfdP8lF2zZg24jxvJv6uQYUjwIioaR9nDW+K1FvXq1sK6ZR5C95KGUEdWrlyZ3UdbDHTpBisLM7no8dMIbNu5H7/uO4gbzKCWNJxc4TMJvQWioFVfFKmq3xv2mT51FsdcGoCElyE6y7ILScYcGZdv38bxz8uaO4ef65e+D5gyf4a8efMi/BHzQdD4SJZe+3ysjYWlJaKioxEdFSVX7d+vt14CITdgCfp4Vbq0MV68eCFoJfU6+qb1XnYmRBzPVoH42sJADKI1/F3m1JJZSEpOwmMmCJkBEp7Q0FCtpqlKQwufHoK2rzW3sNOrn16Z3jZE8vtIxIUuSo9WpsteX/tPptsqDbOWA3oLBHX7NtQbb27qb6nrM9TYq6Px7oluQ1Cf9kqdrOWA3lOG1G38Q1+8e+SPvMb2MCxaHcidAW+XVCKq5PdIivkDCVGXJLLK9V/CgQwLBI1bpUpCQmQw//+X3IcyjCziQKYEIov6Vsjo4MDj8AgcPH5aKKGd1K8Fei87v9aAlH7+WQ5kyKj8Z4eq9P41OKAIxNfgcg7qQxGIHPSwvsZQFYH4GlzOQX0oApGDHtbXGGoeg4IlZuvbEbmTVWN+ASYmJixm8DXzFUwSmhYsWBBVqlRmPgMGePPmjVAmZSzZBx1TU1O8fCm6vVE5hbtVq1aVfSRK5N8Z6Mtk+fI2iIxkDhRqQIEv+Qvk1ztukbyRzFgMRzTzTfj48aMaJdYn+8hEfSayT8/v3r0TyqQMfVksW9aUfwRLVAsGLla8OCpVtGUeTwV0joUCei1YMC75RCSzfk1MTWDDXOeIN5qBR2VMyjB/ShvmfhfPHHY+SF1zTyjiuZGxEfsIFi14i1ElCj+wta2Q7vhlYvok6MAQff6NrGqo2Pd15miUAg/Dn6osqzfmbZkPo2qR13oVc+SUilUDR03SouuxZI1czpxfVa26uvI6N2+FqvYeClJdu3mHlzMfRlXzDn1Ub+PieX7/4SBer7RNbRX7xCzTuHTlusqsckNVfYfOMk5KLFj2C2+zbrO/hFL9ceOWyqJaI47/+2G4ivkeqE4En+flsa/fqqzs7HmZxI/CJpVUW/33yu2pjbVdE16nSduequhXMXLZrJ9WcHxJCzuOmzjrZ7ns6vW/VN0HjJbzL6NiVCa2dXn9R0+eqdznLlIxQeXlxNcKdZrzMpua36pu3Lort6P7Jfo0PrqXafOWquLiU3jEBEzF/DVUDh378vrEF+k+6LmtXL9Nzkt4XVe9p4xmzb7FexZiXtKiOoqaVsZtFv4+w32sLHPkPjaMBYgUKlMRC73WM0fY8XIZJcjvj3wfvdZt4zToS6Hv2qVyHYpKOnE6BOScYlyqJPb6emPmguW4e+8BKNCFNEuvHl3wTb1acOwxCM3au6B+7eoYM2oY7t27jwYtuvD/7QEprnL3wh6gj0tPDHXtBcYMkCdVzWqVsWrJJ1+DHp0c8cf1v0CRWOTe5tqnlzweSvRmkeItWPCPbZ3mKGVZE3+xex7rNoJrlT2+a/HLZn8wIeXjmTVpNL75pqH8Brdt2QxMwGBdownsqlTEghnjUcPeid27HY/JcO7RlfeVO1duDGGe47WbduB177JjCZZ6zOBlvZjPxtGTZ1C4TCUYWdVkfCmB/n2deRn9jBraH6069+c8P3g8GBP/MxwXL17iMRkdnFrzeuS+5+hgj52/ii6EMhGNhN47lYGBh3Dy5Gl2HkIFTuIOe1BNWGSTBCfPXERQ0CmePX3mPCa5DWXOI4ZMNSZyXDg7s8CucVu0bN4Urv1cmPqLQdXKFUDTDAF5Ik2d6YHyFcqjewdH+DOvIHJ2IR+FZfOnsWnGBOT1FP70GWxtrFi7ArxdhfJWzMM6Hn/+eR22TH1TDOWBIyexzdcfe3emxFvOmPMTnw76Mg/tDo4OcswmublNm+XB1LExj/20tjTnNKWfrmwcW/z3yJ+4B38/DolMnVdlUwyF+nmu8Mbr168RfPo3HD11Fo6tmuP69Ru8+cp1WxDBzn0giIiMgo9fgPypnWkMUCCuBCRYUtDNUhbit3/7Wh7gQ+F5dA4F+YQS3LwTijoskFgCv4D9uHLlKs+eDrnAvbKJX0SvHwsf3LRlO1q1dGDnX8Ti98uXpWbpXvUWiMaNGyHQfx3OXrzCJbwieyjvEj7Ndc9ffLIJkjRC1GgENFcH+vuwb2G5sWzNJiQyDUGQhwXn5mK+gnHxKfEF79+nbNMyVcjLpfgJAxZrUKtWTX72w6ETvzFtcpaXk7cxAQmf3wYvkMfQ0NETOc7S3JRfJdvg6dOUUD0pGpocYwgSElL61jxrwYI5vwSfvcjr0I/kc2DM5nOCeLXDQcjRxZw74aZ4QanHc5Ct9UotCDeZ5SVvKbpGq4XjkYBRDEehIkXQoV0b7gd68swF3l9tu2o4+ds5nqafSGZTSEC2kUTTjwVH0wtJHt09uzrBe+N2IbRAaqPrqveUMW3CaKxYu5X76HV3GYLdB44x9ZhioJFTh5TW1QnhmjS152/F1DmL+ZsvB44w72cV8xX8mEqLTYCcxKdrCkXKjxrmyjP0pm713ZFaL2UM434YCQqA6eH6PSh4lyDsYYrzCqlNAstyZvz6KvqThxJHSH1qHBLC5nfYWlvyKvRD7vkUkh/NHj5BqVTBoHQFFir39PmnYBpp/FRGAi/kiWFqYM2CbiQwNzPjdeOY4bl47mQM/2E6iN/0f+VaivaR6n5kQca64NZft/Dg0RO49OrGj0fwZ5pEX9BbIN6wt8HKwhzk+Usqlnz5MgLkrkbQpFE9Zgt0g2YArT60DFK1gQObdubPmSo3IWt+zuQUJ5uLJ/Zgx9a1PG5i2eqNvM4KZjeQ1zVFQVP4vRTEIxNII/HrgSNw7d2V+VA2h5WVFVZ5LsCi+TPZtHCTh917zHLnQtKze1c0rFMTh4+lTJlpkNOJTv6YDLdh/UErJ4qrmDlxNA4eO819Ml8zDUZTIgGtdNq3ac7T+vws/2Uz5k8fhzv3whB6N1SfJryO3gIxecZ8VGKDi4u8hxP7t2POz59cpykcPpkt2ySgN55AulL6xPEgBB49xc9NGNSvJzc8CU9tyRFUfoNS31ZmdFOxjCeVOH+RFx6wmAm/dZ6g2Imbt0PZMu0dM1jNQG7zY6fNx5ipHrgf9hDO3drjzJkQ9BjoxlR5GYwbOQhT53mC7AkCUuPSsjm1S60lqT873mcTi9s44LcWt38Pgl3Vipg+92d+flPXvsOZk25dRIZdxTqv+dwAvnDhIhtvCh/Ul7f0JtOyU4JENqXSfUuwbdd+bFqzGPf/CObaZOyUObyo//BxGMBevPcv72ON5zxMnrsY0nTMaarRINuB/iUI2BvIT8RZx86MyAhk+GtnObauDn8UnmFvXl2DKsBOgpHmd13lGcGRLUHGXt3advzt2rEjIM0I64zQpbqk3UqXKY1HDx8JTelkGnLSjXj2LEMOtupE7l8/zw4MWYKdOwNQlq3EHmv0QRrZ1MwcZJTrC6Zsz4SM9ZsXjqEcOwzlhcY+Tnp09DYqJSKZdSqV2qtfVyyehxPB5+DPmPElUISFvS/ymAljo5LIzTy4nFo2xYuX0TjMwt+yAsgZV1MYiC5pNgoV/BIg24m0IcVcaAoD0SV8RoSBwgivn0+J7Zg0e2GGhIH6y7CGoEZZBbSkOnd8D2jt7TZh5hcxl7RNs2ZN2NL3NJ4zNd6SHRl09eofWTXUHEWHDh2jlVSUjt3gz92I3jbE5whlppziEVp0dIEJU8d3/nsSxwP90a1bJ5DK0wdIlVNY34wpE/Dk7mUWe1kGrVu3ZEcGvPm/FQbiG9kSmREGavuPaggagARDBvXDT7PdUaRQykYV4emEuMds6RfBwv2fsSUd3agF21to2qgBM1g/ymdC0AaT63fj+cbZyqULsJCdKqNLxUt9Kde0OfCvEQgaItkCgwf0ZVvVLYVdUF3Dp/C346fPsVhItoPKponMntyqi/b/M+5fJRDqD4JsAjIQK1WyhRnbMeS7fWwLNoYdxxPx/Lm8a6jeRkl/OQf+tQLx5bemUMgMB/5RozIzA1baZC8HFIHIXv7mOOqKQOS4R5a9A1YEInv5m+OoKwKR4x5Z9g5YEYjs5W+Oo64IRI57ZNk7YEUgspe/OY66IhA57pFl74AVgche/uY46v8DjmAg+5Y7SsAAAAAASUVORK5CYII=;" vertex="1" parent="1">
          <mxGeometry x="373.55000000000007" y="304" width="99.02" height="57.01" as="geometry" />
        </mxCell>
        <mxCell id="UFaXmECFwQH_9bim80W3-19" value="" style="shape=image;verticalLabelPosition=bottom;labelBackgroundColor=default;verticalAlign=top;aspect=fixed;imageAspect=0;image=data:image/png,iVBORw0KGgoAAAANSUhEUgAAAG8AAABLCAYAAAB++NlAAAAEDmlDQ1BrQ0dDb2xvclNwYWNlR2VuZXJpY1JHQgAAOI2NVV1oHFUUPpu5syskzoPUpqaSDv41lLRsUtGE2uj+ZbNt3CyTbLRBkMns3Z1pJjPj/KRpKT4UQRDBqOCT4P9bwSchaqvtiy2itFCiBIMo+ND6R6HSFwnruTOzu5O4a73L3PnmnO9+595z7t4LkLgsW5beJQIsGq4t5dPis8fmxMQ6dMF90A190C0rjpUqlSYBG+PCv9rt7yDG3tf2t/f/Z+uuUEcBiN2F2Kw4yiLiZQD+FcWyXYAEQfvICddi+AnEO2ycIOISw7UAVxieD/Cyz5mRMohfRSwoqoz+xNuIB+cj9loEB3Pw2448NaitKSLLRck2q5pOI9O9g/t/tkXda8Tbg0+PszB9FN8DuPaXKnKW4YcQn1Xk3HSIry5ps8UQ/2W5aQnxIwBdu7yFcgrxPsRjVXu8HOh0qao30cArp9SZZxDfg3h1wTzKxu5E/LUxX5wKdX5SnAzmDx4A4OIqLbB69yMesE1pKojLjVdoNsfyiPi45hZmAn3uLWdpOtfQOaVmikEs7ovj8hFWpz7EV6mel0L9Xy23FMYlPYZenAx0yDB1/PX6dledmQjikjkXCxqMJS9WtfFCyH9XtSekEF+2dH+P4tzITduTygGfv58a5VCTH5PtXD7EFZiNyUDBhHnsFTBgE0SQIA9pfFtgo6cKGuhooeilaKH41eDs38Ip+f4At1Rq/sjr6NEwQqb/I/DQqsLvaFUjvAx+eWirddAJZnAj1DFJL0mSg/gcIpPkMBkhoyCSJ8lTZIxk0TpKDjXHliJzZPO50dR5ASNSnzeLvIvod0HG/mdkmOC0z8VKnzcQ2M/Yz2vKldduXjp9bleLu0ZWn7vWc+l0JGcaai10yNrUnXLP/8Jf59ewX+c3Wgz+B34Df+vbVrc16zTMVgp9um9bxEfzPU5kPqUtVWxhs6OiWTVW+gIfywB9uXi7CGcGW/zk98k/kmvJ95IfJn/j3uQ+4c5zn3Kfcd+AyF3gLnJfcl9xH3OfR2rUee80a+6vo7EK5mmXUdyfQlrYLTwoZIU9wsPCZEtP6BWGhAlhL3p2N6sTjRdduwbHsG9kq32sgBepc+xurLPW4T9URpYGJ3ym4+8zA05u44QjST8ZIoVtu3qE7fWmdn5LPdqvgcZz8Ww8BWJ8X3w0PhQ/wnCDGd+LvlHs8dRy6bLLDuKMaZ20tZrqisPJ5ONiCq8yKhYM5cCgKOu66Lsc0aYOtZdo5QCwezI4wm9J/v0X23mlZXOfBjj8Jzv3WrY5D+CsA9D7aMs2gGfjve8ArD6mePZSeCfEYt8CONWDw8FXTxrPqx/r9Vt4biXeANh8vV7/+/16ffMD1N8AuKD/A/8leAvFY9bLAAAAOGVYSWZNTQAqAAAACAABh2kABAAAAAEAAAAaAAAAAAACoAIABAAAAAEAAABvoAMABAAAAAEAAABLAAAAAPpoULQAACGISURBVHgB5Z0JtBxVmce/qur3khASCCTswYRdUFlUUJAAwwERHFBG3LdxRvSMoMdxwaMjo+NyDi6DuMx41HEQ93FDYdSIK4KgMqwqsqiASBAhC4Qsr7u65v/7bt3q6n79+vVbAqI36a5bd/n277tL3a6XjD1rq8JISWKJZ7q/clO16uopLW/a9cIp5FOBawss15kmp2GKcBy/EEc+ZkpD3/6iCbJcuC7CQCT3bWVTrwj58f3Lyr4a6bRuVNmiCIgicHUEXca3YBW65LqiRxeY8lEIFYxJMrOhrF4UrgDRgkC6ku4HKYe62TKgLrzcCHfdFdpC5sqSjF2o4UsNC8tURCGXDg+9zNCmNxXWUV6sk3YqITvgWCEUNZhVm071pDmE9ZAl4eqKDD3KpG46PAxLP6zWxOXdEgkwiiAoqrfFsNCDYY5X3vD9p9RySwpqSoSUjQd55XTgxT7RYLYU/IiHa0d5sopoB9E66g3da2IDKvqZVr1DT743RPXe9zSf8m0cQ6qO0Fqnt6rYwpkBOIvesNl7PwXSPHJU7WtjXoJi9KkrsddzcPtoZRWMnkwqCFggVxPQVpHqUlhTUm2orK1PXvUJCNulxHM3JvoxFiTe1q99hKNqHy+cppgXXAwk0sg15iuUU8n0wdvVXfWEReYIfGJzrmFcE34JER6q5PnafVXRLyNmkGP1qXteT3tA0rRK3AyLR00zjEHEBWVoHHUrk6r23Mvm7n+kFVtvZyMjc+HYipbmtK2Nlt77e0tvvMLad62SkgOytqu/bQ3hb6ktSm9BlPLB2wKVGEmXctQ9lnnU8D58TTN1CWMYGFMU2DAga21wpk7YrFXMRrYQdLwqkeSKVB638842evpHzPY7TjYgxhL8LnNUoSX+WSr5/U+1/Kor6S0C29ZEkWqfFS1rJpkUGdTk4lEVdjEVw3KkW/gLkiAMb5zN5GNpCXJC5TnyOtYp0oC10yWTe7T3XG7ZWy61ZM5CFebyHCnAgwsIwCQlugaURalL97fGzy9XPrEx+c9okVt+9MnWOPyFNmf+Qst/f4PZN841W3V31Q1IXUlgXcUiAivt8squhtO8EcxOcJwmjOl0Q6hlCsqTkGplXjXuXsIIfhJ6IvLOuqSE1nXReCcgxegcG33NF63YahsXYFpkgtNUS6HGKgGk8bCMkrpP1U6jhqqgAa9MTnyBjb7kYxX0xl4rzB5/mo2ddZAla+/3VvhxlehYphg6uXWrjRUzvQpdZ2UsYE5vQBwokUxrdIxH54yXxZH2iTsodoW2VdN+67zxWLpKKpQT46naM15lK06x1pL9XPFJ0RTDI6pX5+Yma177dcvuvNZaY03L5m5l6ZKlVmy/pzVu+omNKTwybjqaE89yQdVNrFi4g2WHn2ytb35G8CJHFeqHNiMihxBHD01T6zEucojlCcNmDyYXD+iGRxkmF+kRzwtW6WFxxJVgd91kG991gqX3rZaXCaL+Y8VttWlJaRRkCp9Mctq6T7fdaRxmZq3Fwh0rbxrHXC8DW/JegvRheQvi6Bc1+pXNEgkKf5k++x4jzlACYEN4LD7/OmusXq2wGnZzIKIpNbQTJi2E27aUqiWFD1bK33kNXbuT+hZ3/dJhNtUvG9egu/mWvqtHheFw9TI0uBfG2fsJysOK+fT0554ZYy7BI3yu8TOZpTNy2XZLLE0b8iM0p48mK8Tu4uZrGcm6sLEEIPm4qmwmU5YO5YFabnzuLK0TNjnxUETL9q2Xml1+iXLyUs0+u+DRIIAr+8zyeCfwvakuvZLbUqZayzqrMkrN4ljz8UmrQR5IsUcv1P73KI3PhGHTeZdCg4y7Bd0fZHcpSh+Zv5VkiOrq3/KyDZvFALAnhgv+VJpMci0Vbrje7I37W/vxJ1m29SKzO39hrZ//QGE217JB3ioto/Reg4JBLwPYxKhUOfsJZcJeOWqHyDOA3ylR4HAGTFicVzWa7jSb/nmW+fQEF0o0y2wpvDWkNEJcfZO2P+HyONw9DSrJ777Hsov/W0oINo5nZtRhwTLlBPMG6Z9tmj3imBtE7+vLLsbKp9qd6Ntq4kKAI0xFyp4UmKB4MGyUnLvnoHCUhBUzwUFfLV1zGQTKTaTkEJq6UVWeqPbk65/ulrN/5/EGAboUZxe+y1YgNWcQmvjpwYGYCUe+N+eE9DToug3xnMkJ22LMFAukrEU6akDcIHWDKBnCq2NyQVdCFk0oS31ThcUWYOgjr2urHI8UCg+9Qa9AZoYaoGVSE0qm1LfQ1BUKQgrlAqU2gSLaOlwB7Vovxi660obasL/aGcegIxcYUDMa8y93GYRJGu0b2hlyOvmaUaK/PhAvhBOOeaUcKlSThU82Y7F+ZpBtTSA8RLZLIWpsaiUND5niX0qRoCvIZcZpkpolCGaePgmR4lgyQGQQihCIcCfaJymMd2KijdikZN1kqsdDG+rnnimEI7ofU/mocEORLz8QgOgyliYKD9CPbHOFdoQP/6g2JgwCI2SigUHwgLW19QLLlu1lo9svtfb8bawxMmqtjQ/ayL23WeuOWyy7714plC0JrW0ZOhxqhDjz64TKmypowmA2InA77mzZkl0tX7LM0j0PFNHBwhvFmAQ9akS6OWd8UIWqQPIxKfz5XHTdfda44GzVSYBSXiIht7fZ1rIXvM0aDW1kIzkpbuzGSy1d+QXvE2SicsABd/Fis+f9i83J5qisZfnqP9roZ96tpYcMQW6SSllt0TpyyNGaBD3dRpc+0doLt7dGa7OlV3/VWp96pxuXIFaJ9SeeZyMyqMOeanbMq23ePoc7TxgUs2iiDUomjerTvv0qa68817IfXyyDUEGNXdrMNCXN0+bXaRwHjyWETy6EOJA1rokXZAvmW3Lery2dv617Na09XKofC2oS9sx2lw+3xJtaine0bL1hX63t7nTlot/RJx1jyWu+UfLO2Kd/99xkzdc8QQLDP/AmvJ6QldjoihMtfeX/yNtb8nYtQqSs/K2HWv6bmyVcGcMhR9roS/9DSt5dd8QADEVQRFO65g7bfMb+biM18lwxxT4qf8XHLd35ILe7QLM6Cqf7e8kTPPBhYsHGevHbn1jzgy+2Qp7YSbSIXHdKB+foA5+hlYxFDCvPJ1SFCoRGGOQZlF9D8YTfxTbbWTZf03gRFJ5ZsT8ZIYJNTHDBgsUk7Pqt99AX7GMo6lKw6G4rRJV1RVZbK3oZ41YIaonCkStO5YxbjM+52gOc7W9Cooe7HZaGpxsvfJONvP5brjgfCcEJNdCkPPT5OCl4DkTfDAHJiqdZ419/YukuHcUVcid6t0U0MOABA08UjqGONaqnPWQsZ19iyXaLVA69br6hbujvIMuoOLqJu/6JmWDdmvq36pQm+ZjGHAAqTGl8C0hgScIT8wgqzfUkThWEIJ7POb8liDDBEEb4bamdhN7VoGw3lQu42ehGhvmOy23OP51syZNf5gKGHgzFxesKBJ16aHLh7TWoNeS5qGX0oEPNXvllNQAej5LhR2rKtN33h2ssuflya679g8Zr4Vqyh9ljTtLW3U7uEAgYQ21vv5c1zjzf8rc/w0YlqNa4QV8Nh0joJSpwQuXRAIEOm/JVf7T0w6davu2ustzN3jdfstxGjn+DxjngSAwac1oa9+yzZ1reZpO6Ax9xMKlorLnXirv1qMcFhIanl0JPvBzhaTH/jHdpvApjoNTikxM3z41rLb9/lWjWbHj+9pbc+jOf+KSitamQa4sWaoz+UklpWj5PlEHefrW1PnmGJb+5UZ4uPaJX/dsgw5zXeK0lJ7zIstPO0xahDLn0xGLvFVYccayNXXFJuXzt8D8dLidU3nSA2eUrNZdQYBDjiCxZvpcVJ7zJQaWaZLQ1jINw08oLLBkLoSXioQefpsJgIaExOZi+6oLCwniGUKXE0XluUHib3XCRtS79pBU3XeWb41DC9hrrymqbjXaiZc5z32I2d5FHBEQ9IkUUv1pp7fc939rigQjiQUJ1hO05wtJsyjy+cb4lmzZY9hLhkUIBx4SmcdzrLLnsO+rkG4gqnVqKXgfAUnlOqUMhFzN1zyacIdxBCeLLQSsEFmFqUCRMMIB3eSjWIBqmCR1o4HV85QSEcTauL4kAdVroBS2MTayxsJUwYQnlgSkpjIZKfhVtxarrLP/Yyyy/6RZfSlCH9/saMlDmNFIOvMaSJWZPeaUrzie5cuNi/Vprf+Qf9RiL8CqfxrVJjJdl8n1aFbcu+YrZca+2bJeDnQgXz15HaM93O7M1a9S67Bs7DryGtnFjA5qRZ5W8uoz/UwFbAdgSmdkiZPVt1n7zURqfbpLIJvdqRJMceaq3JeyxUcDzSFv5brO163wygnHFTy/rrBdZNiSX/VfptfJYV5aMZY8D5OFdou/tPtT9zCH0QVO5dp+6h6so37TO8mYIiymzx0kIybTBkB5yqkcMZqB4U5GM2NiVF7kSogdMCAZPV2V++41SOkemQiRgJprstIfC7WRxbELIVUWX8tzxCQ2q9nzVbGqZwNhMIEwN3zCtUVYDhYgsdkwnoy6fN2rJ0sM8HHpbfRXr7rJs1V2CxJJkMASUQ+hPHtADZ82+CasokQNU7QWLhX8y8xnMFarXzAAgjESs9zTJKGG6ViFY9zO1kcFs9ifSxxiq1LnLwsrmlDVFWxzvKB7sDXhO4JXxk7aDIkRj56VWaMDmn+tJkxe783rhAw64Ff6ogAaQk8pMkCVhlr7soGoqKqVpy8AnPC0965q6TIMU6zSHOTM81RTHHUL7S051IfTjM1m0WCIP4dI1JHnkO+xtjdPf7YJn+yskF168qa6uR/VJF+3iymfDooHWdS2aUqiuU1mKVYBrmcrzCJZhho+t/ZmlSULUlKjFKIdhcOvFnY0EtWe5MbJ4D7Ojz9BkhbneZHISIv33LTehjGjpl63/k5+fmxLdfRqLCsCSsIoOQbE01D1c38NIeQvRptPc7IkiF9aGYX/WTdw1MRllPqYRWhUsCaPACNtoWk3ed7vgVsF22gyU67zQv05QzIPU12QqmHqc7k/XZCGLXuCKh4qw3vHrPMYcBBLmcQiIPsAOfYFST5GjetnE+TzXcUQXcBiveJJhTe0cbVgjz9PsUbgHKSBgo1F0CCgURxvu1XJFB6qmkXrV3aW8acB75HUZUofJ5s3iTQrz4xs8HdDW2LVfMzvvFb6TEgzFNdiRQR12VRUK3QBlAJtVrtMhrvuo1g6AwTlw0jEaf68yB/d+hNf6bLQU6uCZqfzl/rvdg2E5zA21W7RgBykOkaFMFOvZ/lc6egqNeLjs8xXNYFMtWeIPaWKr6Vz/qjzPLbZUXrTeiYRW/OkuhWW5COOeFObbb7sfrJDJQn+KNi/n42Es04uGrIZTBSwhpup5jrXm3X6GhbV/HFOwDhaXXLtSyXRX2TRuAIvVTwYu2HcYVQaKClolFQ8pJeyJFTMZ1g5D7Xv14HTj/YKr3Rjh8HXn/MXW3m13X6DHENbLCAoJ/8Jo53kJkz0d3wvVFe7JD5egWSsBmte7qHigXLqA1zt2VTySbsTEkHywbCp+/b8SEIeHNMtUPzwnO/xZErwyyHRgqiOatPFASPXKKtwL/PDKq0P4a8hLU62ffU3P9ji+xFRf+08SWHbcP1tbT8SHM4KotLoiZ094f2XKG8ZjSuHKu3Kdym48cI+8jsmGpvnoYquFlp15gWVz9GB30lRXWlTkpJ0GNqgPCa48DwnqAnhf15V4GPviJ44pAyFPUNmPhXpZv27g848aso08nvXxJRWcPlV4j5/NrBpNltEYtXGjtS5+u2TCiMU4hYx0embvYyx7+3et2Hf/sPlcA8Wy3hfl+m4hTO5gdsclNnLsMyz525eVm9qDJdDxqjBe9nP1araJoMJG62CgavaITXWrZeyo349nikmCVLby09Z+8ousvfwwbZdFtUiRux1ko2dfoeMQP7P82m9adsc1lj+wxtKxjVZw3EI/Jh3REchi6SGW7fc3egy0n3vCSLbJWl/XMz49CGSve6IUq1yJPrmJJZ0elfJghJnRX0sarDjknOoJgI408Cju359l2dk/NNNZ1IRzLUruTczRlz3ZsmVPUkmi9ngaQlaILUVJCQ9z2aEptDpPco2hyBoXHVbcDnd8+8o7h5m+q/ufYUI8s5/8bRYCS7i0+9ZY+20rLL/xRypp+WYzT+NJ/iNPaYoJDY+cGBtRiodZCR3FUcYpbaJoe+3vFE45+Dvekxxg+YVi/PS5rhO1TBnTqAyeR4QukzKsbeJj/krLsX7SqwCv1+/FdUrMl6MAxgIf0Okw7TAwdgxKvu4Ut36eUqeoSQ4iduLEl48pnJsUrZTryqe9do3asiGsPnyRW7vK15feRSUTCYTWMSmwhaEEVejoQ+udz7T2x5+rFxncov6sjsN4xjMGFOQKc6yBVuBQjpOlD4qm759rY+94qnt0+OVGxNT/yqHdrtRzm4zpxDQ8U841pnH3CCVWDnN1YGJ/ex2n22p+FYaKtauteODBwHgXxj5ABYOtpKZ2JBq7LFHY0dNtlSGkMQ7wrH9QSqOAZ2XaNxYIQhe/qG3o1SEcu2MowPqba1ZrAqLj7HChMBPOmPRIo5cEeCib+Aa4Ji48hed8ZrH3vpY89lizPQ6zVONZe9FuljXmqb3Oda7XbxS0vVbod4TpHVeb3XqlNW+9WXhRo8zWD8SwazMxfoyxW94dc6fcnW1LKa/yBKxH/xNhi7/P44ccIB+U8E1vRHf0wxEGV5QgA1Nl7r9xC0sFCLiQgDMpy8d4ldGXWaYLw4WlvX3dC4LDGERDd50AqRdw+SEM4yGwKROhsh/uw4/S/KS06G1LyaT4xD0gFT0Cwt7oIO9zer13+MK74bmeAnSVxHJnqmxRz9c7DZPHOhgPILStQ7dsYfmgrWv8KdYgOOHXRjr/6IMxYwSWykgTmZABSHqcEWUqn0sxmZD6KenyYWlnSKAPM0XBU9aPr0dJDiKirENhKCmPZzNSjWNeJLzCTZ2Hd1EXzheDL5wew9AwO9hwMPpCERhATJ1cLJngClJHjEFyhqVMlEUFwjQAB3h17DbwCkPAkREKWLl/Ktgl/oF9aYR1xkcpNHZYuuJhfgeB+o/iCI+c4cQd4m8BuK0nng44PF2hbdiE3ZEyISbbkIDC3iRPF0iU8w+ZBbjc+Qa233qNj33e3HvEnPjpZKtcbxn3VbQSOPIVfxUrVaaCM+0M1kGqkIbbWfougc8StKHASDYoDb0HVQ3Va1Yadcmw1FGlPDA8DOKYFcYcSI+h9FrurCASDsJ/9MTBMGfmBV2KAVEf5YxrExtFrxlM4MNZOzPhTIvyGspadhJQfaQ+SQ+qe42Pe3QSP7ThpwQME17osyLdh1mdxhJalAkt84lAWcS2NJtiQqHfVWj2FYwDGGFiEXvO7tWtDSb6DciUl+gIM+S9va71/GQUERo9LAqeTwS4kmr3MVsvpj7MX5ikhDUy7XyZAb3zt7ZiGy2d5uoXwjQY05JJLxMyLWGYAvGbQ36OE1K3eTgf3UWdCUuoZNgPCaSDUkvSYXrMkmVE2vcBWjMs1k/M+PxwUAkNa+mK2YMAT7euTniZj4oDZD0/GQqfGcdGvYIo7yO6erOmflA/mutJu880pcCddrLsUP1K94DjzPZcYdm8rdUcScVpjq8azf50qxXX66fPF77XkjXrwtN23CrqUb08W6MFeVazTeTcZcw07KUwUqornse7VYpUq5VTz7TWzZdZdv01jgTAuU4Fc24Dxf1FJOQjRuJ41yse6kakOJ9hL19uyWnvtNHHnCj5sFGgGCaFMidGeWHOSs73kfTCvOWWHvsqs/t1suwr51rLz7l06a6vCPsaJITVlN63I9tDvs/Hb76PebmNvuVHVrzps5buvpsTh+Ie0gTR0VB0rRvNrFAimFFx6AA11BOoMdj0ac+3kXdcbemBJ8vC5RveUEauDNmwlEB9RC5CJZ4oWSreJryQQVEsVZz19WwNAYrCKeKHKve8usf5+FfrFLO9AvAHlOrOaqY4+xhrv+lLNnrIKVYceIrZpR+yzReea4277xVZvOVBxGkj1l+RIW/1tzF4hI/Sjlj6XyPuvpZW6wJj/dJk/fr1GViGIr1Bh35+pzei7a9843pLvvRaa62+x2z1nZau03bg+gcs37xJ60P95LshT1y40Bq763Vcp75Lj5YOdAUS2Au2z0RsW5YHL3UFugw66Lx+3NsgJlJeLzNYDGca9UNzf6lNOn+eZa/+qCUH6WdRsqo01/s0Lzvf8ovebyN3/sG3guI7UoDFproP7r2A+9z3U15YqHc3nkh53a22zB3yGNMEjgkbW9S+m6R7vAvF8stgJkLsrPDmXt72m+2vN/q+Wc8EVc5TiebXzrLkqx91w2Cy2M8W3RDLihkYJWGAk8MiDGAbNlp+zkutfeFbRJ62iJO5NnLUy23uOTdb8rrzLXv0YxV2CAdCKYbGiLpTSf04mUr/LdyW10ay9QZbHFDip1z+7hXdo9BEY1+hsMoDXTc8WW+hF+7EOT0qL+65jdFRKYTYoD4YrzFfyw6tPBrGx0NcSbm0xqzSN8llL7h5+/PnWf7ek3Qs/D7pFW6ksENPM16D0Tjnx2bH640MehvgSHSnAOoh+d6SKF3E8h5SU2yP6GmrK2oHvbbyOa+1xod+YY1P/N5sr32k1PAW32LxUsmIkYtYpcRv5NUXOnsVw31vZPExj37q4wBc3uU9BZFhv9a0Th+8DsWBkN/2AcTXeP+n95W8UQdUz9CLag54uphQnZgplh1sc/7+fMtfOGbZlZ+25uVftOQXV6mz93YWmGjwNvg44SHk+KxV8LFYZ0ptuEbanJae+17m+wkk9hvmGnFHnIRJqCZEiiwlJh6s02SvW82z9KCnWH7U6TZ6wPGimwmLRCCvKxbp9crFTb6caOxxoMvM3yWj3/619ZIdsat6tQtAATxhGj/mqWnsB4BI7IQQJqjwxy6c0zju7yx53kf1Dmm9esrhRWYJuWKKh7NXflYntS7U2xmu0RkQLT3EKetI7JHN6VzMZ/4sTF3EHW/8g8Y45a6TgHX6TFPXugKdD5ROx2km3jfmUUdw4uZ9BNVGYY87whqHPtPs4Gdr5qhne64yYRZBRa6F+OdeZa3vfrlaF9u/fduyZUfoVSCKYF840zZ/81Nh0uOUu7ojeJXovof2LaY8RwSz7MAvXmTtf3ifNQ4RU/777ODw0bq8DOvcsD68ZuO6b+p1GVdY+sc/BkWJbn/+xVpJVjmi8OAnwXqYiYqbiYIqaY3LRGEGIfoPL5cuVWQ53NKDT7F0P72PTC/VYflEKIQnD4l40S0/0lsoTtcTeD3N11iHtza3387mfuC3yokJKbb1GoXTdWt7DK7D4EDlRdIizdy7tXb6x6qhrhCYl4SKft2JiYMP03tJPqQ/kLG/YIhsr2CkhDRZnw/XGvI1dvixAv2OrXXjdyy95TI9idZPin9/myVNvWkJT2QDoJeSGq11r+ttNtQ9sBBCTNrSSnbfQzsljzfb92gp6xhLF+woNoL/B9SiG9VE+tevstaXzrL8B4oqPh4QZhkXNQs9/lnWePEnVK4z2T8815JP/qvkFbTAWMlfb6mngcqjYegausT8TEInkKIXoCgIShqaca04yezZ51i2zW4eBn0soK6iQQyyDOmmX0a9yfJVejndbT+1/C69ZWHVrda++3a90+Qea+toRRA2plB2hAlisO7Dr3s011UVMoper8pOUh3hL9lhF725UJsNu+xtya6PsWLZE3XU4QB5VjVFqPo4dCYqMqhwDENrOb1+K/nOeyz/+oet/eBGKYyjHJleGam3FYoA/s1520WW7LVCr3jUOZ/XP1ovK3hgnDFGA8RIgxzBVg4LulZhM7Dodd1KhKFQPKVvkPnYo16eL3sjS9+AnSfvOUrh5uS3WrHdMhe3vwcz0Bck7KWhY1UcNCSamOlixQq3KGSTlKdDSfnaOyxZp/MjHPjZdL8Vmzf4mtNaEq28lddxJKMaf0e3snTuAiv0yipbqJflbLOrpXpvpumvrrgsoveAXobna7FASte3avSvjBpj6631/f+05OIPW2vNWh8fGRsxpxFf2Eomspxkl92t8Z5fUaEDTc+2/NJvBeNyz+uAR3kd2QcJBCWGNuNNqdN3RrmouAgEbyBAQg6L2camMctXfsWa37vQGocpBJ3wWjO9m4sTIk0JeMTJlveVKU5OUJrk4R9eSOflgNWEqJi73LIdluuG0Ft2LC+uYOVjcbiWXqobVMDOQVAFUCU6GpUCBWd3YmmEAelbOynN751n9r3PWXu9xm2l8GcGOBaB17PHq/byPj/yd+QLBFoTrx98wNqXflswBEe4gVdPUXHdSuy0qDyPIqe1rIt5mI5AOt2mlnNriQDVlUUrIZRlxYi0zHKDyXSxbB/Ljn6OpU95mR6f7ODT5oiJ7lDo7PmNBFzyWpWV96GldyjF4apRQVC8cxq16VxXkL0TYESiW0gNpNdVX/ypgKu/bMWlF1hx3ZV6ER7qZitQhhlhij+2BPlTIOHPzoU18dwP3GCtX15sySfe7FthENmruKgwriGJoJIYHIPyLuXFZv2uBKjYuV/9ZGV1d3fkPVIJe4PySt4IL6aLg55kjSc83YonPM+SBXoGBvJybHG56isqr4M7KLdUsRf3oFGZ965dUZR6gLMERI7dIL+q3J0P9PoTOoVeOmc/+6Ll1/xYZ1DZIZFYqCvBRvMoQQHJjZRxz/8Alnho6VdG2ep1Ko+tJr9OOmEZBAJBzdQDgV9XYhc+SYCDSoQPf9mMvlEoj1JSnZHM9n+K2eNO1CB/pNZQmpKzMepSA0opdu79lvuSWoUqL/Lv7q/xsgtwPBwKvx96/e1PrfjlSst/dZmlWocWWoeqIjCiS0DpanbgHeVhACUVIpX3ao9ov0y99YdCZCzSnPPXTdKAu0BbvcHQnrfFlScFwDge7ttKUct4gE80CBRigF35Rz3K2ntqB2fXfTR9P0Q785q+L9Cko0xBKdh88CZ6ajGlD8FZAtfHr6Uno6R0o3b//3CtXo+sicQd11nyu+usecdv9H7JMXUIYyM6K7WlsBXo7XpwK8ATKY+JGuMgYySTGDYxpuJ5gWLhLxPieciUF3UB7mi4kZB4ZbuJTd0wuZHniEH8xkO2rkEJwZojvOAlqpyrWeQivQpx0Y5WLNhOLz7dRnvjenKtX+wwUyQh+5SXtG5ab/mDD1jK7s6aP1l7zX2Wrt8gaYBBENWcaT9GRDjlvdWsK9lYJjzw6mbfbHawMhCPmeqAQPmqpSpsqk0Y29VGhKBA71BrOyg7YdgUbR3FKk/AgQ2P9SVE2pSBqCyZ2iUKe2q9Qutoob5k6wEQ65BZVG5s4p6im5ngjrDGXYWvV1G9bTCWij4pj3uMYZgUzKjT0pWn26ibLn5dMUIQGe50e2TkxikOslGoPn8WPElpwyoO0nsdhftYFq//D7gl7d2of5H6AAAAAElFTkSuQmCC;" vertex="1" parent="1">
          <mxGeometry x="587.7199999999999" y="360.89" width="57.72" height="39" as="geometry" />
        </mxCell>
        <mxCell id="UFaXmECFwQH_9bim80W3-38" style="edgeStyle=orthogonalEdgeStyle;rounded=0;orthogonalLoop=1;jettySize=auto;html=1;" edge="1" parent="1" source="UFaXmECFwQH_9bim80W3-36" target="UFaXmECFwQH_9bim80W3-12">
          <mxGeometry relative="1" as="geometry" />
        </mxCell>
        <mxCell id="UFaXmECFwQH_9bim80W3-36" value="" style="shape=image;verticalLabelPosition=bottom;labelBackgroundColor=default;verticalAlign=top;aspect=fixed;imageAspect=0;image=data:image/png,iVBORw0KGgoAAAANSUhEUgAAAJIAAAA4CAYAAAAW/KEGAAAEDmlDQ1BrQ0dDb2xvclNwYWNlR2VuZXJpY1JHQgAAOI2NVV1oHFUUPpu5syskzoPUpqaSDv41lLRsUtGE2uj+ZbNt3CyTbLRBkMns3Z1pJjPj/KRpKT4UQRDBqOCT4P9bwSchaqvtiy2itFCiBIMo+ND6R6HSFwnruTOzu5O4a73L3PnmnO9+595z7t4LkLgsW5beJQIsGq4t5dPis8fmxMQ6dMF90A190C0rjpUqlSYBG+PCv9rt7yDG3tf2t/f/Z+uuUEcBiN2F2Kw4yiLiZQD+FcWyXYAEQfvICddi+AnEO2ycIOISw7UAVxieD/Cyz5mRMohfRSwoqoz+xNuIB+cj9loEB3Pw2448NaitKSLLRck2q5pOI9O9g/t/tkXda8Tbg0+PszB9FN8DuPaXKnKW4YcQn1Xk3HSIry5ps8UQ/2W5aQnxIwBdu7yFcgrxPsRjVXu8HOh0qao30cArp9SZZxDfg3h1wTzKxu5E/LUxX5wKdX5SnAzmDx4A4OIqLbB69yMesE1pKojLjVdoNsfyiPi45hZmAn3uLWdpOtfQOaVmikEs7ovj8hFWpz7EV6mel0L9Xy23FMYlPYZenAx0yDB1/PX6dledmQjikjkXCxqMJS9WtfFCyH9XtSekEF+2dH+P4tzITduTygGfv58a5VCTH5PtXD7EFZiNyUDBhHnsFTBgE0SQIA9pfFtgo6cKGuhooeilaKH41eDs38Ip+f4At1Rq/sjr6NEwQqb/I/DQqsLvaFUjvAx+eWirddAJZnAj1DFJL0mSg/gcIpPkMBkhoyCSJ8lTZIxk0TpKDjXHliJzZPO50dR5ASNSnzeLvIvod0HG/mdkmOC0z8VKnzcQ2M/Yz2vKldduXjp9bleLu0ZWn7vWc+l0JGcaai10yNrUnXLP/8Jf59ewX+c3Wgz+B34Df+vbVrc16zTMVgp9um9bxEfzPU5kPqUtVWxhs6OiWTVW+gIfywB9uXi7CGcGW/zk98k/kmvJ95IfJn/j3uQ+4c5zn3Kfcd+AyF3gLnJfcl9xH3OfR2rUee80a+6vo7EK5mmXUdyfQlrYLTwoZIU9wsPCZEtP6BWGhAlhL3p2N6sTjRdduwbHsG9kq32sgBepc+xurLPW4T9URpYGJ3ym4+8zA05u44QjST8ZIoVtu3qE7fWmdn5LPdqvgcZz8Ww8BWJ8X3w0PhQ/wnCDGd+LvlHs8dRy6bLLDuKMaZ20tZrqisPJ5ONiCq8yKhYM5cCgKOu66Lsc0aYOtZdo5QCwezI4wm9J/v0X23mlZXOfBjj8Jzv3WrY5D+CsA9D7aMs2gGfjve8ArD6mePZSeCfEYt8CONWDw8FXTxrPqx/r9Vt4biXeANh8vV7/+/16ffMD1N8AuKD/A/8leAvFY9bLAAAAOGVYSWZNTQAqAAAACAABh2kABAAAAAEAAAAaAAAAAAACoAIABAAAAAEAAACSoAMABAAAAAEAAAA4AAAAAIicbCIAABI4SURBVHgB7VwHXFXH0v8DgqDSLNgSBXvHir2jgmABBLH3GqOxxxKjxvjMsyQ+JVGf+tREoy+a2J8djWAXsQtYsSsKigqi6DezcM4953KvAbkofDnz+13Ozu7O7OzsnN3Z2T2YFS/t+hYaaBrIpAbMM0mvkWsaEBrQDEkzBJNoQDMkk6hRY6IZkmYDJtGAZkgmUaPGRDMkzQZMogHNkEyiRo2JZkiaDZhEA5ohmUSNGhPNkDQbMIkGcpmEi8YkR2nAMX9+FCpYQMj89u1bXL5yFW/fvMlUHzRDypT6cibxtMlj4dveUxa+Uq2mePrkiYy/T0Jb2t5Hazmcxgxmqh6oMVVRuhHNkNKtKq3iuzSQOUMyI9s2f08WTEs/YyDK3lGuT2dmnglZ9JkZwzPTX+IpdJWBPhkSg3mYm1sQM+O606fLaH2JPiNtZdwKqAMVK1bEhrUrcCvqFG5GhuHwgf+hTRv3lA5KUtCTO9Cxgzd8fdqhnbcnzC3IJSN6P98OuHrhGK5fOoEJ40eqDMrS0hIzpk1GNPG9GB4CT4/WxpVGvOrWc8OOzWtJjhRZ9u/aBLe6ddIYeIECBYQcLMu7frVq1VT0ICWZJ08efD1pHK5fPC76+981y+Hs7JymHme4uLjI/KtUqSLqcJ8Wzv8O0REnEXnmEFq1amG8T4a4Uj9LliyBX1ctEe1HR57EDdLd6JHDYE2yGYMiRYrgwJ7NpMuTOHV4DyR5jNWX8guQI75g3ixFW2EYPLAvLK2spCppnmYZudjm6OiI/Ts2oECB/GkYccaTp/Fo4dkJ9+/fF+XcyajTobKhtGwbgFHDB8PLgxSpgPjnL+Dq1hx5bPLgUPBm2NnaKkqBYyfC4RvYW5VX/JPi2LnpVzjY26nyJSTuyVM0aNFOdiI9PVrh3wtnS8VGn4eOhSGga1+5fNSIoRg+pC9y5VLvS3i3czHiMlp7+8t1OTHtqy/Rr1egyDt99iJ69P8Mxw7ugLXeIOzYsx/9B3+hojWE5CIj/O2XpahTy9VQMZKSXqHfkNEIPvCnqrxb186YNe1LWfdcmJz8FjP++QOqVa4In/Yecv3K5Gw/SXW2J00Yg4G9u8DCgmY9PUhMTIJft/44ffqMXglNGmlyjGSwIrdtXG3UiJjM3s4Wv/wnyAgHYMzIoWmMiCvb5s2DmdMnYcv6lWmMiMtZiY0bN+SkAFbu1vWrjBoRV2IDWxI0J4XgPf8OGdQPI4cNSGNEzI6X3koVyuIgvfFi6ZDaUKw4JUsUx9KgeWmMiKt6uDeDfycficroc/bMqUaNiImsrCyxZOE/UbBgQZkHp7+bPkFlRFxoYWGGCaM/Q9kypeS6ykSXQH8M6dfdoBFxPWtrK6z/ZQkKFSqkJBPpdBtSyxbNUKJ4MZnBhKmzwNvG6vXcsXd/qJxfsVwZNGhQX8aVCc9WzRAf/xxbtu/GjejbyiIE+rWHi3MJ3L5zDxu37qQ35KlczoM2Z+ZX8nLwxbDBijgIMGz0ZFSo0Ri1GrbBw5hHMl2jenVQvnw5gR85ehJd+gxL81u/cZtcnxOxj2MFni9fPkwcM0wejNi4J2jr2wPNPPywbec+mYZl9unoJePKBBuzW+3quB59E+t+34rnL14oi9HJxzCdVMnZuSQ6dWwrodi97yCq1G6OstUa4JtZ8+V8GxtrdA30k/ElC9UvUOTlq/D06Y7OvYbg5ctXqFIpRScyQWoiwK+dnMX95RWkbjMvDBw+HjwDM3BbvuSu6EO6DSkhIRHXb9wUUykP1s+/rBXLRkxMDKbNVAvexr2pfjsCf/X6NZp6+GLI8LE0ID44dyFSVe/CpSg0adUBw74Yj6Zt/PDq1Su5PL+jg/ymcPs3b98F8ws9ehwbN23Fs/h4saR26T1UpuFEubKlBR4b+xgHD4aofuE0Rbs3byzXv3P3HsZMnCbwqV+Nk42IM3oNGIEzZ87i8uUrGDV+ChISE2W6OTOnILe1tYwrE3+GHkUjWmJHj5uM2o08VIZeo2pl+eVQ0khpc1pezl64JF6+Fy8SMGTEOMTFxSKBDHLxshXgwZagRrUqImlnby+MV8rnZ+ceg3D27DmEhh6mF0mtH2W94uRTSRBOy3JEZCRu37qN7dt3IvrmHbC7cOLUGURSAFMf1Au/fqkC/5MGoVHLEDGN29nZCWfWxsaGcHPEPNLNAkxSvJhOIAULbNyyEw9S/adXSUlYsvxn/GvON3KV7+b9SG/MS4HHxDzEgZCjNNCNBM5rtjnNTMmErfx5jfjxcps7d25y4i3Em2JmZk4z3U2ZHycKUBTXGKz5z0/y8viG3rjPx05B/NOnsCKePENKwAZ99twFCcXzZ8+wYvV6sQxwpiXJUZAcVFa6Psz4TjdzMO8Imh2kqHKePDbIS37k8+fP9ckEfpUGrG2HLiKdl2bIly8TwY6/BbXHkWie3R0d7EW5o2PK057GRgnbdwfj4cOHctaZM+fw+HEc8ud3kPOkxDPqF+Ak0No1qyKgky82b9uBxIQXaOzeHm/esPYNQ7oNSSIvV7YMOvt3RJ+eAcjF21ADYGEk/8q1G6raMY9SlhEp83p0tJQUT+UbZyZyUv5KlWrXqQV/2oV16uApz1ZSmfS0tDTcxeGfD0YNV5oRUmHuvxbj6JFjAsuXL6+ULZ7hZy7Q7JikyjtMMyH7ExJUKF/WoCFdvnJFqiKeL54nqHCLXIZ1qKxUtGhR9OgagD7dA2Brq5ZNqpeLd8QETk46X4nxvcEh/JCBjSH0yAm0a+su50mJ4IOHaQZP8Z9s8+bFvFlTxO84zULMZ9eeYERGXQatcxKJ/DSsZblYkaDZoHePrpgxZaycmZycjGe046Iig06yXDE18eYvznOkdVifLg1ODU6ksMHQ/j3lote0zD0nWcxpYFgJ74KSJUti1Gf95So8XS/8aamMW1qqt7l37j2Qy6TEgwfqWbgYDbYh+Ks+G6JR5tWvXw+/rgySX1rWUXz8MyTRLFkgv6Nq+WU6RwdHJTkt9w9VOCN376XsqvULZs9bgOrVKqMu+XVKqFOjGvj35aihWLZqHb6ZORusbyWk20dqQB1SGhFvbdnBrVyzMarWaa7kmeXpbrS7UBrR3v0hKFOlHirXaoKKrg1lx9CQINbWNvhz1+/yTuxFQgKGjpyAZIVi9A8wrazSvm9WejPd61dqxRpqO6N5Tk5OWLN8oWxEMY8eo37zdqhEOq9etwUt47fSsEzWW34sDciuH8qQmCSS3+dHYZaxk75FyJHjKh9VqtOvZ2cEdu4kofIz3YY0sE83mYgdby+fLsLp40xjgskEJk70791V5vjgYQx69R8mvyHsPxiLmLM/N2PaBNUy2G/oGNzR821evlQvY2VKucjtSYkSJT6RkuIZZcABVVV4D2RAv55QLs3+3Qfi1i2d8ajCDqn87+nNnqVo56cPZcuk7Y+oQzM9+4cHQg4hsPsAuFSsg4Yt24tduXK16N3dX59l+uNI9d1qysRPaIekBOcSJZRolqc/UTjzZ89HqNqrRFF3Y+DmVkflRP/2x1YcDNGFLiS6eOpfEm0GJChb2hm2ek6sJ0enFXDjRrQCM02ycgXdNp0d6yj2TySgQXdwsJUw+Rn3JE5Oc6JTBy/Vi8W7y8YN3FR1GLG3dxDR8qvnj+LYgW1wdnHmbHC/elFQ9co1Xf/KlkopExVS/5grkXelLSx0VW3IaoVjlErQp2fKzuJd9KYsM1PIUqRwIZUs82dPM9hU4cKFKZi2WFXm7+NNxzzhuHU5HKuWB9HAOIodIDuk4yZ/q6rbrIkuIMrxHWV0nn2zhxQGMTVYKM4x8+XLI3ZsUhtNGjU06JfGxsaplvaKFcrQ0UhliQxenq3ltDKRsmPT5Xw2qI8OoZRy/B9TG/qgsw79Ej2c4woS2FOg7UToLpp2LfHVxLHo1rmjVPRBnvfv6RzIyhXLYdUyckZJlkUL5qCckaitv69uO29IyBZkKOdOBOPI/m2ieNOW7fJyyRk/fj8Tofu24ff/rkTw/9arWPD0b2gno6r0HshVxSzHy3XI3s00oLlQoXx5rFzyg0GOieTz/RC0TFW2lU4MLoQdxIVToZg/e7qqTEKSk1/jAMW8JODwR2jwNgQGdEIYndO5lPxUKsKmrbvktJRItyH9e8VqiUY8izgVwjU6xBzUtxtWr/uDbtldV5VnJbJh03YV+xZNGogDVW9Pd8yevwjxBuIy5opZTEWsh+Sl4xoGjh3VqN9Kdjh5IPnIw62mq3iBJLKpM+emiaNJZZl9Ll+1RsXCqVBB3Ig4gT3b1uEp7dyOHj+lKpeQoEVLVbMSx+Ds6PjKjkIHcRTEHE7xMkMwftI3Mp3o76fF6URhMrhdCVgvc+b/KKHyM92GtGv3PkyflfYtuBh5GVMpsn324iWZaVYnvl/wE9Zu2JymGVbs/IWLKcr9PE2ZlLF1x154+fWEu3cgmrT2oUi7H1q374K+g0eros5cPzY2Fo1adRTHNhK99HxFuzTfrgOwlIKqqtkobYhFIsnwM4p0O3TkRIN0rbwDcOjYSblM6Qzz7qsmHRfxYbgSEsnv8wnsi9MUlDQEd+/eRb3m3gb7y/XPX4xCjQZtxCmCPn2GTv/5Yl2xosUoaFWGoqvm4rQ/LCwcbyielIdiNw4ODoL/06dPqLFnwncR8RV6mxke0/Y1MVEXkMtFW2gnp8KijP/cu3dP8JIy8hJP+1Seb9++wd07d6UiwbsU7aZKlviUxDID797OnT8vBtWejgk4EswgtWlNUfjX9Dbpxz90DClFctrSzQOOQCuB7+VUrFAehQs7UXTdnAboGU6HnxWRZmU9TnPk2YFuSTCwXrhPSlD2iUMO0k0JZR39NB/CVq1aSeyO+QT+yNFj4JMBXs45RMCQQEcofAykBHY93Nxqk0w2eEl0YeGnhRHw7rWIFPeiuNQdMiDly8C7wQrk6Bchv5Jns+Q3rxFNoYYrV/lut+E3JWOGpJQyh6bZKDxau6NalUpwcf5UKPnOnft0dncHa9auF7NQDu3aRxXbpIbUpHEjTB4/AhO//gdOnAz7qB0z1LiXlwe+nTIOBY3cp+ItdsOW7egsSv1mG+Kl5ak1YGGXv8hUddb7Y69p2zx2xGAE0A7pfsxjWmouvD8zE1PyTue3nxeLI5RT4edwiK6V8Bka3yT4pFhRMYXnzm1F51An6ZbDDRO3/v+fnUlnJFaXT8d2WJB6oh9+5jyGfjGB1tfoj69J8n/4pJ2PRPSPQHr37CYf/3h36oVw8iU0yJgG0r1rSy/bPzZuwfcLl4rqfAB4aN9mcd/XzsiV2PTyzXQ9cir5ugYbETuo1au7ptwhJ8aFU0/M+X7TxYvqSHmm2/2bMDC5IbHe5s4PwtIVv8oqnDxuOM6fOIBBA/qC731/DOC4CO9+pk+ZgLBDu7DltxWwTd3ZNW1cT4h05NgpgzuxjyFvTmvT5EubUgE9ugVi5tTxqrMeLuebkCPHf023Da9m6cCx8fDFN1fXqphLtxidU6OzfInNv/sgHKVtNH81smndciF278EjsYfu3GiQcQ1kqSGxOMXonnfI7k3ikrq+eBxEe0R3pFfSbcOgxcuQlHo7Ur9eRnE+gBw5fBDdd/YSHySwQUnAX13Up6CbFL/ZsmG1uOD2x+Yd+HzUl1I17ZlBDWS5IbE8fOI8Z9ZU+HjrPoExJCcH2/iC/CPafkdEXRXHLhF0R/rmzdsU34mTT+T5GIOXKWcKRvKNvlJ0AZ/P2OztbemTJhuDRsvtBR88hAFDR9PV0ZSgKIcDFv0wC4ePh6Fb78EiyGdILi3vrzXwQQxJiEGzAkeh5/5jKuoprqT8tYiZr3Ep6gp9UDCRjDNKtWMb0K8X8lH0PGgRzYZJLzPf0N+Yw4czpFQlc2S5dGkX9OnRFb266j6hyYox2LhtJ35asgqXIiJUNyCzoq2/O88PbkhKhfPZXI0arujg1Rrt27Y2uiQpad6V5u379l3BdM1hB8LCToM/ldLgw2jgoxqSsot8RdaFLoyVpw8sS5d2Rhn6ht6ZrrMWLlxQfDKUW3zybCb8JP40/P6Dh7hB31pduXadfKlriIy8Ig4Vld/CKflr6azVQLYxpKztpsY9qzWQJQHJrBZa45/9NKAZUvYbkxwpkWZIOXLYsp/QmiFlvzHJkRJphpQjhy37Ca0ZUvYbkxwpkWZIOXLYsp/QmiFlvzHJkRJphpQjhy37CU3/r0V3Vyf7iadJlFM08H8lfiby7LTsuwAAAABJRU5ErkJggg==;" vertex="1" parent="1">
          <mxGeometry x="610.8" y="139.93" width="99.41" height="38.13" as="geometry" />
        </mxCell>
        <mxCell id="UFaXmECFwQH_9bim80W3-39" value="SP（SA）" style="text;html=1;align=center;verticalAlign=middle;resizable=0;points=[];autosize=1;strokeColor=#23445d;fillColor=#bac8d3;" vertex="1" parent="1">
          <mxGeometry x="750" y="20" width="80" height="30" as="geometry" />
        </mxCell>
        <mxCell id="UFaXmECFwQH_9bim80W3-40" value="SB" style="text;html=1;align=center;verticalAlign=middle;resizable=0;points=[];autosize=1;strokeColor=#23445d;fillColor=#bac8d3;" vertex="1" parent="1">
          <mxGeometry x="740" y="120" width="40" height="30" as="geometry" />
        </mxCell>
        <mxCell id="UFaXmECFwQH_9bim80W3-41" value="SD" style="text;html=1;align=center;verticalAlign=middle;resizable=0;points=[];autosize=1;strokeColor=#23445d;fillColor=#bac8d3;" vertex="1" parent="1">
          <mxGeometry x="740" y="168" width="40" height="30" as="geometry" />
        </mxCell>
        <mxCell id="UFaXmECFwQH_9bim80W3-42" value="DSP" style="text;html=1;align=center;verticalAlign=middle;resizable=0;points=[];autosize=1;strokeColor=#23445d;fillColor=#bac8d3;" vertex="1" parent="1">
          <mxGeometry x="790" y="335.01" width="50" height="30" as="geometry" />
        </mxCell>
        <mxCell id="UFaXmECFwQH_9bim80W3-43" style="edgeStyle=orthogonalEdgeStyle;rounded=0;orthogonalLoop=1;jettySize=auto;html=1;entryX=1;entryY=0.6;entryDx=0;entryDy=0;entryPerimeter=0;" edge="1" parent="1" source="UFaXmECFwQH_9bim80W3-6" target="UFaXmECFwQH_9bim80W3-42">
          <mxGeometry relative="1" as="geometry">
            <Array as="points">
              <mxPoint x="880" y="353" />
            </Array>
          </mxGeometry>
        </mxCell>
        <mxCell id="UFaXmECFwQH_9bim80W3-44" value="" style="shape=flexArrow;endArrow=classic;html=1;rounded=0;fillColor=#B7C3CC;strokeColor=none;" edge="1" parent="1">
          <mxGeometry width="50" height="50" relative="1" as="geometry">
            <mxPoint x="771" y="349.51" as="sourcePoint" />
            <mxPoint x="701" y="349.51" as="targetPoint" />
          </mxGeometry>
        </mxCell>
        <mxCell id="UFaXmECFwQH_9bim80W3-45" value="" style="shape=flexArrow;endArrow=classic;html=1;rounded=0;fillColor=#B7C3CC;strokeColor=none;" edge="1" parent="1">
          <mxGeometry width="50" height="50" relative="1" as="geometry">
            <mxPoint x="494.1" y="198" as="sourcePoint" />
            <mxPoint x="400" y="120" as="targetPoint" />
          </mxGeometry>
        </mxCell>
        <mxCell id="UFaXmECFwQH_9bim80W3-46" value="" style="shape=flexArrow;endArrow=classic;html=1;rounded=0;fillColor=#B7C3CC;strokeColor=none;" edge="1" parent="1">
          <mxGeometry width="50" height="50" relative="1" as="geometry">
            <mxPoint x="402.97" y="59.5" as="sourcePoint" />
            <mxPoint x="612.97" y="59.56" as="targetPoint" />
          </mxGeometry>
        </mxCell>
        <mxCell id="UFaXmECFwQH_9bim80W3-47" value="01" style="text;html=1;align=center;verticalAlign=middle;resizable=0;points=[];autosize=1;strokeColor=none;fillColor=#fad9d5;" vertex="1" parent="1">
          <mxGeometry x="487.97" y="70" width="40" height="30" as="geometry" />
        </mxCell>
        <mxCell id="UFaXmECFwQH_9bim80W3-48" value="02" style="text;html=1;align=center;verticalAlign=middle;resizable=0;points=[];autosize=1;strokeColor=none;fillColor=#fad9d5;" vertex="1" parent="1">
          <mxGeometry x="403.06" y="168" width="40" height="30" as="geometry" />
        </mxCell>
        <mxCell id="UFaXmECFwQH_9bim80W3-49" value="03" style="text;html=1;align=center;verticalAlign=middle;resizable=0;points=[];autosize=1;strokeColor=none;fillColor=#fad9d5;" vertex="1" parent="1">
          <mxGeometry x="790" y="365.45" width="40" height="30" as="geometry" />
        </mxCell>
        <mxCell id="UFaXmECFwQH_9bim80W3-50" value="04" style="text;html=1;align=center;verticalAlign=middle;resizable=0;points=[];autosize=1;strokeColor=none;fillColor=#fad9d5;" vertex="1" parent="1">
          <mxGeometry x="830" y="20" width="40" height="30" as="geometry" />
        </mxCell>
        <mxCell id="UFaXmECFwQH_9bim80W3-51" value="05" style="text;html=1;align=center;verticalAlign=middle;resizable=0;points=[];autosize=1;strokeColor=none;fillColor=#fad9d5;" vertex="1" parent="1">
          <mxGeometry x="780" y="120" width="40" height="30" as="geometry" />
        </mxCell>
        <mxCell id="UFaXmECFwQH_9bim80W3-52" value="06" style="text;html=1;align=center;verticalAlign=middle;resizable=0;points=[];autosize=1;strokeColor=none;fillColor=#fad9d5;" vertex="1" parent="1">
          <mxGeometry x="780" y="168" width="40" height="30" as="geometry" />
        </mxCell>
        <mxCell id="UFaXmECFwQH_9bim80W3-53" value="07" style="text;html=1;align=center;verticalAlign=middle;resizable=0;points=[];autosize=1;strokeColor=none;fillColor=#fad9d5;" vertex="1" parent="1">
          <mxGeometry x="890" y="300" width="40" height="30" as="geometry" />
        </mxCell>
        <mxCell id="UFaXmECFwQH_9bim80W3-54" value="08" style="text;html=1;align=center;verticalAlign=middle;resizable=0;points=[];autosize=1;strokeColor=none;fillColor=#fad9d5;" vertex="1" parent="1">
          <mxGeometry x="710.21" y="369.89" width="40" height="30" as="geometry" />
        </mxCell>
        <mxCell id="UFaXmECFwQH_9bim80W3-55" value="09" style="text;html=1;align=center;verticalAlign=middle;resizable=0;points=[];autosize=1;strokeColor=none;fillColor=#fad9d5;" vertex="1" parent="1">
          <mxGeometry x="676.02" y="90" width="40" height="30" as="geometry" />
        </mxCell>
      </root>
    </mxGraphModel>
  </diagram>
</mxfile>
